<?xml version="1.0" encoding="UTF-8"?>
<!DOCTYPE svg  PUBLIC '-//W3C//DTD SVG 1.1//EN'  'http://www.w3.org/Graphics/SVG/1.1/DTD/svg11.dtd'>
<svg version="1.1" xmlns="http://www.w3.org/2000/svg">
<defs>
<font id="MADECanvas-Light" horiz-adv-x="292">
<font-face font-family="MADE Canvas" font-weight="300" ascent="800" bbox="0 -377 996 881" cap-height="700" descent="-200" panose-1="2 0 5 3 0 0 0 2 0 4" underline-position="-100" underline-thickness="50" unicode-range="U+0020-00FE" units-per-em="1000" x-height="494"/>
<missing-glyph/>
<glyph glyph-name="space" horiz-adv-x="210" unicode=" "/>
<glyph d="M95 700q28 -2 25 -59q-2 -18 -18 -277l-5 -187h-2h-3l-4 184v3q-5 78 -16 249q-2 24 -2 28q-4 58 25 59zM95 69q28 0 37 -26q2 -7 2 -13q0 -28 -26 -37q-7 -2 -13 -2q-28 0 -37 25q-3 7 -3 14q0 27 26 37q7 2 14 2z" glyph-name="exclam" horiz-adv-x="189" unicode="!"/>
<glyph d="M74 700q23 0 17 -46v-2q-2 -13 -6 -34q-8 -34 -9 -58h-2h-3q-1 12 -11 74q-2 10 -3 18q-6 47 17 48zM139 700q23 0 17 -46v-2q-2 -13 -6 -35q-7 -34 -9 -57h-2h-2q-1 11 -13 79q-1 7 -2 13q-6 47 17 48z" glyph-name="quotedbl" horiz-adv-x="213" unicode='"'/>
<glyph d="M520 366h-142v-170h142v-4h-142v-155h-5v155h-172v-155h-5v155h-141v4h141v170h-141v5h141v155h5v-155h172v155h5v-155h142v-5zM373 196v170h-172v-170h172z" glyph-name="numbersign" horiz-adv-x="575" unicode="#"/>
<glyph d="M508 168q0 -106 -98 -152q-54 -24 -126 -25v-97h-5v97q-53 0 -139 19q-46 10 -62 1q-18 -13 -18 -47h-5v252h5q0 -71 58 -139q70 -80 161 -81v330q-102 53 -136 82q-65 58 -66 135q0 117 110 154q40 13 89 13h3v97h5v-97q38 -1 123 -25q8 -2 14 -4q39 -11 47 19 q4 14 4 37h5v-252h-5q0 97 -62 163q-52 54 -126 57v-310q106 -57 134 -77q89 -65 90 -150zM130 570q0 -77 91 -138q23 -15 58 -34v307h-1q-73 0 -116 -47q-32 -36 -32 -88zM284 -4q84 2 133 60q31 38 31 85q0 81 -92 141q-26 17 -72 41v-327z" glyph-name="dollar" horiz-adv-x="563" unicode="$"/>
<glyph d="M401 709h5l-252 -709h-5zM158 709q98 0 110 -109q2 -15 2 -31q0 -124 -90 -138q-11 -2 -22 -2q-96 0 -111 104q-2 17 -2 36q0 131 100 139q7 1 13 1zM158 432q58 0 68 105q1 16 1 32q0 108 -47 132q-10 5 -22 5q-59 0 -68 -107q-1 -15 -1 -30q-2 -102 41 -129 q13 -8 28 -8zM407 271q96 0 111 -104q2 -17 2 -36q0 -128 -95 -140q-9 -1 -18 -1q-111 4 -112 141q0 124 90 138q11 2 22 2zM407 -6q60 0 69 106q1 15 1 30q0 112 -49 134q-10 4 -21 4q-58 0 -68 -105q-1 -16 -1 -32q0 -111 48 -133q11 -4 21 -4z" glyph-name="percent" horiz-adv-x="565" unicode="%"/>
<glyph d="M429 354q77 -15 107 -88q15 -35 14 -75q-3 -96 -78 -153q-63 -45 -157 -47l5 -109h-15l5 108h-2q-144 0 -216 77q-45 49 -46 117q-1 130 111 173q40 14 90 16q-106 23 -143 107q-14 34 -14 72q1 115 115 147q36 10 76 10h12l-5 107h15l-5 -108q106 -6 143 -86 q30 -64 2 -128q-21 -42 -58 -59v15q56 33 59 104q2 71 -50 116q-42 35 -101 35q-90 0 -133 -60q-27 -40 -26 -98q2 -74 63 -129q51 -45 111 -45h34v-8h-59q-91 0 -145 -57q-45 -50 -41 -127q8 -124 125 -168q47 -18 98 -18q121 0 183 81q37 49 37 110q0 84 -58 130 q-25 19 -53 23v15z" glyph-name="ampersand" horiz-adv-x="596" unicode="&amp;"/>
<glyph d="M74 700q23 0 17 -46v-2q-2 -12 -6 -32q-7 -36 -8 -60h-3h-2q-1 11 -13 79q-1 7 -2 13q-6 47 17 48z" glyph-name="quotesingle" horiz-adv-x="148" unicode="'"/>
<glyph d="M331 729q-98 0 -164 -129q-64 -128 -64 -300q0 -177 67 -304q66 -123 161 -124v-5q-144 0 -220 159q-56 119 -56 274q0 177 70 301q77 132 206 133v-5z" glyph-name="parenleft" horiz-adv-x="386" unicode="("/>
<glyph d="M55 734q144 0 220 -160q56 -119 56 -274q0 -177 -70 -300q-76 -132 -206 -133v5q97 0 163 129q65 127 65 299q0 176 -67 304q-66 124 -161 125v5z" glyph-name="parenright" horiz-adv-x="386" unicode=")"/>
<glyph d="M310 730q4 -16 -22 -22q-5 -1 -11 -2q-70 -14 -90 -19q29 -31 63 -64q26 -27 14 -38q-14 -11 -33 20q-1 1 -1 2q-27 47 -47 77q-21 -31 -47 -77q-20 -32 -34 -22q-12 12 14 38q35 33 63 64q-22 6 -90 19q-34 5 -34 19q0 3 1 5q8 15 41 0q47 -23 84 -38q-3 37 -11 94 q-5 38 13 39q18 0 13 -37v-2q-9 -59 -11 -94q38 15 84 38q34 16 41 0z" glyph-name="asterisk" horiz-adv-x="366" unicode="*"/>
<glyph d="M336 284v-5h-139v-138h-4v138h-138v5h138v138h4v-138h139z" glyph-name="plus" horiz-adv-x="391" unicode="+"/>
<glyph d="M134 30q8 -114 -69 -111v4q58 -4 65 64q1 13 0 26q-13 -21 -36 -22q-25 0 -36 23q-3 8 -3 16q0 27 25 36q7 3 14 3q36 -2 40 -39z" glyph-name="comma" horiz-adv-x="191" unicode=","/>
<glyph d="M55 284h223v-5h-223v5z" glyph-name="hyphen" horiz-adv-x="333" unicode="-"/>
<glyph d="M94 69q28 0 37 -26q2 -7 2 -13q0 -28 -26 -37q-7 -2 -13 -2q-28 0 -37 26q-2 7 -2 13q0 28 26 37q7 2 13 2z" glyph-name="period" horiz-adv-x="188" unicode="."/>
<glyph d="M200 710h5l-145 -710h-5z" glyph-name="slash" horiz-adv-x="260" unicode="/"/>
<glyph d="M270 709q142 0 196 -159q29 -83 29 -200q0 -238 -109 -322q-49 -38 -116 -38q-141 0 -196 157q-29 85 -29 203q0 239 110 322q49 37 115 37zM270 -5q98 0 138 169q19 84 19 186q0 188 -56 287q-41 67 -101 68q-97 0 -138 -166q-20 -85 -20 -189q0 -183 55 -282 q41 -72 103 -73z" glyph-name="zero" horiz-adv-x="540" unicode="0"/>
<glyph d="M183 115q1 -76 18 -95q15 -15 45 -15v-5h-179v5q46 0 56 38q6 22 7 72v488q0 28 -12 31q-13 2 -63 -12v5l125 73h3v-585z" glyph-name="one" horiz-adv-x="301" unicode="1"/>
<glyph d="M457 116h4l-19 -116h-397v5q29 33 144 151q121 122 164 205q41 82 41 164q-1 86 -53 140q-40 40 -93 40q-90 0 -139 -72q-41 -61 -22 -123q12 -39 45 -60v-12q-52 24 -60 90q-8 73 44 127q54 54 145 54q112 0 165 -70q33 -46 33 -114q0 -96 -86 -195q-31 -36 -149 -148 q-77 -74 -128 -129h222q85 1 114 25q16 15 25 38z" glyph-name="two" horiz-adv-x="506" unicode="2"/>
<glyph d="M270 373q157 -5 194 -116q10 -33 10 -73q-3 -120 -108 -168q-56 -26 -132 -26q-101 1 -189 49v15q48 -40 133 -55q24 -4 44 -4q85 0 139 61q44 50 47 126q4 103 -72 155q-45 29 -101 29h-54v7h33q84 0 130 73q28 47 28 101q0 93 -63 135q-34 23 -77 23q-90 0 -134 -71 q-37 -60 -15 -123q14 -40 49 -61v-12q-53 22 -65 88q-13 71 34 126q50 57 143 57q132 0 170 -85q14 -31 14 -70q0 -105 -90 -156q-31 -17 -68 -25z" glyph-name="three" horiz-adv-x="520" unicode="3"/>
<glyph d="M383 165v-50q1 -76 18 -95q15 -15 45 -15v-5h-179v5q46 0 57 39q6 22 6 71v50h-300v5l349 530h4v-530h107v-5h-107zM35 170h295v449z" glyph-name="four" horiz-adv-x="500" unicode="4"/>
<glyph d="M86 378q147 71 250 11q77 -45 92 -142q3 -25 2 -50q-14 -206 -233 -207q-82 1 -147 37v15q59 -47 135 -47q104 0 153 85q27 49 29 117q2 98 -55 155q-80 78 -231 19l19 329h164q69 0 89 15q17 13 28 45h5l-10 -114h-276q-10 -200 -14 -268z" glyph-name="five" horiz-adv-x="476" unicode="5"/>
<glyph d="M285 -9q-110 -12 -177 65q-57 66 -62 176q-8 202 154 352q80 74 180 116v-4q-165 -113 -224 -245q-20 -45 -35 -105q48 55 110 63q113 14 179 -57q46 -50 52 -127q10 -134 -77 -197q-42 -30 -100 -37zM232 404q-103 -12 -119 -135q-5 -36 -2 -78q8 -117 77 -170 q40 -30 87 -26q81 7 111 101q17 50 14 112q-5 114 -72 168q-44 33 -96 28z" glyph-name="six" horiz-adv-x="508" unicode="6"/>
<glyph d="M69 700h404v-5q-123 -144 -175 -269q-72 -174 -72 -426h-70q0 334 222 593q24 28 49 53h-234q-85 0 -114 -25q-16 -15 -24 -38h-5z" glyph-name="seven" horiz-adv-x="523" unicode="7"/>
<glyph d="M489 157q-4 -86 -85 -133q-59 -34 -138 -34q-129 0 -188 71q-30 38 -32 87q-4 98 89 165q32 23 85 50q-115 76 -135 149q-6 23 -5 45q5 95 98 134q43 18 90 18q96 0 147 -56q35 -40 35 -99q0 -95 -100 -157q-21 -13 -42 -22q10 -7 33 -23q87 -60 117 -101q33 -46 31 -94z M133 557q8 -67 134 -154q15 -10 38 -25q67 58 84 141q3 19 3 35q0 86 -56 129q-31 22 -68 22q-75 0 -113 -50q-28 -40 -22 -98zM266 -5q88 0 134 55q32 40 31 98q-2 67 -118 151q-16 12 -48 33q-30 20 -42 29q-107 -65 -115 -175q-1 -12 -1 -24q2 -102 79 -146 q37 -21 80 -21z" glyph-name="eight" horiz-adv-x="535" unicode="8"/>
<glyph d="M226 709q120 12 185 -68q52 -64 52 -173q0 -206 -160 -355q-78 -72 -174 -113v4q165 113 224 245q20 45 35 105q-48 -55 -110 -63q-115 -14 -181 58q-45 50 -51 126q-9 126 73 192q45 35 107 42zM276 296q128 16 119 213q-5 113 -71 167q-40 33 -88 29q-80 -7 -113 -100 q-17 -50 -15 -113q5 -114 73 -168q43 -33 95 -28z" glyph-name="nine" horiz-adv-x="508" unicode="9"/>
<glyph d="M94 69q28 0 37 -26q2 -7 2 -13q0 -28 -26 -37q-7 -2 -13 -2q-28 0 -37 26q-2 7 -2 13q0 28 26 37q7 2 13 2zM94 419q28 0 37 -26q2 -7 2 -13q0 -28 -26 -37q-7 -2 -13 -2q-28 0 -37 26q-2 7 -2 13q0 28 26 37q7 2 13 2z" glyph-name="colon" horiz-adv-x="188" unicode=":"/>
<glyph d="M94 418q28 0 37 -26q2 -7 2 -13q0 -28 -25 -37q-7 -3 -14 -3q-27 0 -37 26q-2 7 -2 14q0 28 26 37q7 2 13 2zM133 30q11 -99 -48 -110q-10 -1 -20 -1v4q57 -4 64 60q2 16 0 30q-13 -19 -35 -22q-27 0 -36 25q-3 7 -3 14q0 28 26 37q7 2 13 2q35 -2 39 -39z" glyph-name="semicolon" horiz-adv-x="190" unicode=";"/>
<glyph d="M263 516v-5l-205 -167l205 -167v-5l-208 169v5z" glyph-name="less" horiz-adv-x="318" unicode="&lt;"/>
<glyph d="M55 342h281v-5h-281v5zM55 221v5h281v-5h-281z" glyph-name="equal" horiz-adv-x="391" unicode="="/>
<glyph d="M55 516l208 -170v-5l-208 -169v5l205 167l-205 167v5z" glyph-name="greater" horiz-adv-x="318" unicode="&gt;"/>
<glyph d="M201 710q113 0 154 -69q24 -43 15 -108q-8 -55 -69 -124q-63 -70 -73 -83q-56 -76 -56 -159h-5q-5 83 55 180q7 12 23 36q54 82 64 127q2 9 3 16q17 117 -49 160q-31 20 -74 20q-84 0 -119 -72q-30 -62 -4 -127q19 -46 60 -66v-12q-55 20 -74 88q-21 73 18 131 q42 61 131 62zM174 69q28 0 37 -26q2 -7 2 -13q0 -28 -26 -37q-7 -2 -13 -2q-28 0 -37 26q-2 7 -2 13q0 28 26 37q7 2 13 2z" glyph-name="question" horiz-adv-x="418" unicode="?"/>
<glyph d="M197 119q2 47 49 74q-38 49 -37 126q0 14 2 28q11 70 66 99q28 14 63 14q99 0 129 -68q11 -24 11 -54v-211q0 -79 35 -88q7 -1 13 -1q49 0 74 73q19 58 19 152q0 235 -158 285q-48 15 -109 15q-233 0 -287 -180q-18 -60 -18 -140q0 -274 205 -316q35 -7 74 -7 q140 0 239 74q9 7 14 12l3 -3l-2 -1q-88 -74 -218 -85q-18 -1 -36 -1q-132 1 -204 77q-79 83 -79 250q1 170 80 249q78 75 229 75q146 -1 212 -84q59 -75 59 -220q-5 -226 -107 -231q-64 0 -81 42q-8 21 -9 51q-33 -68 -88 -86q-65 -20 -109 9q-35 24 -34 71zM213 341 q-8 -82 30 -139q3 -4 5 -7q24 14 105 37q14 4 23 7q30 10 52 25v70q-2 122 -88 123q-77 0 -110 -62q-13 -24 -17 -54zM244 138q-8 -70 41 -92q33 -15 69 2q47 24 74 82v130q-16 -11 -48 -23q-8 -3 -28 -9q-69 -20 -91 -47q-14 -19 -17 -43z" glyph-name="at" horiz-adv-x="670" unicode="@"/>
<glyph d="M579 139q35 -82 58 -107q26 -27 59 -27v-5h-199v5q53 0 54 40q-1 22 -13 54q-4 12 -69 180h-270q-25 -67 -49 -127q-33 -84 1 -125q19 -22 55 -22v-5h-196v5q69 23 102 75q11 20 21 43l226 577h5zM201 283h266q-111 288 -133 342q-78 -202 -133 -342z" glyph-name="A" horiz-adv-x="706" unicode="A"/>
<glyph d="M377 356q93 0 156 -55q55 -50 55 -124q0 -104 -99 -151q-55 -26 -121 -26h-313v5q46 0 57 39q6 22 6 71v470q0 76 -19 96q-15 14 -44 14v5h260q138 0 195 -76q30 -41 30 -98q0 -114 -110 -156q-25 -9 -53 -14zM174 585v-229h132q100 0 145 69q26 42 26 101q0 117 -96 155 q-34 14 -75 14h-69q-46 0 -57 -39q-6 -22 -6 -71zM354 5q66 0 117 45q54 48 54 127q0 104 -90 152q-42 22 -81 22h-180v-236q0 -76 19 -96q15 -14 44 -14h117z" glyph-name="B" horiz-adv-x="628" unicode="B"/>
<glyph d="M454 -2q126 3 228 96v-15q-87 -70 -196 -83q-16 -2 -32 -3q-164 -10 -279 84q-109 91 -123 239q-14 158 87 270q97 107 251 121q71 6 197 -21q48 -11 62 -2q16 13 16 50h4v-237h-4q0 78 -81 144q-17 14 -35 24q-80 44 -158 37q-114 -10 -193 -101q-96 -112 -81 -278 q18 -183 147 -270q85 -57 190 -55z" glyph-name="C" horiz-adv-x="737" unicode="C"/>
<glyph d="M360 700q155 0 253 -100q94 -97 94 -250q0 -197 -130 -289q-88 -61 -217 -61h-305v5q46 0 57 39q6 22 6 71v470q0 76 -19 96q-15 14 -44 14v5h305zM345 5q205 0 269 171q28 73 28 174q0 255 -176 324q-56 21 -121 21h-108q-46 0 -57 -39q-6 -22 -6 -71v-470q0 -76 19 -96 q15 -14 44 -14h108z" glyph-name="D" horiz-adv-x="757" unicode="D"/>
<glyph d="M567 162h5l-42 -162h-475v5q46 0 57 39q6 22 6 71v470q0 76 -19 96q-15 14 -44 14v5h446l41 -162h-4q-57 127 -149 152q-20 5 -40 5h-112q-46 0 -56 -38q-6 -22 -7 -72v-233h102q74 0 116 51q24 31 24 68h5v-242h-5q0 62 -59 97q-37 22 -81 22h-102v-233q1 -76 18 -95 q15 -15 45 -15h141q109 0 179 136q5 11 10 21z" glyph-name="E" horiz-adv-x="602" unicode="E"/>
<glyph d="M501 700l41 -162h-5q-57 127 -149 152q-20 5 -40 5h-112q-46 0 -56 -38q-6 -22 -7 -72v-233h102q76 0 117 51q24 31 24 68h5v-242h-5q0 63 -59 98q-37 21 -82 21h-102v-233q1 -76 18 -95q15 -15 45 -15v-5h-181v5q46 0 56 38q6 22 7 72v470q-1 76 -18 95q-15 15 -45 15v5 h446z" glyph-name="F" horiz-adv-x="562" unicode="F"/>
<glyph d="M563 317h182v-5q-46 0 -57 -39q-5 -21 -6 -70v-210h-5q0 39 -73 27q-18 -3 -58 -11q-64 -15 -91 -16q-167 -10 -281 85q-108 91 -122 238q-14 158 87 270q98 107 252 121q74 7 197 -21q47 -11 61 -2q16 13 16 50h5v-237h-5q0 78 -80 143q-18 14 -36 25q-80 44 -158 37 q-113 -10 -193 -101q-95 -112 -80 -278q17 -182 144 -269q86 -58 192 -56q86 2 172 64v141q0 76 -19 95q-15 14 -44 14v5z" glyph-name="G" horiz-adv-x="775" unicode="G"/>
<glyph d="M668 585v-470q1 -75 18 -95q16 -15 45 -15v-5h-181v5q46 0 57 40q5 21 6 70v232h-439v-232q1 -75 18 -95q16 -15 45 -15v-5h-182v5q47 0 58 41q5 22 5 69v470q0 77 -20 96q-15 14 -43 14v5h182v-5q-46 0 -57 -40q-5 -21 -6 -70v-233h439v233q-1 75 -18 95q-16 15 -45 15 v5h181v-5q-46 0 -57 -40q-5 -21 -6 -70z" glyph-name="H" horiz-adv-x="786" unicode="H"/>
<glyph d="M174 585v-470q0 -76 19 -96q15 -14 44 -14v-5h-182v5q46 0 57 39q6 22 6 71v470q0 76 -19 96q-15 14 -44 14v5h182v-5q-46 0 -57 -39q-6 -22 -6 -71z" glyph-name="I" unicode="I"/>
<glyph d="M58 700h182v-5q-46 0 -57 -39q-6 -22 -6 -71v-563q0 -196 -160 -217q-7 -1 -12 -1v6q115 43 116 200v575q0 76 -19 96q-15 14 -44 14v5z" glyph-name="J" horiz-adv-x="295" unicode="J"/>
<glyph d="M507 134q112 -128 200 -129v-5h-170l-285 357q-22 -21 -57 -53q-16 -14 -21 -19v-170q0 -76 19 -96q15 -14 44 -14v-5h-182v5q46 0 56 38q6 22 7 72v470q-1 76 -18 95q-15 15 -45 15v5h182v-5q-46 0 -57 -39q-6 -22 -6 -71v-295q210 196 286 272q63 64 47 106 q-12 26 -55 27v5h204v-5q-59 0 -197 -140l-24 -24q-11 -12 -141 -136q137 -171 213 -261z" glyph-name="K" horiz-adv-x="717" unicode="K"/>
<glyph d="M567 162h5l-42 -162h-475v5q46 0 57 39q6 22 6 71v470q0 76 -19 96q-15 14 -44 14v5h182v-5q-46 0 -56 -38q-6 -22 -7 -72v-470q1 -76 18 -95q15 -15 45 -15h141q109 0 179 136q5 11 10 21z" glyph-name="L" horiz-adv-x="592" unicode="L"/>
<glyph d="M764 585v-470q0 -76 19 -96q15 -14 44 -14v-5h-182v5q46 0 57 39q6 22 6 71v575l-269 -545h-10l-235 428q-34 60 -41 69v-468q1 -168 119 -169v-5h-242v5q117 2 118 169v474q-39 46 -80 47v5h126l270 -495l244 495h119v-5q-46 0 -57 -39q-6 -22 -6 -71z" glyph-name="M" horiz-adv-x="882" unicode="M"/>
<glyph d="M519 700h242v-5q-118 -2 -119 -170v-525h-9q-14 17 -317 406q-154 196 -163 208v-440q1 -168 119 -169v-5h-242v5q117 2 118 169v446q-60 74 -111 75v5h128l472 -612v437q-1 169 -118 170v5z" glyph-name="N" horiz-adv-x="791" unicode="N"/>
<glyph d="M393 707q159 14 274 -73q121 -93 130 -251q10 -172 -100 -283q-95 -94 -240 -107q-160 -15 -276 79q-113 92 -129 244q-16 156 86 269q97 106 251 122h4zM456 -2q112 10 192 103q95 112 84 273q-11 154 -119 250q-93 82 -206 79q-8 0 -14 -1q-118 -11 -196 -104 q-91 -109 -79 -273q13 -167 127 -260q96 -77 211 -67z" glyph-name="O" horiz-adv-x="848" unicode="O"/>
<glyph d="M315 700q140 0 196 -90q28 -46 28 -109q0 -129 -108 -176q-50 -22 -116 -22h-142v-188q1 -76 18 -95q15 -15 45 -15v-5h-181v5q46 0 56 38q6 22 7 72v470q-1 75 -18 95q-16 15 -45 15v5h260zM305 307q114 0 154 96q17 42 17 98q0 141 -98 181q-33 13 -73 13h-69 q-46 0 -57 -40q-5 -21 -6 -70v-278h132z" glyph-name="P" horiz-adv-x="579" unicode="P"/>
<glyph d="M624 -92q94 -28 149 16l3 -3l-49 -40q-8 -6 -15 -11q-41 -28 -97 -19q-43 7 -134 51q-81 38 -119 33q-14 -3 -26 -9q-11 -7 -20 -10q-21 -7 -26 2q-6 9 14 15q12 3 26 3q33 2 75 23q5 3 20 11q29 17 46 25q-10 -2 -15 -2q-160 -15 -276 79q-112 93 -128 244 q-16 156 86 269q97 106 251 122h4q159 14 274 -73q121 -93 130 -251q9 -172 -102 -283q-83 -83 -209 -103q-17 -5 -94 -50q68 25 147 -6q10 -3 30 -12q36 -15 55 -21zM118 325q13 -167 127 -260q96 -77 211 -67q112 10 192 103q94 112 83 273q-11 155 -120 251 q-93 82 -206 78q-6 -1 -12 -1q-117 -11 -196 -103q-92 -109 -79 -274z" glyph-name="Q" horiz-adv-x="848" unicode="Q"/>
<glyph d="M544 109q71 -103 153 -104v-5h-85q-69 1 -107 44q-35 40 -79 149q-40 99 -67 129q-26 27 -57 29h-128v-236q0 -76 19 -96q15 -14 44 -14v-5h-182v5q46 0 57 39q6 22 6 71v470q0 77 -20 96q-15 14 -43 14v5h259q138 0 195 -77q30 -41 30 -98q0 -116 -114 -157 q-29 -10 -63 -14q58 -20 104 -102q10 -17 28 -54q31 -61 50 -89zM174 356h132q97 0 143 67q27 42 27 102q0 118 -95 156q-35 14 -75 14h-69q-47 0 -58 -41q-5 -22 -5 -69v-229z" glyph-name="R" horiz-adv-x="712" unicode="R"/>
<glyph d="M130 569q0 -77 93 -139q17 -10 121 -67q105 -57 139 -111q25 -39 25 -85q0 -104 -96 -150q-56 -27 -131 -27q-61 0 -141 20q-48 11 -64 -1q-16 -13 -16 -45h-5v251h5q0 -71 59 -139q70 -80 162 -81q83 0 133 57q34 39 34 88q0 81 -91 142q-18 11 -120 65t-135 107 q-25 40 -25 88q0 117 110 154q40 13 89 13q45 0 129 -25q10 -2 16 -4q38 -9 47 18q4 14 4 38h5v-252h-5q0 97 -62 163q-55 57 -132 57q-74 0 -117 -48q-31 -36 -31 -87z" glyph-name="S" horiz-adv-x="563" unicode="S"/>
<glyph d="M619 700l22 -151h-5q-46 105 -111 133q-29 13 -63 13h-28q-47 0 -58 -41q-5 -22 -5 -69v-470q0 -76 19 -96q15 -14 44 -14v-5h-182v5q46 0 57 39q6 22 6 71v470q0 77 -20 96q-15 14 -43 14h-28q-95 0 -145 -87q-12 -19 -29 -59h-5l22 151h552z" glyph-name="T" horiz-adv-x="686" unicode="T"/>
<glyph d="M529 700h131v-5q-47 0 -58 -41q-5 -22 -5 -69v-367q0 -170 -137 -215q-42 -13 -91 -13q-118 0 -188 67q-63 60 -63 161v367q-1 75 -18 95q-16 15 -45 15v5h181v-5q-46 0 -57 -40q-5 -21 -6 -70v-379q0 -105 79 -167q54 -42 117 -42q178 0 215 146q8 35 8 75v367 q0 77 -20 96q-15 14 -43 14v5z" glyph-name="U" horiz-adv-x="715" unicode="U"/>
<glyph d="M524 700h196v-5q-68 -25 -100 -73q-13 -21 -23 -46q-16 -39 -68 -183t-96 -269l-44 -124h-5l-232 560q-34 82 -56 106q-27 28 -61 29v5h199v-5q-55 0 -54 -43q1 -21 13 -52q43 -114 217 -517q1 -3 2 -5q20 55 75 209q87 244 93 260q32 84 -1 125q-19 23 -55 23v5z" glyph-name="V" horiz-adv-x="755" unicode="V"/>
<glyph d="M800 700h196v-5q-68 -24 -97 -62q-16 -23 -27 -54q-14 -41 -55.5 -185.5t-76.5 -269.5l-35 -124h-5l-187 606l-166 -606h-5l-191 560q-32 97 -69 122q-21 13 -47 13v5h201v-5q-44 0 -46 -32q-1 -18 8 -49q56 -175 171 -514l164 600h8l188 -599q16 56 57 201 q64 225 69 245q40 147 -55 148v5z" glyph-name="W" horiz-adv-x="1031" unicode="W"/>
<glyph d="M684 695q-97 -20 -172 -124l-130 -196q32 -50 87 -135q35 -54 43 -66q64 -92 80 -111q50 -57 90 -58v-5h-187v5q48 0 16 69q-9 18 -20 35q-62 92 -141 217q-60 -91 -121 -183q-52 -79 -24 -118q15 -20 48 -20v-5h-213v5q98 20 172 123q50 70 135 202q-105 164 -113 176 q-61 95 -64 99q-65 89 -113 90v5h182v-5q-57 0 -4 -92q6 -11 13 -21q30 -47 131 -203q108 164 116 178q58 89 22 123q-16 15 -46 15v5h213v-5z" glyph-name="X" horiz-adv-x="724" unicode="X"/>
<glyph d="M442 700h203v-5q-78 -19 -122 -89q-14 -22 -26 -49q-13 -31 -59 -136q-37 -85 -52 -120v-186q0 -76 19 -96q15 -14 44 -14v-5h-186v5q46 0 57 39q5 22 5 71v189q-33 58 -125 213l-12 20q-61 105 -101 136q-27 22 -52 22v5h184v-5q-36 0 -22 -55q4 -17 12 -32 q35 -69 173 -296q1 -2 2 -3q22 49 69 155q26 59 30 69q47 105 7 145q-17 17 -48 17v5z" glyph-name="Y" horiz-adv-x="680" unicode="Y"/>
<glyph d="M553 700v-5l-441 -690h225q127 1 184 128h5l-31 -133h-455v5l438 690h-223q-127 -1 -184 -129h-5l32 134h455z" glyph-name="Z" horiz-adv-x="593" unicode="Z"/>
<glyph d="M202 744h-97v-763h97v-5h-147v773h147v-5z" glyph-name="bracketleft" horiz-adv-x="232" unicode="["/>
<glyph d="M55 710h5l145 -710h-5z" glyph-name="backslash" horiz-adv-x="260" unicode="\"/>
<glyph d="M30 749h148v-773h-148v5h97v763h-97v5z" glyph-name="bracketright" horiz-adv-x="233" unicode="]"/>
<glyph d="M399 528h-5l-167 205l-167 -205h-5l170 208h5z" glyph-name="asciicircum" horiz-adv-x="454" unicode="^"/>
<glyph d="M55 -5h281v-4h-281v4z" glyph-name="underscore" horiz-adv-x="391" unicode="_"/>
<glyph d="M99 681l41 -112h-2h-3l-80 112h44z" glyph-name="grave" horiz-adv-x="195" unicode="`"/>
<glyph d="M441 -3q14 0 31 10l1 1v-6q-20 -12 -44 -12q-67 0 -88 38q-15 29 -16 79q-41 -87 -109 -108q-74 -23 -124 7q-45 28 -41 88q6 75 111 113q20 8 61 19q26 7 37 11q35 12 65 33v81q-1 147 -97 148q-88 -1 -114 -53q-9 -20 7 -41q11 -17 14 -27q7 -28 -16 -40q-12 -6 -26 -3 q-29 6 -28 43q1 17 9 34q42 90 156 91q131 0 149 -114q2 -16 2 -33v-252q0 -94 45 -105q7 -2 15 -2zM233 9q59 31 92 104v152q-24 -17 -61 -30q-10 -4 -34 -11q-77 -22 -104 -50q-21 -24 -25 -57q-9 -82 47 -109q41 -19 85 1z" glyph-name="a" horiz-adv-x="498" unicode="a"/>
<glyph d="M305 504q95 0 157 -75q58 -71 58 -182q0 -218 -151 -251q-26 -6 -55 -6q-74 1 -123 63q-32 39 -76 -36l-9 -17h-3v622q0 76 -19 95q-15 14 -44 14v5h136v-5q-17 -9 -17 -150v-172q36 76 112 92q17 3 34 3zM299 -2q122 0 152 152q8 43 8 97q0 176 -96 230q-35 19 -78 19 q-49 0 -92 -44q-23 -25 -34 -55v-150q0 -100 12 -138q22 -75 81 -101q23 -10 47 -10z" glyph-name="b" horiz-adv-x="560" unicode="b"/>
<glyph d="M311 -5q61 1 120 46q11 9 19 17v-12q-68 -50 -139 -55q-120 -9 -198 66q-69 67 -72 173q-5 159 104 232q52 33 121 41q92 9 158 -53q19 -19 28 -36q20 -42 -2 -66q-7 -7 -17 -10q-28 -6 -40 17q-5 12 -2 25q1 3 15 31q8 20 -4 39q-25 36 -89 47q-24 4 -46 2 q-85 -6 -131 -96q-37 -74 -33 -171q5 -124 86 -192q55 -45 122 -45z" glyph-name="c" horiz-adv-x="501" unicode="c"/>
<glyph d="M470 115q0 -77 20 -96q15 -14 43 -14v-5h-136v5q17 9 17 138q-23 -126 -122 -149q-20 -4 -40 -4q-108 0 -166 89q-44 69 -40 168q5 142 110 211q36 23 79 34q65 15 172 9h1h1h1h1h1h1h1v121q0 76 -19 95q-15 14 -44 14v5h136v-5q-17 -9 -17 -150v-466zM277 -2 q63 0 104 65q14 22 21 46q9 28 12 65v322q-77 9 -139 -3q-10 -2 -16 -4q-145 -54 -152 -242q-5 -147 72 -213q42 -36 98 -36z" glyph-name="d" horiz-adv-x="588" unicode="d"/>
<glyph d="M502 333h-393q-12 -50 -8 -102q11 -128 99 -194q57 -43 124 -42q88 3 154 69v-11q-59 -47 -118 -58q-18 -3 -36 -4q-130 -9 -210 69q-65 64 -73 168q-10 134 82 213q64 55 154 62q121 9 185 -74q30 -41 40 -96zM279 499q-76 2 -130 -76q-26 -38 -39 -86h328 q-10 101 -80 142q-35 19 -79 20z" glyph-name="e" horiz-adv-x="542" unicode="e"/>
<glyph d="M322 724q37 -17 38 -50q0 -10 -4 -18q-11 -22 -38 -14q-16 5 -23 17q-4 8 -5 44q-2 30 -24 31q-87 0 -92 -121v-12v-107h104v-5h-104v-374q0 -77 20 -96q15 -14 43 -14v-5h-182v5q47 0 58 41q5 22 5 69v374h-63v5h63v102q1 142 136 143q38 0 67 -15h1z" glyph-name="f" horiz-adv-x="285" unicode="f"/>
<glyph d="M481 -32q21 -57 -27 -122q-50 -66 -138 -91q-97 -28 -195 2q-89 27 -102 83q-1 1 -1 2q-19 92 84 115q23 5 50 6q45 0 77 -4v-10l-40 9q-23 2 -42 0q-52 -5 -74 -49q-13 -26 -11 -59q5 -75 91 -97q81 -21 170 12q15 6 27 12q77 40 92 102q9 42 -15 65q-20 19 -124 28 q-126 11 -168 29q-16 7 -27 16q-31 24 -16 63q2 5 4 9q17 30 64 46q-92 39 -98 142q-7 116 90 166q37 18 81 23q72 6 127 -27q14 57 46 79q33 22 57 6q7 -5 10 -11q11 -27 -12 -39q-9 -5 -18 -4q-8 1 -22 7q-22 9 -36 -2l-3 -3q-13 -13 -20 -35q67 -45 72 -127 q6 -107 -81 -160q-41 -24 -90 -29q-55 -5 -100 12q-44 -16 -37 -45q8 -30 59 -42q63 -14 187 -25q70 -6 92 -26q11 -12 17 -27zM234 462q-58 -5 -92 -68q-26 -49 -23 -112q6 -88 68 -134q37 -28 76 -25q62 7 94 70q24 47 20 111q-5 99 -73 141q-34 20 -70 17z" glyph-name="g" horiz-adv-x="502" unicode="g"/>
<glyph d="M498 344v-229q1 -75 18 -95q16 -15 45 -15v-5h-181v5q46 0 57 40q5 21 6 70v234q0 83 -53 123q-33 24 -80 24q-49 0 -96 -39q-28 -25 -40 -54v-288q0 -77 20 -96q15 -14 43 -14v-5h-182v5q47 0 58 41q5 22 5 69v507q0 76 -19 95q-15 14 -44 14v5h136v-5q-17 -9 -17 -150 v-167q31 59 100 81q27 9 55 9q165 -8 169 -160z" glyph-name="h" horiz-adv-x="616" unicode="h"/>
<glyph d="M146 699q29 0 41 -28q3 -9 3 -17q0 -30 -26 -42q-9 -4 -18 -4q-28 0 -39 28q-4 9 -4 18q0 30 27 42q8 3 16 3zM174 339v-224q0 -77 20 -96q15 -14 43 -14v-5h-182v5q47 0 58 41q5 22 5 69v264q0 76 -19 96q-15 14 -44 14v5h136v-5q-17 -10 -17 -150z" glyph-name="i" unicode="i"/>
<glyph d="M56 494h136v-5q-17 -10 -17 -150v-410q0 -197 -168 -217q-4 -1 -7 -1v7q118 45 119 199v462q0 76 -19 96q-15 14 -44 14v5zM147 608q-28 0 -40 28q-4 9 -4 18q0 30 27 42q9 3 17 3q29 0 40 -28q3 -9 3 -17q0 -31 -27 -43q-8 -3 -16 -3z" glyph-name="j" unicode="j"/>
<glyph d="M409 118q49 -69 76 -89q32 -24 69 -24v-5h-136l-179 283l-65 -65v-103q0 -77 20 -96q15 -14 43 -14v-5h-182v5q47 0 58 41q5 22 5 69v507q0 76 -19 95q-15 14 -44 14v5h136v-5q-17 -9 -17 -150v-356q6 6 49 48q119 116 149 146q23 23 12 48q-1 2 -2 3q-13 19 -65 19v5 h208v-5q-40 0 -98 -35q-28 -17 -50 -38q-30 -28 -101 -97q33 -56 116 -177q10 -15 17 -24z" glyph-name="k" horiz-adv-x="584" unicode="k"/>
<glyph d="M174 581v-466q0 -77 20 -96q15 -14 43 -14v-5h-182v5q47 0 58 41q5 22 5 69v507q0 76 -19 95q-15 14 -44 14v5h136v-5q-17 -9 -17 -150z" glyph-name="l" unicode="l"/>
<glyph d="M792 344v-229q0 -77 20 -96q15 -14 43 -14v-5h-182v5q47 0 58 41q5 22 5 69v234q0 120 -88 142q-19 5 -40 5q-50 0 -95 -42q-21 -21 -33 -45q9 -28 9 -65v-229q0 -77 20 -96q15 -14 43 -14v-5h-182v5q47 0 58 41q5 22 5 69v234q0 120 -88 142q-19 5 -40 5q-49 0 -94 -41 q-23 -22 -35 -48q-2 -39 -2 -68v-224q1 -75 18 -95q16 -15 45 -15v-5h-182v5q47 0 58 41q5 22 5 69v264q0 76 -19 96q-15 14 -44 14v5h136v-5q-11 -6 -15 -71q38 67 113 82q18 4 36 4q120 -1 153 -89q35 64 104 83q23 6 45 6q137 0 161 -113q4 -22 4 -47z" glyph-name="m" horiz-adv-x="910" unicode="m"/>
<glyph d="M498 115q0 -76 19 -96q15 -14 44 -14v-5h-182v5q46 0 57 39q6 22 6 71v234q0 85 -55 125q-33 23 -78 23q-48 0 -95 -39q-27 -23 -39 -51q-2 -39 -2 -68v-224q1 -76 18 -95q15 -15 45 -15v-5h-181v5q46 0 56 38q6 22 7 72v264q-1 76 -18 95q-15 15 -45 15v5h135v-5 q-11 -7 -15 -71q34 60 105 79q25 7 49 7q167 -4 169 -160v-229z" glyph-name="n" horiz-adv-x="616" unicode="n"/>
<glyph d="M280 504q120 8 197 -74q59 -64 66 -160q9 -130 -69 -211q-60 -60 -148 -68q-139 -13 -218 78q-51 61 -61 155q-14 131 70 212q65 61 163 68zM326 -5q79 8 125 93q41 77 34 178q-9 129 -87 195q-53 44 -117 40q-95 -8 -144 -93q-41 -73 -30 -178q16 -149 106 -208 q52 -33 113 -27z" glyph-name="o" horiz-adv-x="589" unicode="o"/>
<glyph d="M334 504q99 0 159 -78q53 -70 53 -179q0 -150 -94 -219q-53 -38 -118 -38q-80 0 -135 58q-16 18 -26 37v-166q1 -76 18 -95q15 -15 45 -15v-5h-181v5q46 0 56 38q6 22 7 72v460q-1 76 -18 95q-15 15 -45 15v5h135v-5q-11 -7 -15 -76q30 57 98 80q30 11 61 11zM314 -2 q111 0 152 115q20 56 20 134q0 187 -104 236q-31 14 -68 14q-49 0 -96 -40q-31 -26 -43 -57q-2 -34 -2 -61v-242q21 -56 87 -86q30 -13 54 -13z" glyph-name="p" horiz-adv-x="591" unicode="p"/>
<glyph d="M477 379v-460q1 -76 18 -95q15 -15 45 -15v-5h-181v5q46 0 56 38q6 22 7 72v260q-17 -132 -102 -174q-32 -15 -68 -15q-128 0 -180 107q-30 63 -26 150q6 138 107 208q71 49 169 49q15 0 73 -7q24 -3 56 -3h89v-5q-46 0 -56 -38q-6 -22 -7 -72zM402 111q20 59 20 136v174 q-3 55 -39 69q-23 9 -68 9q-127 0 -181 -107q-30 -61 -30 -145q0 -171 89 -227q36 -22 80 -22q60 0 105 65q15 23 24 48z" glyph-name="q" horiz-adv-x="595" unicode="q"/>
<glyph d="M328 504q50 5 60 -29q3 -9 2 -18q-4 -29 -29 -33q-15 -2 -28 6q-8 5 -21 26q-13 17 -34 11q-32 -9 -72 -68q-23 -34 -33 -65v-219q1 -76 18 -95q15 -15 45 -15v-5h-181v5q46 0 56 38q6 22 7 72v264q-1 76 -18 95q-15 15 -45 15v5h135v-5q-15 -7 -17 -141v-2q29 76 96 129 q35 26 59 29z" glyph-name="r" horiz-adv-x="431" unicode="r"/>
<glyph d="M125 410q0 -51 76 -100q17 -11 53 -31q88 -50 116 -83q30 -35 30 -75q0 -107 -121 -126q-25 -4 -53 -4q-100 0 -156 69l-6 8q-26 38 -7 66q7 9 16 13q27 11 42 -10q8 -11 7 -24q-1 -7 -15 -37q-11 -26 5 -42q44 -39 114 -39q85 0 114 50q10 19 10 40q0 62 -77 112 q-17 11 -55 32q-83 47 -110 79q-30 36 -30 80q0 93 106 111q23 4 49 4q98 -1 143 -67q26 -37 10 -65q-6 -10 -17 -14q-30 -9 -44 13q-5 10 -4 22q0 6 13 37q7 23 -6 38q-30 32 -95 32q-70 0 -98 -49q-10 -19 -10 -40z" glyph-name="s" horiz-adv-x="450" unicode="s"/>
<glyph d="M244 -2q19 0 36 10v-5q-19 -12 -51 -12q-103 0 -126 81q-7 27 -7 61v356h-46v5h46v36q33 8 44 43q4 14 7 33h5v-112h104v-5h-104v-361q9 -123 92 -130z" glyph-name="t" horiz-adv-x="310" unicode="t"/>
<glyph d="M491 115q1 -76 18 -95q15 -15 45 -15v-5h-136v5q12 7 15 71q-32 -58 -102 -79q-25 -7 -51 -7q-154 0 -168 134q-1 13 -1 26v250q-1 64 -23 80q-14 9 -38 9v5h134v-5q-17 -10 -17 -150v-194q0 -85 55 -125q32 -22 77 -22q50 0 97 40q25 22 38 49q1 20 1 68v245 q-1 64 -23 80q-14 9 -37 9v5h133v-5q-17 -10 -17 -150v-224z" glyph-name="u" horiz-adv-x="609" unicode="u"/>
<glyph d="M386 494h146v-5q-62 -13 -100 -108l-137 -381h-4l-179 395q-27 62 -43 77q-18 17 -39 17v5h146v-5q-30 0 -29 -22q1 -15 13 -45q16 -38 134 -308q19 -42 21 -47q22 59 76 212q29 82 32 89q24 69 1 103q-13 18 -38 18v5z" glyph-name="v" horiz-adv-x="557" unicode="v"/>
<glyph d="M628 494h145v-5q-53 -9 -85 -74q-7 -15 -15 -34q-24 -62 -124 -381h-5l-148 404l-114 -404h-4l-166 395q-27 64 -47 81q-16 13 -35 13v5h153v-5q-29 0 -29 -20q1 -15 13 -47q4 -11 136 -336l117 408h2l150 -412q74 236 90 279q22 59 5 100q-12 27 -39 28v5z" glyph-name="w" horiz-adv-x="798" unicode="w"/>
<glyph d="M482 489q-67 -13 -119 -85q-41 -58 -87 -131q68 -115 90 -149q49 -78 71 -98q24 -21 44 -21v-5h-143v5q39 0 7 61q-3 6 -6 11q-6 10 -35 57q-38 63 -58 96l-90 -135q-38 -57 -14 -80q12 -10 33 -10v-5h-145v5q64 11 116 82q2 2 3 4q42 59 95 142q-72 119 -75 124 q-54 93 -86 117q-20 15 -36 15v5h143v-5q-43 -2 2 -77q14 -24 82 -137q56 89 83 127q37 55 11 78q-11 9 -32 9v5h146v-5z" glyph-name="x" horiz-adv-x="512" unicode="x"/>
<glyph d="M388 494h146v-5q-64 -13 -100 -108q-5 -12 -138 -381q-86 -211 -173 -217q-39 -2 -54 27q-6 12 -5 25q2 25 26 31q14 2 27 -6q7 -5 21 -35q13 -27 31 -19q7 3 13 8q42 31 91 140q11 24 19 46h-1l-179 395q-27 62 -43 77q-18 17 -39 17v5h143v-5q-30 0 -29 -22 q1 -15 13 -45q14 -36 129 -295q25 -58 29 -66q100 280 110 307q23 66 1 101q-13 19 -38 20v5z" glyph-name="y" horiz-adv-x="559" unicode="y"/>
<glyph d="M427 494v-5l-315 -484h160q82 0 128 80q5 9 9 17h3l-29 -102h-333v5l315 484h-155q-82 0 -128 -80q-5 -9 -9 -17h-3l29 102h328z" glyph-name="z" horiz-adv-x="472" unicode="z"/>
<glyph d="M176 724q-74 -23 -96 -87q-12 -36 -4 -78q5 -25 43 -101q42 -84 32 -129q-3 -13 -9 -24q-18 -30 -54 -31q36 -1 54 -32q26 -49 -14 -134q-5 -11 -16 -33q-31 -60 -36 -87q-18 -99 62 -148q18 -10 38 -17v-2q-128 28 -120 165q0 7 1 14q5 49 45 116q34 56 35 89 q0 19 -5 37q-7 24 -29 28q-4 1 -7 1l-37 -5v15q3 0 37 -5q26 1 36 29q14 49 -18 106q-37 66 -37 67q-16 35 -20 69q-15 149 119 179v-2z" glyph-name="braceleft" horiz-adv-x="231" unicode="{"/>
<glyph d="M55 744h5v-780h-5v780z" glyph-name="bar" horiz-adv-x="115" unicode="|"/>
<glyph d="M99 242q-14 -49 18 -106q37 -66 37 -67q16 -35 20 -69q16 -146 -113 -177l-6 -2v2q77 25 97 92q10 34 3 73q-5 26 -43 102q-41 83 -32 127q3 14 9 25q19 31 53 32q-36 1 -53 31q-26 49 15 135q5 11 16 33q30 59 35 86q18 96 -58 146q-20 12 -42 19v2q134 -31 119 -179 q-5 -49 -45 -116q-34 -56 -35 -89q0 -19 5 -37q14 -26 36 -29l36 5v-15q-5 0 -36 5q-26 -2 -36 -29z" glyph-name="braceright" horiz-adv-x="231" unicode="}"/>
<glyph d="M357 303q-35 0 -98 33l-1 1h-1l-1 1l-2 1q-68 38 -110 38q-11 0 -21 -2.5t-17.5 -6.5t-14 -9.5t-11 -11t-8.5 -11.5t-6 -11t-3.5 -9.5l-2.5 -7.5v-2l-5 1q0 13 16 37q27 37 73 38q46 -1 112 -39q68 -33 101 -35q58 0 75 55q3 11 3 19h5q0 -33 -25 -57q-23 -22 -58 -22z " glyph-name="asciitilde" horiz-adv-x="495" unicode="~"/>
<glyph d="M101 -31q16 -259 18 -278q2 -58 -25 -59q-26 0 -26 49q1 5 1 10q13 202 18 278l4 186h3h2l4 -169q1 -10 1 -17zM94 341q28 0 37 -26q2 -7 2 -13q0 -28 -26 -37q-7 -2 -13 -2q-28 0 -37 26q-2 7 -2 13q0 28 26 37q7 2 13 2z" glyph-name="exclamdown" horiz-adv-x="188" unicode="¡"/>
<glyph d="M311 -6q61 1 120 47q11 9 19 17v-12q-68 -50 -139 -55q-12 -1 -34 -1v-70h-5v71q-117 8 -182 92q-46 62 -49 147q-5 159 104 232q52 33 121 41h6v71h5v-70q87 5 149 -55q18 -19 26 -35q20 -42 -2 -66q-7 -7 -17 -10q-28 -6 -40 17q-5 12 -2 25q1 3 15 31q8 20 -4 39 q-26 37 -91 47q-17 3 -34 3v-503q17 -3 34 -3zM103 232q5 -122 84 -191q39 -33 85 -43v502q-3 -1 -5 -1q-85 -7 -131 -97q-37 -73 -33 -170z" glyph-name="cent" horiz-adv-x="501" unicode="¢"/>
<glyph d="M483 136h5l-22 -136h-416v5q65 0 108 56q30 42 39 105q11 79 -14 185h-102v5h101q-5 21 -15 62q-32 123 -30 178q5 136 156 143h15q95 -1 139 -44q29 -27 17 -56q-4 -6 -8 -11q-15 -16 -39 -5q-14 9 -19 24q-2 8 -1 26q0 36 -16 48q-19 13 -58 13q-122 0 -129 -115 q-4 -65 25 -171q15 -54 23 -92h161v-5h-160q34 -165 -14 -244q-39 -64 -138 -102h118q136 0 193 38q37 26 81 93z" glyph-name="sterling" horiz-adv-x="538" unicode="£"/>
<glyph d="M401 332q-1 -60 -43 -104l89 -80l-10 -10l-82 86q-44 -42 -105 -42q-59 1 -103 41l-82 -85l-10 10l88 79q-43 45 -43 105q1 61 44 105l-89 80l10 10l82 -86q45 41 103 41q61 -1 104 -42l83 87l10 -10l-89 -80q43 -45 43 -105zM105 332q0 -72 58 -116q39 -29 87 -29 q74 0 117 59q29 39 29 86q0 72 -58 116q-39 29 -88 29q-72 0 -116 -58q-29 -39 -29 -87z" glyph-name="currency" horiz-adv-x="502" unicode="¤"/>
<glyph d="M442 700h203v-5q-78 -18 -122 -89q-13 -21 -25 -49q-6 -13 -110 -251h139v-5h-141v-71h141v-5h-141v-110q1 -75 18 -95q16 -15 45 -15v-5h-186v5q46 0 57 40q5 21 6 70v110h-143v5h143v71h-143v5h142q-30 52 -124 211q-7 11 -13 21q-59 101 -97 133q-29 24 -56 24v5h184 v-5q-37 0 -20 -58q4 -15 11 -29q6 -11 172 -296q1 -2 2 -3q13 30 43 97q50 112 56 127q48 109 5 147q-17 15 -46 15v5z" glyph-name="yen" horiz-adv-x="680" unicode="¥"/>
<glyph d="M55 -12v271h5v-271h-5zM55 719h5v-271h-5v271z" glyph-name="brokenbar" horiz-adv-x="115" unicode="¦"/>
<glyph d="M204 599q0 -75 64 -167l24 -33q61 -82 75 -128q9 -32 8 -63q-7 -130 -140 -184q-72 -29 -165 -29v4q87 0 126 59q16 26 20 57q7 68 -53 152q-9 13 -29 38q-64 84 -81 135q-10 32 -12 63q-5 116 134 175q82 36 163 36v-4q-88 0 -120 -63q-12 -22 -14 -48zM343 182 q5 68 -55 155q-9 12 -26 36q-62 85 -77 133q-10 33 -9 65q3 95 83 129q-112 -27 -160 -92q-25 -36 -25 -77q0 -74 64 -163q8 -11 24 -32q60 -80 75 -125q11 -36 8 -71q-10 -105 -94 -133q95 16 150 77q38 43 42 98z" glyph-name="section" horiz-adv-x="416" unicode="§"/>
<glyph d="M84 660q22 0 28 -21q1 -4 1 -8q0 -22 -21 -28q-4 -1 -8 -1q-22 0 -28 21q-1 4 -1 8q0 22 21 28q4 1 8 1zM176 660q22 0 28 -21q1 -4 1 -8q0 -22 -21 -28q-4 -1 -8 -1q-22 0 -28 21q-1 4 -1 8q0 22 21 28q4 1 8 1z" glyph-name="dieresis" horiz-adv-x="260" unicode="¨"/>
<glyph d="M159 346l206 170v-5l-186 -167l186 -167v-5l-206 169v5zM55 346l206 170v-5l-186 -167l186 -167v-5l-206 169v5z" glyph-name="guillemotleft" horiz-adv-x="420" unicode="«"/>
<glyph d="M55 628h175v-5h-175v5z" glyph-name="macron" horiz-adv-x="285" unicode="¯"/>
<glyph d="M125 571q-41 0 -61 36q-9 17 -9 34q0 42 37 62q16 8 33 8q42 0 63 -37q8 -16 8 -33q0 -42 -38 -62q-16 -8 -33 -8zM125 707q-39 0 -58 -36q-7 -14 -7 -30q0 -40 36 -58q14 -7 29 -7q40 0 58 35q8 15 8 30q0 40 -36 58q-15 8 -30 8z" glyph-name="degree" horiz-adv-x="251" unicode="°"/>
<glyph d="M198 320h138v-5h-138v-138h-5v138h-138v5h138v138h5v-138zM55 129v4h281v-4h-281z" glyph-name="plusminus" horiz-adv-x="391" unicode="±"/>
<glyph d="M55 569l42 112h43l-80 -112h-2h-3z" glyph-name="acute" horiz-adv-x="195" unicode="´"/>
<glyph d="M201 709h4v-709h-4v709zM55 574q1 88 62 122q24 13 50 13v-709h-5v438q-60 3 -90 60q-16 33 -17 76z" glyph-name="paragraph" horiz-adv-x="260" unicode="¶"/>
<glyph d="M84 660q22 0 28 -21q1 -4 1 -8q0 -22 -21 -28q-4 -1 -8 -1q-22 0 -28 21q-1 4 -1 8q0 22 21 28q4 1 8 1z" glyph-name="middot" horiz-adv-x="168" unicode="·"/>
<glyph d="M90 -23q74 6 83 -39q3 -16 -2 -33q-12 -36 -52 -39q-15 -1 -28 3q-21 6 -36 21v11q16 -21 30 -26q30 -11 48 15q8 11 10 24q9 53 -42 59q-8 1 -15 1q0 1 2 4q3 8 5 14h3q-4 -12 -6 -15z" glyph-name="cedilla" horiz-adv-x="230" unicode="¸"/>
<glyph d="M55 516l206 -170v-5l-206 -169v5l186 167l-186 167v5zM159 516l206 -170v-5l-206 -169v5l186 167l-186 167v5z" glyph-name="guillemotright" horiz-adv-x="420" unicode="»"/>
<glyph d="M293 -97q54 -20 73 -86q21 -74 -17 -132q-42 -61 -131 -62q-115 0 -155 70q-24 42 -15 106q8 55 70 124q63 69 73 84q56 75 56 158h5q5 -83 -56 -180q-7 -12 -22 -35q-54 -82 -65 -128q-2 -8 -3 -16q-17 -119 53 -161q29 -18 71 -18q83 0 118 71q31 62 5 127 q-20 46 -60 66v12zM244 263q-27 0 -36 25q-3 7 -3 14q0 27 25 36q7 3 14 3q28 0 37 -25q3 -7 3 -14q0 -27 -26 -37q-7 -2 -14 -2z" glyph-name="questiondown" horiz-adv-x="418" unicode="¿"/>
<glyph d="M579 139q35 -82 58 -107q26 -27 59 -27v-5h-199v5q53 0 54 40q-1 22 -13 54q-4 12 -69 180h-270q-25 -67 -49 -127q-33 -84 1 -125q19 -22 55 -22v-5h-196v5q69 23 102 75q11 20 21 43l226 577h5zM201 283h266q-111 288 -133 342q-78 -202 -133 -342zM304 881l41 -112h-2 h-3l-80 112h44z" glyph-name="Agrave" horiz-adv-x="706" unicode="À"/>
<glyph d="M579 139q35 -82 58 -107q26 -27 59 -27v-5h-199v5q53 0 54 40q-1 22 -13 54q-4 12 -69 180h-270q-25 -67 -49 -127q-33 -84 1 -125q19 -22 55 -22v-5h-196v5q69 23 102 75q11 20 21 43l226 577h5zM201 283h266q-111 288 -133 342q-78 -202 -133 -342zM373 769l42 112h43 l-80 -112h-2h-3z" glyph-name="Aacute" horiz-adv-x="706" unicode="Á"/>
<glyph d="M579 139q35 -82 58 -107q26 -27 59 -27v-5h-199v5q53 0 54 40q-1 22 -13 54q-4 12 -69 180h-270q-25 -67 -49 -127q-33 -84 1 -125q19 -22 55 -22v-5h-196v5q69 23 102 75q11 20 21 43l226 577h5zM201 283h266q-111 288 -133 342q-78 -202 -133 -342zM387 881l97 -112h-5 l-117 84l-116 -84h-5l97 112h49z" glyph-name="Acircumflex" horiz-adv-x="706" unicode="Â"/>
<glyph d="M579 139q35 -82 58 -107q26 -27 59 -27v-5h-199v5q53 0 54 40q-1 22 -13 54q-4 12 -69 180h-270q-25 -67 -49 -127q-33 -84 1 -125q19 -22 55 -22v-5h-196v5q69 23 102 75q11 20 21 43l226 577h5zM201 283h266q-111 288 -133 342q-78 -202 -133 -342zM412 804 q-11 1 -73 17q-16 4 -24 5q-26 3 -41 -23h-5q0 15 14 35q14 17 32 20q14 1 94 -19q2 -1 3 -1q29 -4 38 21q1 1 1 2h5q0 -41 -25 -53q-9 -4 -19 -4z" glyph-name="Atilde" horiz-adv-x="706" unicode="Ã"/>
<glyph d="M579 139q35 -82 58 -107q26 -27 59 -27v-5h-199v5q53 0 54 40q-1 22 -13 54q-4 12 -69 180h-270q-25 -67 -49 -127q-33 -84 1 -125q19 -22 55 -22v-5h-196v5q69 23 102 75q11 20 21 43l226 577h5zM201 283h266q-111 288 -133 342q-78 -202 -133 -342zM317 860 q22 0 28 -21q1 -4 1 -8q0 -22 -21 -28q-4 -1 -8 -1q-22 0 -28 21q-1 4 -1 8q0 22 21 28q4 1 8 1zM409 860q22 0 28 -21q1 -4 1 -8q0 -22 -21 -28q-4 -1 -8 -1q-22 0 -28 21q-1 4 -1 8q0 22 21 28q4 1 8 1z" glyph-name="Adieresis" horiz-adv-x="706" unicode="Ä"/>
<glyph d="M579 139q35 -82 58 -107q26 -27 59 -27v-5h-199v5q53 0 54 40q-1 22 -13 54q-4 12 -69 180h-270q-25 -67 -49 -127q-33 -84 1 -125q19 -22 55 -22v-5h-196v5q69 23 102 75q11 20 21 43l226 577h5zM201 283h266q-111 288 -133 342q-78 -202 -133 -342zM363 757 q-36 0 -52 32q-6 13 -6 26q0 36 32 53q13 6 26 6q36 0 52 -33q6 -13 6 -26q0 -36 -32 -52q-13 -6 -26 -6zM363 869q-33 0 -48 -31q-5 -11 -5 -23q0 -33 30 -48q11 -5 23 -5q33 0 48 30q5 11 5 23q0 34 -30 49q-12 5 -23 5z" glyph-name="Aring" horiz-adv-x="706" unicode="Å"/>
<glyph d="M957 163h4l-41 -163h-474v5q46 0 57 41q5 22 5 69v164h-255q-23 -37 -57 -93q-21 -33 -24 -38q-42 -67 -23 -111q15 -31 57 -32v-5h-196v5q74 27 119 86q10 13 19 28l360 581h383l41 -162h-4q-74 156 -189 157h-112q-46 0 -57 -39q-5 -21 -6 -70v-233h102q74 0 116 51 q24 30 24 67h5v-242h-5q0 62 -59 97q-37 22 -81 22h-102v-233q1 -75 18 -95q16 -15 45 -15h141q108 0 178 134q6 12 11 24zM256 284h252v409q-135 -220 -252 -409z" glyph-name="AE" horiz-adv-x="991" unicode="Æ"/>
<glyph d="M454 -7q-5 -1 -13 -1l-5 -15q73 6 82 -39q3 -16 -2 -33q-12 -36 -52 -39q-15 -1 -28 3q-21 6 -35 21v11q16 -21 30 -26q28 -11 47 14q8 11 10 25q9 53 -42 59q-8 1 -15 1q0 1 2 4q3 8 5 14q-163 -5 -273 93q-100 90 -113 231q-14 160 89 272q96 105 249 119q83 6 198 -21 q48 -12 62 0q15 13 15 48h5v-237h-5q0 79 -83 146q-17 13 -33 23q-80 43 -158 37q-115 -10 -194 -103q-95 -112 -80 -277q18 -184 148 -271q84 -57 189 -55q126 5 228 97v-15q-87 -70 -196 -83q-16 -2 -32 -3z" glyph-name="Ccedilla" horiz-adv-x="737" unicode="Ç"/>
<glyph d="M567 162h5l-42 -162h-475v5q46 0 57 39q6 22 6 71v470q0 76 -19 96q-15 14 -44 14v5h446l41 -162h-4q-57 127 -149 152q-20 5 -40 5h-112q-46 0 -56 -38q-6 -22 -7 -72v-233h102q74 0 116 51q24 31 24 68h5v-242h-5q0 62 -59 97q-37 22 -81 22h-102v-233q1 -76 18 -95 q15 -15 45 -15h141q109 0 179 136q5 11 10 21zM295 881l41 -112h-2h-3l-80 112h44z" glyph-name="Egrave" horiz-adv-x="602" unicode="È"/>
<glyph d="M567 162h5l-42 -162h-475v5q46 0 57 39q6 22 6 71v470q0 76 -19 96q-15 14 -44 14v5h446l41 -162h-4q-57 127 -149 152q-20 5 -40 5h-112q-46 0 -56 -38q-6 -22 -7 -72v-233h102q74 0 116 51q24 31 24 68h5v-242h-5q0 62 -59 97q-37 22 -81 22h-102v-233q1 -76 18 -95 q15 -15 45 -15h141q109 0 179 136q5 11 10 21zM311 769l42 112h43l-80 -112h-2h-3z" glyph-name="Eacute" horiz-adv-x="602" unicode="É"/>
<glyph d="M567 162h5l-42 -162h-475v5q46 0 57 39q6 22 6 71v470q0 76 -19 96q-15 14 -44 14v5h446l41 -162h-4q-57 127 -149 152q-20 5 -40 5h-112q-46 0 -56 -38q-6 -22 -7 -72v-233h102q74 0 116 51q24 31 24 68h5v-242h-5q0 62 -59 97q-37 22 -81 22h-102v-233q1 -76 18 -95 q15 -15 45 -15h141q109 0 179 136q5 11 10 21zM338 881l97 -112h-5l-117 84l-116 -84h-5l97 112h49z" glyph-name="Ecircumflex" horiz-adv-x="602" unicode="Ê"/>
<glyph d="M567 162h5l-42 -162h-475v5q46 0 57 39q6 22 6 71v470q0 76 -19 96q-15 14 -44 14v5h446l41 -162h-4q-57 127 -149 152q-20 5 -40 5h-112q-46 0 -56 -38q-6 -22 -7 -72v-233h102q74 0 116 51q24 31 24 68h5v-242h-5q0 62 -59 97q-37 22 -81 22h-102v-233q1 -76 18 -95 q15 -15 45 -15h141q109 0 179 136q5 11 10 21zM277 860q22 0 28 -21q1 -4 1 -8q0 -22 -21 -28q-4 -1 -8 -1q-22 0 -28 21q-1 4 -1 8q0 22 21 28q4 1 8 1zM369 860q22 0 28 -21q1 -4 1 -8q0 -22 -21 -28q-4 -1 -8 -1q-22 0 -28 21q-1 4 -1 8q0 22 21 28q4 1 8 1z" glyph-name="Edieresis" horiz-adv-x="602" unicode="Ë"/>
<glyph d="M174 585v-470q0 -76 19 -96q15 -14 44 -14v-5h-182v5q46 0 57 39q6 22 6 71v470q0 76 -19 96q-15 14 -44 14v5h182v-5q-46 0 -57 -39q-6 -22 -6 -71zM107 881l41 -112h-2h-3l-80 112h44z" glyph-name="Igrave" unicode="Ì"/>
<glyph d="M174 585v-470q0 -76 19 -96q15 -14 44 -14v-5h-182v5q46 0 57 39q6 22 6 71v470q0 76 -19 96q-15 14 -44 14v5h182v-5q-46 0 -57 -39q-6 -22 -6 -71zM143 769l42 112h43l-80 -112h-2h-3z" glyph-name="Iacute" unicode="Í"/>
<glyph d="M174 585v-470q0 -76 19 -96q15 -14 44 -14v-5h-182v5q46 0 57 39q6 22 6 71v470q0 76 -19 96q-15 14 -44 14v5h182v-5q-46 0 -57 -39q-6 -22 -6 -71zM171 881l97 -112h-5l-117 84l-116 -84h-5l97 112h49z" glyph-name="Icircumflex" horiz-adv-x="293" unicode="Î"/>
<glyph d="M174 585v-470q0 -76 19 -96q15 -14 44 -14v-5h-182v5q46 0 57 39q6 22 6 71v470q0 76 -19 96q-15 14 -44 14v5h182v-5q-46 0 -57 -39q-6 -22 -6 -71zM100 860q22 0 28 -21q1 -4 1 -8q0 -22 -21 -28q-4 -1 -8 -1q-22 0 -28 21q-1 4 -1 8q0 22 21 28q4 1 8 1zM192 860 q22 0 28 -21q1 -4 1 -8q0 -22 -21 -28q-4 -1 -8 -1q-22 0 -28 21q-1 4 -1 8q0 22 21 28q4 1 8 1z" glyph-name="Idieresis" unicode="Ï"/>
<glyph d="M362 700q155 0 253 -100q94 -97 94 -250q0 -197 -130 -289q-88 -61 -217 -61h-305v5q47 0 58 41q5 22 5 69v232h-65v5h65v234q0 76 -19 95q-15 14 -44 14v5h305zM347 5q207 0 270 176q26 71 26 169q0 259 -179 325q-54 20 -117 20h-108q-47 0 -57 -40q-6 -22 -6 -69v-234 h222v-5h-222v-232q0 -77 20 -96q15 -14 43 -14h108z" glyph-name="Eth" horiz-adv-x="759" unicode="Ð"/>
<glyph d="M519 700h242v-5q-118 -2 -119 -170v-525h-9q-14 17 -317 406q-154 196 -163 208v-440q1 -168 119 -169v-5h-242v5q117 2 118 169v446q-60 74 -111 75v5h128l472 -612v437q-1 169 -118 170v5zM475 804q-11 1 -73 17q-16 4 -24 5q-26 3 -41 -23h-5q0 15 14 35q14 17 32 20 q14 1 94 -19q2 -1 3 -1q29 -4 38 21q1 1 1 2h5q0 -41 -25 -53q-9 -4 -19 -4z" glyph-name="Ntilde" horiz-adv-x="791" unicode="Ñ"/>
<glyph d="M393 707q159 14 274 -73q121 -93 130 -251q10 -172 -100 -283q-95 -94 -240 -107q-160 -15 -276 79q-113 92 -129 244q-16 156 86 269q97 106 251 122h4zM456 -2q112 10 192 103q95 112 84 273q-11 154 -119 250q-93 82 -206 79q-8 0 -14 -1q-118 -11 -196 -104 q-91 -109 -79 -273q13 -167 127 -260q96 -77 211 -67zM385 881l41 -112h-2h-3l-80 112h44z" glyph-name="Ograve" horiz-adv-x="848" unicode="Ò"/>
<glyph d="M393 707q159 14 274 -73q121 -93 130 -251q10 -172 -100 -283q-95 -94 -240 -107q-160 -15 -276 79q-113 92 -129 244q-16 156 86 269q97 106 251 122h4zM456 -2q112 10 192 103q95 112 84 273q-11 154 -119 250q-93 82 -206 79q-8 0 -14 -1q-118 -11 -196 -104 q-91 -109 -79 -273q13 -167 127 -260q96 -77 211 -67zM421 769l42 112h43l-80 -112h-2h-3z" glyph-name="Oacute" horiz-adv-x="848" unicode="Ó"/>
<glyph d="M393 707q159 14 274 -73q121 -93 130 -251q10 -172 -100 -283q-95 -94 -240 -107q-160 -15 -276 79q-113 92 -129 244q-16 156 86 269q97 106 251 122h4zM456 -2q112 10 192 103q95 112 84 273q-11 154 -119 250q-93 82 -206 79q-8 0 -14 -1q-118 -11 -196 -104 q-91 -109 -79 -273q13 -167 127 -260q96 -77 211 -67zM448 881l97 -112h-5l-117 84l-116 -84h-5l97 112h49z" glyph-name="Ocircumflex" horiz-adv-x="848" unicode="Ô"/>
<glyph d="M393 707q159 14 274 -73q121 -93 130 -251q10 -172 -100 -283q-95 -94 -240 -107q-160 -15 -276 79q-113 92 -129 244q-16 156 86 269q97 106 251 122h4zM456 -2q112 10 192 103q95 112 84 273q-11 154 -119 250q-93 82 -206 79q-8 0 -14 -1q-118 -11 -196 -104 q-91 -109 -79 -273q13 -167 127 -260q96 -77 211 -67zM473 804q-11 1 -73 17q-16 4 -24 5q-26 3 -41 -23h-5q0 15 14 35q14 17 32 20q14 1 94 -19q2 -1 3 -1q29 -4 38 21q1 1 1 2h5q0 -41 -25 -53q-9 -4 -19 -4z" glyph-name="Otilde" horiz-adv-x="848" unicode="Õ"/>
<glyph d="M393 707q159 14 274 -73q121 -93 130 -251q10 -172 -100 -283q-95 -94 -240 -107q-160 -15 -276 79q-113 92 -129 244q-16 156 86 269q97 106 251 122h4zM456 -2q112 10 192 103q95 112 84 273q-11 154 -119 250q-93 82 -206 79q-8 0 -14 -1q-118 -11 -196 -104 q-91 -109 -79 -273q13 -167 127 -260q96 -77 211 -67zM378 860q22 0 28 -21q1 -4 1 -8q0 -22 -21 -28q-4 -1 -8 -1q-22 0 -28 21q-1 4 -1 8q0 22 21 28q4 1 8 1zM470 860q22 0 28 -21q1 -4 1 -8q0 -22 -21 -28q-4 -1 -8 -1q-22 0 -28 21q-1 4 -1 8q0 22 21 28q4 1 8 1z" glyph-name="Odieresis" horiz-adv-x="848" unicode="Ö"/>
<glyph d="M257 379l-97 -98l97 -97l-3 -4l-98 98l-97 -98l-4 4l98 97l-98 98l4 3l97 -97l98 97z" glyph-name="multiply" horiz-adv-x="312" unicode="×"/>
<glyph d="M798 385q10 -172 -101 -284q-95 -93 -240 -107q-64 -6 -124 8l-15 -54h-5l15 55q-142 33 -218 150q-48 73 -57 165q-16 155 85 268q96 106 249 121q3 1 6 1q66 6 124 -6l14 52h5l-14 -53q143 -31 219 -142q52 -77 57 -174zM118 326q13 -168 129 -261q40 -32 85 -49 l181 670q-60 23 -119 17q-117 -10 -196 -102q-92 -110 -80 -275zM457 -1q113 10 192 104q94 112 83 273q-11 154 -119 250q-44 39 -96 59l-181 -670q62 -22 121 -16z" glyph-name="Oslash" horiz-adv-x="849" unicode="Ø"/>
<glyph d="M529 700h131v-5q-47 0 -58 -41q-5 -22 -5 -69v-367q0 -170 -137 -215q-42 -13 -91 -13q-118 0 -188 67q-63 60 -63 161v367q-1 75 -18 95q-16 15 -45 15v5h181v-5q-46 0 -57 -40q-5 -21 -6 -70v-379q0 -105 79 -167q54 -42 117 -42q178 0 215 146q8 35 8 75v367 q0 77 -20 96q-15 14 -43 14v5zM349 881l41 -112h-2h-3l-80 112h44z" glyph-name="Ugrave" horiz-adv-x="715" unicode="Ù"/>
<glyph d="M529 700h131v-5q-47 0 -58 -41q-5 -22 -5 -69v-367q0 -170 -137 -215q-42 -13 -91 -13q-118 0 -188 67q-63 60 -63 161v367q-1 75 -18 95q-16 15 -45 15v5h181v-5q-46 0 -57 -40q-5 -21 -6 -70v-379q0 -105 79 -167q54 -42 117 -42q178 0 215 146q8 35 8 75v367 q0 77 -20 96q-15 14 -43 14v5zM375 769l42 112h43l-80 -112h-2h-3z" glyph-name="Uacute" horiz-adv-x="715" unicode="Ú"/>
<glyph d="M529 700h131v-5q-47 0 -58 -41q-5 -22 -5 -69v-367q0 -170 -137 -215q-42 -13 -91 -13q-118 0 -188 67q-63 60 -63 161v367q-1 75 -18 95q-16 15 -45 15v5h181v-5q-46 0 -57 -40q-5 -21 -6 -70v-379q0 -105 79 -167q54 -42 117 -42q178 0 215 146q8 35 8 75v367 q0 77 -20 96q-15 14 -43 14v5zM412 881l97 -112h-5l-117 84l-116 -84h-5l97 112h49z" glyph-name="Ucircumflex" horiz-adv-x="715" unicode="Û"/>
<glyph d="M529 700h131v-5q-47 0 -58 -41q-5 -22 -5 -69v-367q0 -170 -137 -215q-42 -13 -91 -13q-118 0 -188 67q-63 60 -63 161v367q-1 75 -18 95q-16 15 -45 15v5h181v-5q-46 0 -57 -40q-5 -21 -6 -70v-379q0 -105 79 -167q54 -42 117 -42q178 0 215 146q8 35 8 75v367 q0 77 -20 96q-15 14 -43 14v5zM341 860q22 0 28 -21q1 -4 1 -8q0 -22 -21 -28q-4 -1 -8 -1q-22 0 -28 21q-1 4 -1 8q0 22 21 28q4 1 8 1zM433 860q22 0 28 -21q1 -4 1 -8q0 -22 -21 -28q-4 -1 -8 -1q-22 0 -28 21q-1 4 -1 8q0 22 21 28q4 1 8 1z" glyph-name="Udieresis" horiz-adv-x="715" unicode="Ü"/>
<glyph d="M442 700h203v-5q-78 -19 -122 -89q-14 -22 -26 -49q-13 -31 -59 -136q-37 -85 -52 -120v-186q0 -76 19 -96q15 -14 44 -14v-5h-186v5q46 0 57 39q5 22 5 71v189q-33 58 -125 213l-12 20q-61 105 -101 136q-27 22 -52 22v5h184v-5q-36 0 -22 -55q4 -17 12 -32 q35 -69 173 -296q1 -2 2 -3q22 49 69 155q26 59 30 69q47 105 7 145q-17 17 -48 17v5zM347 769l42 112h43l-80 -112h-2h-3z" glyph-name="Yacute" horiz-adv-x="680" unicode="Ý"/>
<glyph d="M315 549q140 0 196 -90q28 -46 28 -109q0 -126 -105 -175q-52 -23 -119 -23h-141v-37q0 -77 20 -96q15 -14 43 -14v-5h-182v5q46 0 57 40q5 21 6 70v471q-1 75 -18 94q-15 15 -45 15v5h182v-5q-47 0 -57 -40q-6 -22 -6 -69v-37h141zM306 157q112 0 152 94q18 42 18 99 q0 141 -98 181q-33 13 -72 13h-132v-387h132z" glyph-name="Thorn" horiz-adv-x="579" unicode="Þ"/>
<glyph d="M593 160q26 -62 -10 -115t-111 -54q-58 0 -104 19q-62 26 -80 -14q-5 -13 -5 -30h-5v247h5q0 -53 37 -120q55 -96 133 -97q53 0 81 44q29 46 6 106q-22 56 -94 112q-64 51 -77 65q-59 61 -31 149q8 27 23 56q42 82 11 136q-19 30 -57 39q-107 26 -133 -90q-8 -34 -8 -77 v-421q1 -75 18 -95q16 -15 45 -15v-5h-182v5q47 0 58 41q5 22 5 69v409q0 159 104 187q42 11 93 -1q84 -21 75 -108q-3 -37 -22 -74q-52 -103 8 -169q21 -24 95 -73q80 -54 108 -99q8 -14 14 -27z" glyph-name="germandbls" horiz-adv-x="648" unicode="ß"/>
<glyph d="M441 -3q14 0 31 10l1 1v-6q-20 -12 -44 -12q-67 0 -88 38q-15 29 -16 79q-41 -87 -109 -108q-74 -23 -124 7q-45 28 -41 88q6 75 111 113q20 8 61 19q26 7 37 11q35 12 65 33v81q-1 147 -97 148q-88 -1 -114 -53q-9 -20 7 -41q11 -17 14 -27q7 -28 -16 -40q-12 -6 -26 -3 q-29 6 -28 43q1 17 9 34q42 90 156 91q131 0 149 -114q2 -16 2 -33v-252q0 -94 45 -105q7 -2 15 -2zM233 9q59 31 92 104v152q-24 -17 -61 -30q-10 -4 -34 -11q-77 -22 -104 -50q-21 -24 -25 -57q-9 -82 47 -109q41 -19 85 1zM213 681l41 -112h-2h-3l-80 112h44z" glyph-name="agrave" horiz-adv-x="498" unicode="à"/>
<glyph d="M441 -3q14 0 31 10l1 1v-6q-20 -12 -44 -12q-67 0 -88 38q-15 29 -16 79q-41 -87 -109 -108q-74 -23 -124 7q-45 28 -41 88q6 75 111 113q20 8 61 19q26 7 37 11q35 12 65 33v81q-1 147 -97 148q-88 -1 -114 -53q-9 -20 7 -41q11 -17 14 -27q7 -28 -16 -40q-12 -6 -26 -3 q-29 6 -28 43q1 17 9 34q42 90 156 91q131 0 149 -114q2 -16 2 -33v-252q0 -94 45 -105q7 -2 15 -2zM233 9q59 31 92 104v152q-24 -17 -61 -30q-10 -4 -34 -11q-77 -22 -104 -50q-21 -24 -25 -57q-9 -82 47 -109q41 -19 85 1zM219 569l42 112h43l-80 -112h-2h-3z" glyph-name="aacute" horiz-adv-x="498" unicode="á"/>
<glyph d="M441 -3q14 0 31 10l1 1v-6q-20 -12 -44 -12q-67 0 -88 38q-15 29 -16 79q-41 -87 -109 -108q-74 -23 -124 7q-45 28 -41 88q6 75 111 113q20 8 61 19q26 7 37 11q35 12 65 33v81q-1 147 -97 148q-88 -1 -114 -53q-9 -20 7 -41q11 -17 14 -27q7 -28 -16 -40q-12 -6 -26 -3 q-29 6 -28 43q1 17 9 34q42 90 156 91q131 0 149 -114q2 -16 2 -33v-252q0 -94 45 -105q7 -2 15 -2zM233 9q59 31 92 104v152q-24 -17 -61 -30q-10 -4 -34 -11q-77 -22 -104 -50q-21 -24 -25 -57q-9 -82 47 -109q41 -19 85 1zM256 681l97 -112h-5l-117 84l-116 -84h-5 l97 112h49z" glyph-name="acircumflex" horiz-adv-x="498" unicode="â"/>
<glyph d="M441 -3q14 0 31 10l1 1v-6q-20 -12 -44 -12q-67 0 -88 38q-15 29 -16 79q-41 -87 -109 -108q-74 -23 -124 7q-45 28 -41 88q6 75 111 113q20 8 61 19q26 7 37 11q35 12 65 33v81q-1 147 -97 148q-88 -1 -114 -53q-9 -20 7 -41q11 -17 14 -27q7 -28 -16 -40q-12 -6 -26 -3 q-29 6 -28 43q1 17 9 34q42 90 156 91q131 0 149 -114q2 -16 2 -33v-252q0 -94 45 -105q7 -2 15 -2zM233 9q59 31 92 104v152q-24 -17 -61 -30q-10 -4 -34 -11q-77 -22 -104 -50q-21 -24 -25 -57q-9 -82 47 -109q41 -19 85 1zM271 604q-11 1 -73 17q-16 4 -24 5 q-26 3 -41 -23h-5q0 15 14 35q14 17 32 20q14 1 94 -19q2 -1 3 -1q29 -4 38 21q1 1 1 2h5q0 -41 -25 -53q-9 -4 -19 -4z" glyph-name="atilde" horiz-adv-x="498" unicode="ã"/>
<glyph d="M441 -3q14 0 31 10l1 1v-6q-20 -12 -44 -12q-67 0 -88 38q-15 29 -16 79q-41 -87 -109 -108q-74 -23 -124 7q-45 28 -41 88q6 75 111 113q20 8 61 19q26 7 37 11q35 12 65 33v81q-1 147 -97 148q-88 -1 -114 -53q-9 -20 7 -41q11 -17 14 -27q7 -28 -16 -40q-12 -6 -26 -3 q-29 6 -28 43q1 17 9 34q42 90 156 91q131 0 149 -114q2 -16 2 -33v-252q0 -94 45 -105q7 -2 15 -2zM233 9q59 31 92 104v152q-24 -17 -61 -30q-10 -4 -34 -11q-77 -22 -104 -50q-21 -24 -25 -57q-9 -82 47 -109q41 -19 85 1zM185 660q22 0 28 -21q1 -4 1 -8q0 -22 -21 -28 q-4 -1 -8 -1q-22 0 -28 21q-1 4 -1 8q0 22 21 28q4 1 8 1zM277 660q22 0 28 -21q1 -4 1 -8q0 -22 -21 -28q-4 -1 -8 -1q-22 0 -28 21q-1 4 -1 8q0 22 21 28q4 1 8 1z" glyph-name="adieresis" horiz-adv-x="498" unicode="ä"/>
<glyph d="M441 -3q14 0 31 10l1 1v-6q-20 -12 -44 -12q-67 0 -88 38q-15 29 -16 79q-41 -87 -109 -108q-74 -23 -124 7q-45 28 -41 88q6 75 111 113q20 8 61 19q26 7 37 11q35 12 65 33v81q-1 147 -97 148q-88 -1 -114 -53q-9 -20 7 -41q11 -17 14 -27q7 -28 -16 -40q-12 -6 -26 -3 q-29 6 -28 43q1 17 9 34q42 90 156 91q131 0 149 -114q2 -16 2 -33v-252q0 -94 45 -105q7 -2 15 -2zM233 9q59 31 92 104v152q-24 -17 -61 -30q-10 -4 -34 -11q-77 -22 -104 -50q-21 -24 -25 -57q-9 -82 47 -109q41 -19 85 1zM221 557q-36 0 -52 32q-6 13 -6 26q0 36 32 53 q13 6 26 6q36 0 52 -33q6 -13 6 -26q0 -36 -32 -52q-13 -6 -26 -6zM221 669q-33 0 -48 -31q-5 -11 -5 -23q0 -33 30 -48q11 -5 23 -5q33 0 48 30q5 11 5 23q0 34 -30 49q-12 5 -23 5z" glyph-name="aring" horiz-adv-x="498" unicode="å"/>
<glyph d="M787 333h-392q-12 -50 -8 -102q11 -127 98 -195q58 -43 125 -42q83 3 154 70v-11q-60 -47 -118 -58q-17 -3 -36 -4q-133 -9 -213 71q-37 38 -55 89q-42 -126 -126 -152q-74 -23 -124 7q-45 28 -41 88q5 75 109 113q21 8 62 19q26 7 37 11q42 15 67 35q0 1 1 79 q-6 143 -99 148q-90 -1 -114 -54q-9 -19 6 -40q12 -17 15 -27q7 -28 -17 -40q-12 -6 -25 -3q-29 6 -28 42q0 17 8 34q35 77 120 89q18 3 37 3q119 -1 145 -98q68 88 187 98q122 9 185 -74q31 -41 40 -96zM565 499q-77 1 -131 -77q-25 -38 -38 -85h328q-11 103 -82 143 q-34 18 -77 19zM233 10q73 35 107 146q-10 32 -13 72q-1 14 -1 38q-23 -16 -62 -31q-10 -4 -34 -11q-77 -22 -104 -50q-21 -24 -25 -57q-8 -81 46 -108q41 -20 86 1z" glyph-name="ae" horiz-adv-x="827" unicode="æ"/>
<glyph d="M312 -5q61 1 120 46q11 9 19 17v-12q-69 -51 -139 -56h-8q-2 -4 -2 -6q-2 -4 -3 -7q74 6 83 -39q3 -16 -2 -33q-12 -36 -52 -39q-15 -1 -28 3q-21 6 -36 21v11q16 -21 30 -26q30 -11 48 15q8 11 10 24q9 53 -42 59q-8 1 -15 1q3 8 5 12q1 3 1 4q-119 -3 -194 74 q-62 66 -66 166q-5 162 107 233q51 32 119 40q92 9 158 -52q19 -19 28 -36q20 -44 -2 -68q-8 -7 -17 -9q-28 -6 -40 18q-6 12 -3 25q3 9 11 22q13 23 5 40q-3 5 -5 8q-24 36 -91 46q-22 3 -44 2q-85 -7 -131 -97q-37 -73 -33 -170q6 -124 87 -192q55 -45 122 -45z" glyph-name="ccedilla" horiz-adv-x="502" unicode="ç"/>
<glyph d="M502 333h-393q-12 -50 -8 -102q11 -128 99 -194q57 -43 124 -42q88 3 154 69v-11q-59 -47 -118 -58q-18 -3 -36 -4q-130 -9 -210 69q-65 64 -73 168q-10 134 82 213q64 55 154 62q121 9 185 -74q30 -41 40 -96zM279 499q-76 2 -130 -76q-26 -38 -39 -86h328 q-10 101 -80 142q-35 19 -79 20zM232 681l41 -112h-2h-3l-80 112h44z" glyph-name="egrave" horiz-adv-x="542" unicode="è"/>
<glyph d="M502 333h-393q-12 -50 -8 -102q11 -128 99 -194q57 -43 124 -42q88 3 154 69v-11q-59 -47 -118 -58q-18 -3 -36 -4q-130 -9 -210 69q-65 64 -73 168q-10 134 82 213q64 55 154 62q121 9 185 -74q30 -41 40 -96zM279 499q-76 2 -130 -76q-26 -38 -39 -86h328 q-10 101 -80 142q-35 19 -79 20zM278 569l42 112h43l-80 -112h-2h-3z" glyph-name="eacute" horiz-adv-x="542" unicode="é"/>
<glyph d="M502 333h-393q-12 -50 -8 -102q11 -128 99 -194q57 -43 124 -42q88 3 154 69v-11q-59 -47 -118 -58q-18 -3 -36 -4q-130 -9 -210 69q-65 64 -73 168q-10 134 82 213q64 55 154 62q121 9 185 -74q30 -41 40 -96zM279 499q-76 2 -130 -76q-26 -38 -39 -86h328 q-10 101 -80 142q-35 19 -79 20zM305 681l97 -112h-5l-117 84l-116 -84h-5l97 112h49z" glyph-name="ecircumflex" horiz-adv-x="542" unicode="ê"/>
<glyph d="M502 333h-393q-12 -50 -8 -102q11 -128 99 -194q57 -43 124 -42q88 3 154 69v-11q-59 -47 -118 -58q-18 -3 -36 -4q-130 -9 -210 69q-65 64 -73 168q-10 134 82 213q64 55 154 62q121 9 185 -74q30 -41 40 -96zM279 499q-76 2 -130 -76q-26 -38 -39 -86h328 q-10 101 -80 142q-35 19 -79 20zM245 660q22 0 28 -21q1 -4 1 -8q0 -22 -21 -28q-4 -1 -8 -1q-22 0 -28 21q-1 4 -1 8q0 22 21 28q4 1 8 1zM337 660q22 0 28 -21q1 -4 1 -8q0 -22 -21 -28q-4 -1 -8 -1q-22 0 -28 21q-1 4 -1 8q0 22 21 28q4 1 8 1z" glyph-name="edieresis" horiz-adv-x="542" unicode="ë"/>
<glyph d="M173 339v-224q0 -77 20 -96q15 -14 43 -14v-5h-182v5q47 0 58 41q5 22 5 69v264q0 76 -19 96q-15 14 -44 14v5h136v-5q-17 -10 -17 -150zM96 681l41 -112h-2h-3l-80 112h44z" glyph-name="igrave" horiz-adv-x="291" unicode="ì"/>
<glyph d="M174 339v-224q0 -77 20 -96q15 -14 43 -14v-5h-182v5q47 0 58 41q5 22 5 69v264q0 76 -19 96q-15 14 -44 14v5h136v-5q-17 -10 -17 -150zM103 569l42 112h43l-80 -112h-2h-3z" glyph-name="iacute" unicode="í"/>
<glyph d="M175 339v-224q0 -77 20 -96q15 -14 43 -14v-5h-182v5q47 0 58 41q5 22 5 69v264q0 76 -19 96q-15 14 -44 14v5h136v-5q-17 -10 -17 -150zM167 681l97 -112h-5l-117 84l-116 -84h-5l97 112h49z" glyph-name="icircumflex" horiz-adv-x="294" unicode="î"/>
<glyph d="M174 339v-224q0 -77 20 -96q15 -14 43 -14v-5h-182v5q47 0 58 41q5 22 5 69v264q0 76 -19 96q-15 14 -44 14v5h136v-5q-17 -10 -17 -150zM95 660q22 0 28 -21q1 -4 1 -8q0 -22 -21 -28q-4 -1 -8 -1q-22 0 -28 21q-1 4 -1 8q0 22 21 28q4 1 8 1zM187 660q22 0 28 -21 q1 -4 1 -8q0 -22 -21 -28q-4 -1 -8 -1q-22 0 -28 21q-1 4 -1 8q0 22 21 28q4 1 8 1z" glyph-name="idieresis" unicode="ï"/>
<glyph d="M363 618q175 -136 173 -348q-4 -190 -121 -253q-39 -22 -89 -26q-135 -11 -215 76q-55 62 -64 157q-12 126 68 207q66 66 165 73q63 5 128 -30q5 -3 9 -5q-24 58 -86 126l-75 -53l-3 3l74 53q-41 44 -108 97v5q79 -32 140 -79l61 43l3 -3zM326 -5q81 9 125 96 q37 75 31 175q-7 107 -73 178q-58 62 -128 57q-93 -8 -143 -92q-43 -74 -33 -178q12 -138 98 -202q56 -40 123 -34z" glyph-name="eth" horiz-adv-x="582" unicode="ð"/>
<glyph d="M498 115q0 -76 19 -96q15 -14 44 -14v-5h-182v5q46 0 57 39q6 22 6 71v234q0 85 -55 125q-33 23 -78 23q-48 0 -95 -39q-27 -23 -39 -51q-2 -39 -2 -68v-224q1 -76 18 -95q15 -15 45 -15v-5h-181v5q46 0 56 38q6 22 7 72v264q-1 76 -18 95q-15 15 -45 15v5h135v-5 q-11 -7 -15 -71q34 60 105 79q25 7 49 7q167 -4 169 -160v-229zM367 604q-11 1 -73 17q-16 4 -24 5q-26 3 -41 -23h-5q0 15 14 35q14 17 32 20q14 1 94 -19q2 -1 3 -1q29 -4 38 21q1 1 1 2h5q0 -41 -25 -53q-9 -4 -19 -4z" glyph-name="ntilde" horiz-adv-x="616" unicode="ñ"/>
<glyph d="M280 504q120 8 197 -74q59 -64 66 -160q9 -130 -69 -211q-60 -60 -148 -68q-139 -13 -218 78q-51 61 -61 155q-14 131 70 212q65 61 163 68zM326 -5q79 8 125 93q41 77 34 178q-9 129 -87 195q-53 44 -117 40q-95 -8 -144 -93q-41 -73 -30 -178q16 -149 106 -208 q52 -33 113 -27zM266 681l41 -112h-2h-3l-80 112h44z" glyph-name="ograve" horiz-adv-x="589" unicode="ò"/>
<glyph d="M280 504q120 8 197 -74q59 -64 66 -160q9 -130 -69 -211q-60 -60 -148 -68q-139 -13 -218 78q-51 61 -61 155q-14 131 70 212q65 61 163 68zM326 -5q79 8 125 93q41 77 34 178q-9 129 -87 195q-53 44 -117 40q-95 -8 -144 -93q-41 -73 -30 -178q16 -149 106 -208 q52 -33 113 -27zM282 569l42 112h43l-80 -112h-2h-3z" glyph-name="oacute" horiz-adv-x="589" unicode="ó"/>
<glyph d="M280 504q120 8 197 -74q59 -64 66 -160q9 -130 -69 -211q-60 -60 -148 -68q-139 -13 -218 78q-51 61 -61 155q-14 131 70 212q65 61 163 68zM326 -5q79 8 125 93q41 77 34 178q-9 129 -87 195q-53 44 -117 40q-95 -8 -144 -93q-41 -73 -30 -178q16 -149 106 -208 q52 -33 113 -27zM319 681l97 -112h-5l-117 84l-116 -84h-5l97 112h49z" glyph-name="ocircumflex" horiz-adv-x="589" unicode="ô"/>
<glyph d="M280 504q120 8 197 -74q59 -64 66 -160q9 -130 -69 -211q-60 -60 -148 -68q-139 -13 -218 78q-51 61 -61 155q-14 131 70 212q65 61 163 68zM326 -5q79 8 125 93q41 77 34 178q-9 129 -87 195q-53 44 -117 40q-95 -8 -144 -93q-41 -73 -30 -178q16 -149 106 -208 q52 -33 113 -27zM344 604q-11 1 -73 17q-16 4 -24 5q-26 3 -41 -23h-5q0 15 14 35q14 17 32 20q14 1 94 -19q2 -1 3 -1q29 -4 38 21q1 1 1 2h5q0 -41 -25 -53q-9 -4 -19 -4z" glyph-name="otilde" horiz-adv-x="589" unicode="õ"/>
<glyph d="M280 504q120 8 197 -74q59 -64 66 -160q9 -130 -69 -211q-60 -60 -148 -68q-139 -13 -218 78q-51 61 -61 155q-14 131 70 212q65 61 163 68zM326 -5q79 8 125 93q41 77 34 178q-9 129 -87 195q-53 44 -117 40q-95 -8 -144 -93q-41 -73 -30 -178q16 -149 106 -208 q52 -33 113 -27zM248 660q22 0 28 -21q1 -4 1 -8q0 -22 -21 -28q-4 -1 -8 -1q-22 0 -28 21q-1 4 -1 8q0 22 21 28q4 1 8 1zM340 660q22 0 28 -21q1 -4 1 -8q0 -22 -21 -28q-4 -1 -8 -1q-22 0 -28 21q-1 4 -1 8q0 22 21 28q4 1 8 1z" glyph-name="odieresis" horiz-adv-x="589" unicode="ö"/>
<glyph d="M55 284h281v-5h-281v5zM195 369q-22 0 -28 21q-1 4 -1 8q0 22 21 28q4 1 8 1q22 0 28 -21q1 -4 1 -8q0 -22 -21 -28q-4 -1 -8 -1zM195 194q22 0 28 -21q1 -4 1 -8q0 -22 -21 -28q-4 -1 -8 -1q-22 0 -28 21q-1 4 -1 8q0 22 21 28q4 1 8 1z" glyph-name="divide" horiz-adv-x="391" unicode="÷"/>
<glyph d="M544 269q8 -131 -71 -211q-59 -59 -146 -67q-53 -4 -97 6l-15 -55h-5l16 56q-114 28 -159 140q-15 40 -20 85q-13 131 71 212q65 61 163 68q42 3 79 -6l15 55h5l-15 -56q102 -26 150 -121q25 -48 29 -106zM108 230q15 -150 107 -210l14 -8l128 475q-34 16 -76 13 q-94 -8 -142 -92q-42 -73 -31 -178zM327 -5q80 8 126 95q39 75 33 175q-10 129 -86 195q-19 16 -38 25l-128 -475q43 -21 93 -15z" glyph-name="oslash" horiz-adv-x="590" unicode="ø"/>
<glyph d="M491 115q1 -76 18 -95q15 -15 45 -15v-5h-136v5q12 7 15 71q-32 -58 -102 -79q-25 -7 -51 -7q-154 0 -168 134q-1 13 -1 26v250q-1 64 -23 80q-14 9 -38 9v5h134v-5q-17 -10 -17 -150v-194q0 -85 55 -125q32 -22 77 -22q50 0 97 40q25 22 38 49q1 20 1 68v245 q-1 64 -23 80q-14 9 -37 9v5h133v-5q-17 -10 -17 -150v-224zM263 681l41 -112h-2h-3l-80 112h44z" glyph-name="ugrave" horiz-adv-x="609" unicode="ù"/>
<glyph d="M491 115q1 -76 18 -95q15 -15 45 -15v-5h-136v5q12 7 15 71q-32 -58 -102 -79q-25 -7 -51 -7q-154 0 -168 134q-1 13 -1 26v250q-1 64 -23 80q-14 9 -38 9v5h134v-5q-17 -10 -17 -150v-194q0 -85 55 -125q32 -22 77 -22q50 0 97 40q25 22 38 49q1 20 1 68v245 q-1 64 -23 80q-14 9 -37 9v5h133v-5q-17 -10 -17 -150v-224zM289 569l42 112h43l-80 -112h-2h-3z" glyph-name="uacute" horiz-adv-x="609" unicode="ú"/>
<glyph d="M491 115q1 -76 18 -95q15 -15 45 -15v-5h-136v5q12 7 15 71q-32 -58 -102 -79q-25 -7 -51 -7q-154 0 -168 134q-1 13 -1 26v250q-1 64 -23 80q-14 9 -38 9v5h134v-5q-17 -10 -17 -150v-194q0 -85 55 -125q32 -22 77 -22q50 0 97 40q25 22 38 49q1 20 1 68v245 q-1 64 -23 80q-14 9 -37 9v5h133v-5q-17 -10 -17 -150v-224zM326 681l97 -112h-5l-117 84l-116 -84h-5l97 112h49z" glyph-name="ucircumflex" horiz-adv-x="609" unicode="û"/>
<glyph d="M491 115q1 -76 18 -95q15 -15 45 -15v-5h-136v5q12 7 15 71q-32 -58 -102 -79q-25 -7 -51 -7q-154 0 -168 134q-1 13 -1 26v250q-1 64 -23 80q-14 9 -38 9v5h134v-5q-17 -10 -17 -150v-194q0 -85 55 -125q32 -22 77 -22q50 0 97 40q25 22 38 49q1 20 1 68v245 q-1 64 -23 80q-14 9 -37 9v5h133v-5q-17 -10 -17 -150v-224zM251 660q22 0 28 -21q1 -4 1 -8q0 -22 -21 -28q-4 -1 -8 -1q-22 0 -28 21q-1 4 -1 8q0 22 21 28q4 1 8 1zM343 660q22 0 28 -21q1 -4 1 -8q0 -22 -21 -28q-4 -1 -8 -1q-22 0 -28 21q-1 4 -1 8q0 22 21 28q4 1 8 1 z" glyph-name="udieresis" horiz-adv-x="609" unicode="ü"/>
<glyph d="M388 494h146v-5q-64 -13 -100 -108q-5 -12 -138 -381q-86 -211 -173 -217q-39 -2 -54 27q-6 12 -5 25q2 25 26 31q14 2 27 -6q7 -5 21 -35q13 -27 31 -19q7 3 13 8q42 31 91 140q11 24 19 46h-1l-179 395q-27 62 -43 77q-18 17 -39 17v5h143v-5q-30 0 -29 -22 q1 -15 13 -45q14 -36 129 -295q25 -58 29 -66q100 280 110 307q23 66 1 101q-13 19 -38 20v5zM289 569l42 112h43l-80 -112h-2h-3z" glyph-name="yacute" horiz-adv-x="559" unicode="ý"/>
<glyph d="M334 408q99 0 159 -78q53 -70 53 -179q0 -149 -94 -218q-53 -38 -118 -38q-81 0 -134 57q-17 18 -26 37v-68q0 -77 20 -96q15 -14 43 -14v-5h-182v5q46 0 57 40q5 21 6 70v460q-1 75 -18 95q-16 15 -45 15v5h136v-5q-17 -10 -17 -149v-28q26 56 93 82q33 12 67 12z M314 -98q111 0 152 115q20 56 20 134q0 187 -104 236q-31 14 -68 14q-48 0 -96 -39q-32 -27 -44 -60v-301q20 -56 86 -86q30 -13 54 -13z" glyph-name="thorn" horiz-adv-x="591" unicode="þ"/>
</font>
</defs>
</svg>
