<?xml version="1.0" encoding="UTF-8"?>
<!DOCTYPE svg  PUBLIC '-//W3C//DTD SVG 1.1//EN'  'http://www.w3.org/Graphics/SVG/1.1/DTD/svg11.dtd'>
<svg version="1.1" xmlns="http://www.w3.org/2000/svg">
<defs>
<font id="MADECanvas" horiz-adv-x="591">
<font-face font-family="MADE Canvas" font-weight="400" ascent="800" bbox="5 -378 1012 880" cap-height="700" descent="-200" panose-1="2 0 5 3 0 0 0 2 0 4" underline-position="-100" underline-thickness="50" unicode-range="U+0020-00FE" units-per-em="1000" x-height="494"/>
<missing-glyph/>
<glyph glyph-name="space" horiz-adv-x="210" unicode=" "/>
<glyph d="M98 88q32 0 45 -29q4 -10 4 -20q0 -32 -30 -44q-10 -4 -19 -4q-32 0 -44 29q-4 10 -4 19q0 31 28 45q10 4 20 4zM89 364q-25 247 -27 277q-5 53 27 58q4 1 9 1q40 0 38 -50q-1 -5 -1 -9q-2 -29 -27 -277q-4 -44 -6 -91t-2 -71l1 -25h-3h-2l-2 121q-2 35 -5 66z" glyph-name="exclam" horiz-adv-x="197" unicode="!"/>
<glyph d="M76 693q27 0 25 -32q0 -8 -1 -16q-2 -15 -10 -41q-10 -32 -12 -53h-2h-2q-1 16 -16 68q-4 15 -6 26q-1 45 24 48zM141 693q29 0 26 -38q0 -5 -1 -10q-2 -15 -10 -40q-11 -33 -12 -54h-3h-2q-1 18 -16 67q-4 15 -6 27q-5 47 24 48z" glyph-name="quotedbl" horiz-adv-x="218" unicode='"'/>
<glyph d="M515 366h-142v-169h142v-5h-142v-155h-5v155h-172v-155h-5v155h-141v5h141v169h-141v5h141v155h5v-155h172v155h5v-155h142v-5zM368 197v169h-172v-169h172z" glyph-name="numbersign" horiz-adv-x="565" unicode="#"/>
<glyph d="M517 175q0 -117 -112 -163q-52 -20 -119 -21v-97h-5v97h-1q-55 0 -141 19q-50 11 -67 -1q-17 -13 -17 -45h-5v252h5q0 -50 40 -113q70 -106 185 -107h1v309q-105 59 -138 87q-75 64 -76 144q0 103 94 149q51 25 114 25h6v97h5v-97q38 -1 121 -25q8 -3 13 -4q45 -12 53 26 q3 13 3 30h5v-252h-5q0 107 -71 172q-50 45 -119 48v-295q108 -61 127 -75q103 -73 104 -160zM144 570q0 -69 94 -131q18 -12 43 -26v292h-4q-73 0 -110 -53q-23 -34 -23 -82zM286 -4q88 2 127 67q19 33 19 73q0 70 -86 130q-23 16 -60 37v-307z" glyph-name="dollar" horiz-adv-x="567" unicode="$"/>
<glyph d="M398 709h5l-252 -709h-4zM155 709q96 0 112 -100q3 -19 3 -40q0 -119 -87 -137q-14 -3 -28 -3q-91 0 -110 92q-5 22 -5 48q0 115 81 136q16 4 34 4zM155 432q65 1 65 137q-1 136 -65 137q-64 -1 -64 -137q1 -136 64 -137zM405 271q88 0 109 -88q6 -24 6 -53 q0 -115 -82 -136q-16 -4 -33 -4q-92 0 -111 94q-4 22 -4 47q0 119 87 137q14 3 28 3zM405 -6q64 0 64 136q-1 136 -64 138q-65 -1 -65 -137q1 -136 65 -137z" glyph-name="percent" horiz-adv-x="560" unicode="%"/>
<glyph d="M428 353q75 -14 107 -84q15 -36 14 -78q-3 -97 -79 -154q-62 -45 -156 -47l5 -109h-14l4 109h-2q-143 0 -216 74q-48 50 -50 120q-2 122 102 167q45 19 104 21q-107 24 -146 104q-16 36 -16 76q0 112 114 146q38 11 82 11h11l-4 107h14l-4 -107q105 -7 143 -87 q30 -63 2 -127q-20 -43 -58 -60v15q56 32 59 104q2 70 -49 115q-42 36 -102 36q-72 0 -107 -70q-19 -39 -19 -88q0 -87 52 -138q37 -37 88 -37h34v-7h-59q-87 0 -125 -72q-25 -47 -21 -112q5 -118 96 -165q41 -21 88 -21q121 0 183 81q37 49 37 110q0 85 -58 130 q-26 19 -54 23v14z" glyph-name="ampersand" horiz-adv-x="590" unicode="&amp;"/>
<glyph d="M76 693q27 0 25 -32q0 -8 -1 -16q-2 -15 -10 -41q-10 -32 -12 -53h-2h-3q-1 16 -15 66q-4 16 -6 28q-1 45 24 48z" glyph-name="quotesingle" horiz-adv-x="152" unicode="'"/>
<glyph d="M328 729q-100 0 -162 -136q-56 -124 -56 -293q0 -185 66 -311q61 -116 152 -117v-5q-143 0 -220 158q-58 119 -58 275q0 175 70 299q77 134 208 135v-5z" glyph-name="parenleft" horiz-adv-x="378" unicode="("/>
<glyph d="M50 734q142 0 220 -156q59 -121 59 -278q0 -174 -70 -297q-78 -135 -209 -136v5q101 0 163 138q55 123 55 290q0 188 -66 314q-61 114 -152 115v5z" glyph-name="parenright" horiz-adv-x="379" unicode=")"/>
<glyph d="M310 730q7 -20 -27 -28q-3 -1 -5 -1q-11 -2 -38 -5q-39 -5 -56 -9q7 -8 58 -55q7 -6 11 -10q26 -28 10 -42q-20 -10 -38 21q-5 9 -15 29q-19 37 -29 53q-5 -7 -39 -72l-5 -10q-20 -33 -37 -21q-17 15 9 42q7 6 22 20q34 30 47 45q-17 4 -56 9q-27 3 -38 5q-35 6 -33 24 q0 3 1 5q8 21 42 4q10 -5 31 -16q37 -20 54 -27q0 6 -14 89q-1 4 -1 6q-4 38 17 39q23 0 18 -37v-2q-1 -10 -6 -33q-9 -43 -10 -62q7 3 69 35l16 8q35 17 42 -4z" glyph-name="asterisk" horiz-adv-x="362" unicode="*"/>
<glyph d="M331 284v-5h-138v-138h-5v138h-138v5h138v138h5v-138h138z" glyph-name="plus" horiz-adv-x="381" unicode="+"/>
<glyph d="M147 37q3 -120 -79 -118v4q60 -4 72 61q3 14 2 26q-13 -21 -44 -19h-3q-32 4 -42 32q-3 10 -2 20q2 30 30 41q11 4 22 3q40 -3 44 -47v-3z" glyph-name="comma" horiz-adv-x="198" unicode=","/>
<glyph d="M50 277h223v-5h-223v5z" glyph-name="hyphen" horiz-adv-x="323" unicode="-"/>
<glyph d="M98 88q32 0 45 -29q4 -10 4 -20q0 -32 -30 -44q-10 -4 -19 -4q-32 0 -44 29q-4 10 -4 19q0 33 29 45q10 4 19 4z" glyph-name="period" horiz-adv-x="197" unicode="."/>
<glyph d="M195 703h5l-145 -710h-5z" glyph-name="slash" horiz-adv-x="250" unicode="/"/>
<glyph d="M270 710q130 0 190 -137q40 -91 40 -223q0 -211 -94 -304q-57 -55 -136 -55q-131 0 -191 140q-39 90 -39 220q0 211 94 304q57 55 136 55zM270 -5q133 1 136 355q0 320 -111 353q-13 3 -25 3q-122 0 -135 -293q-1 -30 -1 -62q6 -348 136 -356z" glyph-name="zero" horiz-adv-x="540" unicode="0"/>
<glyph d="M210 115q0 -76 19 -96q15 -14 44 -14v-5h-209v5q46 0 57 39q6 22 6 71v484q0 31 -15 34q-16 3 -62 -10v5l156 72h4v-585z" glyph-name="one" horiz-adv-x="323" unicode="1"/>
<glyph d="M464 143h5l-20 -143h-409v5q28 32 85 94q115 124 158 191q74 117 74 236q0 138 -74 171q-20 9 -44 9q-91 0 -137 -72q-39 -60 -19 -123q13 -39 46 -60v-15q-52 24 -62 91q-10 73 40 128q52 55 144 55q109 0 166 -64q40 -47 40 -120q0 -99 -85 -196q-32 -35 -147 -142 q-67 -62 -112 -108h212q84 1 112 23q18 15 27 40z" glyph-name="two" horiz-adv-x="509" unicode="2"/>
<glyph d="M265 373q147 -5 193 -97q19 -40 16 -92q-8 -137 -143 -178q-50 -15 -112 -15q-93 1 -179 48v15q53 -44 134 -55q18 -3 33 -3q85 0 130 71q28 47 31 115q5 135 -79 172q-27 12 -59 12h-59v7h38q117 0 124 158v17q0 128 -78 153q-17 5 -36 5q-90 0 -131 -71 q-35 -61 -11 -124q16 -40 50 -60v-15q-53 22 -67 88q-15 73 30 128q48 58 141 58q139 0 181 -83q16 -31 16 -72q0 -98 -86 -151q-34 -21 -77 -31z" glyph-name="three" horiz-adv-x="515" unicode="3"/>
<glyph d="M399 165v-50q0 -76 19 -96q15 -14 44 -14v-5h-209v5q46 0 57 39q6 22 6 71v50h-291v5l369 530h5v-530h106v-5h-106zM30 170h286v412z" glyph-name="four" horiz-adv-x="510" unicode="4"/>
<glyph d="M78 379q148 72 254 12q78 -45 95 -140q4 -27 3 -54q-14 -205 -247 -206q-71 0 -128 31q-5 2 -10 5v15q58 -46 126 -46q155 2 159 201q3 113 -55 166q-68 61 -201 8l19 329h169q68 1 88 16q17 13 29 45h5l-10 -141h-281q-10 -174 -15 -241z" glyph-name="five" horiz-adv-x="471" unicode="5"/>
<glyph d="M288 -9q-111 -12 -181 62q-61 66 -66 180q-8 209 157 356q82 72 185 111v-5q-149 -118 -201 -240q-14 -33 -25 -75q37 27 79 32q107 13 176 -55q52 -53 58 -132q10 -128 -75 -193q-45 -34 -107 -41zM236 407q-92 -10 -102 -132q-2 -36 1 -83q12 -156 93 -190q24 -9 50 -7 q114 12 103 213q-5 110 -59 167q-38 37 -86 32z" glyph-name="six" horiz-adv-x="511" unicode="6"/>
<glyph d="M65 700h409v-5q-123 -143 -174 -273q-68 -171 -68 -422h-99q0 215 125 428q61 104 146 192h-215q-85 0 -114 -24q-16 -15 -25 -39h-5z" glyph-name="seven" horiz-adv-x="519" unicode="7"/>
<glyph d="M494 158q-4 -86 -87 -133q-61 -34 -141 -34q-140 0 -197 77q-25 35 -28 80q-5 95 77 156q31 23 97 57q-97 65 -125 122q-16 35 -15 74q4 93 97 133q45 20 95 20q108 0 158 -62q30 -38 30 -93q-1 -110 -145 -170q10 -8 35 -24q85 -57 116 -99q35 -49 33 -104zM150 557 q6 -64 108 -136q18 -12 49 -33q73 63 73 167q0 98 -57 135q-25 16 -56 16q-71 0 -102 -58q-20 -38 -15 -91zM266 -5q88 0 127 62q23 39 21 93q-3 74 -103 146q-17 12 -50 34q-30 20 -43 29q-97 -59 -95 -197q3 -118 82 -154q28 -13 61 -13z" glyph-name="eight" horiz-adv-x="535" unicode="8"/>
<glyph d="M237 709q119 14 183 -64q50 -61 50 -165q-1 -232 -214 -399q-59 -46 -128 -81v5q138 124 191 232q17 35 34 83q-45 -29 -78 -32q-107 -10 -176 59q-52 54 -58 133q-9 128 86 191q47 31 110 38zM274 293q95 9 101 156q1 27 0 60q-4 118 -62 169q-33 28 -75 25 q-78 -7 -102 -110q-11 -50 -7 -108q10 -111 65 -163q35 -33 80 -29z" glyph-name="nine" horiz-adv-x="510" unicode="9"/>
<glyph d="M98 88q32 0 45 -29q4 -10 4 -20q0 -32 -30 -44q-10 -4 -19 -4q-32 0 -44 29q-4 10 -4 19q0 31 28 45q10 4 20 4zM98 323q-32 0 -44 29q-4 10 -4 19q0 31 28 45q10 4 20 4q32 0 45 -29q4 -10 4 -20q0 -32 -30 -44q-10 -4 -19 -4z" glyph-name="colon" horiz-adv-x="197" unicode=":"/>
<glyph d="M99 323q-32 0 -44 29q-4 10 -4 19q0 31 28 45q10 4 20 4q32 0 45 -29q4 -10 4 -20q0 -32 -30 -44q-10 -4 -19 -4zM104 87q40 -4 43 -50q5 -120 -79 -118v4q61 -5 73 64q2 12 2 23q-12 -21 -44 -19h-4q-32 4 -42 33q-3 10 -2 19q4 32 33 42q10 3 20 2z" glyph-name="semicolon" horiz-adv-x="198" unicode=";"/>
<glyph d="M258 516v-5l-205 -167l205 -167v-5l-208 169v5z" glyph-name="less" horiz-adv-x="308" unicode="&lt;"/>
<glyph d="M50 342h281v-5h-281v5zM50 221v5h281v-5h-281z" glyph-name="equal" horiz-adv-x="381" unicode="="/>
<glyph d="M50 516l208 -170v-5l-208 -169v5l205 167l-205 167v5z" glyph-name="greater" horiz-adv-x="308" unicode="&gt;"/>
<glyph d="M189 710q134 0 176 -78q20 -41 13 -99q-9 -61 -73 -130q-8 -8 -23 -24q-66 -67 -87 -110q-23 -47 -23 -101h-5q-6 88 45 191q47 94 50 102q14 35 19 65q16 103 -31 152q-29 28 -73 28q-82 0 -113 -70q-28 -62 1 -127q21 -46 61 -65v-15q-55 20 -77 88q-24 74 13 132 q39 60 127 61zM174 88q32 0 45 -29q4 -10 4 -20q0 -32 -30 -44q-10 -4 -19 -4q-32 0 -44 29q-4 10 -4 19q0 31 28 45q10 4 20 4z" glyph-name="question" horiz-adv-x="421" unicode="?"/>
<glyph d="M171 119q4 53 65 81q-41 64 -29 148q10 71 68 99q28 13 63 13q92 0 128 -59q17 -28 17 -64v-210q0 -64 10 -77q10 -12 28 -12q39 0 66 57q29 61 29 168q0 235 -158 285q-48 15 -109 15q-233 0 -287 -180q-18 -60 -18 -140q0 -270 200 -315q37 -8 79 -8q140 0 239 74 q9 7 14 12l3 -2q-31 -31 -96 -58q-76 -30 -160 -30q-132 1 -204 77q-79 86 -79 250q1 170 80 249q78 75 229 75q145 -1 213 -84q58 -75 58 -220q0 -143 -50 -202q-26 -28 -60 -29q-85 0 -100 65q-1 8 -2 15q-33 -56 -82 -73q-61 -18 -111 5q-47 24 -44 75zM340 48 q43 22 67 68v15v124q-17 -9 -41 -19q-7 -3 -24 -8q-65 -18 -86 -45q-14 -19 -17 -45q-8 -74 39 -94q29 -11 62 4zM209 342q-10 -73 23 -131q4 -5 7 -10q21 10 104 32q12 3 19 5q27 9 45 21v74q0 94 -35 115q-15 9 -36 9q-72 0 -107 -56q-16 -26 -20 -59z" glyph-name="at" horiz-adv-x="660" unicode="@"/>
<glyph d="M591 139q35 -86 62 -111q25 -23 54 -23v-5h-220v5q41 0 43 26q2 20 -15 66q-9 23 -69 181h-240q-24 -61 -32 -82q-30 -82 -11 -143q16 -47 55 -48v-5h-213v5q84 14 134 119q9 17 16 36l211 540h9l215 -559q1 -1 1 -2zM208 283h236q-100 261 -117 305q-75 -192 -119 -305z " glyph-name="A" horiz-adv-x="712" unicode="A"/>
<glyph d="M379 356q99 0 160 -57q51 -48 51 -122q0 -111 -107 -156q-51 -21 -114 -21h-319v5q46 0 57 40q5 21 6 70v470q-1 75 -18 95q-16 15 -45 15v5h281q104 0 164 -59q46 -46 46 -116q0 -112 -110 -155q-25 -9 -52 -14zM307 695h-44q-47 0 -58 -41q-5 -22 -5 -69v-229h107 q109 0 132 110q6 27 6 59q0 114 -78 155q-29 15 -60 15zM348 5q68 0 110 54q35 47 35 118q0 109 -78 155q-33 19 -67 19h-148v-236q0 -77 20 -96q15 -14 43 -14h85z" glyph-name="B" horiz-adv-x="625" unicode="B"/>
<glyph d="M453 -2q126 3 228 96v-15q-85 -67 -187 -82q-20 -3 -40 -4q-170 -11 -284 83q-109 90 -123 240q-15 168 96 280q97 97 247 111q77 6 201 -24q48 -11 60 -1q13 13 13 54h5v-252h-5q0 64 -62 134q-29 32 -59 50q-76 40 -153 34q-110 -10 -181 -114q-76 -112 -63 -263 q14 -155 113 -250q85 -79 194 -77z" glyph-name="C" horiz-adv-x="731" unicode="C"/>
<glyph d="M384 700q180 0 266 -134q57 -90 57 -216q0 -177 -104 -273q-85 -77 -219 -77h-334v5q46 0 57 40q5 21 6 70v470q-1 75 -18 95q-16 15 -45 15v5h334zM340 5q147 0 217 119q50 86 50 226q0 249 -152 321q-52 24 -115 24h-77q-47 0 -58 -41q-5 -22 -5 -69v-470q0 -77 20 -96 q15 -14 43 -14h77z" glyph-name="D" horiz-adv-x="752" unicode="D"/>
<glyph d="M571 169h5l-41 -169h-485v5q47 0 58 41q5 22 5 69v470q0 77 -20 96q-15 14 -43 14v5h453l34 -138h-5q-52 118 -160 131q-13 2 -26 2h-83q-46 0 -57 -40q-5 -21 -6 -70v-234h73q73 0 115 53q25 32 25 70h5v-251h-5q0 61 -56 98q-38 25 -84 25h-73v-231q1 -75 18 -95 q16 -15 45 -15h114q104 0 176 129q10 17 18 35z" glyph-name="E" horiz-adv-x="601" unicode="E"/>
<glyph d="M503 700l34 -138h-5q-52 118 -160 131q-13 2 -26 2h-83q-46 0 -57 -40q-5 -21 -6 -70v-234h73q72 0 114 52q26 33 26 71h5v-251h-5q0 61 -56 98q-38 25 -84 25h-73v-231q1 -75 18 -95q16 -15 45 -15v-5h-213v5q47 0 58 41q5 22 5 69v470q0 77 -20 96q-15 14 -43 14v5h453 z" glyph-name="F" horiz-adv-x="552" unicode="F"/>
<glyph d="M531 317h213v-5q-46 0 -57 -39q-6 -22 -6 -71v-212h-5q0 40 -105 23l-48 -9q-51 -10 -69 -11q-167 -12 -282 80q-111 91 -125 243q-15 168 96 280q97 97 247 111q71 6 209 -26q45 -11 56 6q9 15 9 49h5v-252h-5q0 64 -62 134q-29 32 -59 50q-76 40 -153 34 q-110 -10 -181 -114q-76 -112 -63 -263q14 -149 107 -245q89 -92 200 -82q74 7 141 47v157q-1 76 -18 95q-15 15 -45 15v5z" glyph-name="G" horiz-adv-x="769" unicode="G"/>
<glyph d="M672 585v-470q1 -75 18 -95q16 -15 45 -15v-5h-213v5q47 0 58 41q5 22 5 69v232h-385v-232q0 -77 20 -96q15 -14 43 -14v-5h-213v5q46 0 57 40q5 21 6 70v470q-1 75 -18 95q-16 15 -45 15v5h213v-5q-47 0 -58 -41q-5 -22 -5 -69v-233h385v233q0 77 -20 96q-15 14 -43 14 v5h213v-5q-46 0 -57 -40q-5 -21 -6 -70z" glyph-name="H" horiz-adv-x="785" unicode="H"/>
<glyph d="M200 585v-470q1 -75 18 -95q16 -15 45 -15v-5h-213v5q47 0 58 41q5 22 5 69v470q0 77 -20 96q-15 14 -43 14v5h213v-5q-46 0 -57 -40q-5 -21 -6 -70z" glyph-name="I" horiz-adv-x="313" unicode="I"/>
<glyph d="M51 700h214v-5q-47 0 -58 -41q-5 -22 -5 -69v-563q0 -186 -165 -215q-13 -2 -27 -3v6q98 36 104 184v16v575q0 77 -20 96q-15 14 -43 14v5z" glyph-name="J" horiz-adv-x="315" unicode="J"/>
<glyph d="M531 134q73 -87 145 -117q28 -12 50 -12v-5h-206l-272 346q-11 -11 -32 -30q-12 -10 -16 -14v-187q1 -75 18 -95q16 -15 45 -15v-5h-213v5q46 0 57 40q5 21 6 70v470q-1 75 -18 95q-16 15 -45 15v5h213v-5q-46 0 -57 -40q-5 -21 -6 -70v-278q174 162 247 235 q36 36 50 71.5t3 58.5t-46 23v5h213v-5q-61 0 -213 -153l-12 -12q-37 -37 -130 -124q201 -251 216 -268q2 -3 3 -4z" glyph-name="K" horiz-adv-x="731" unicode="K"/>
<glyph d="M571 169h5l-42 -169h-484v5q47 0 57 40q6 22 6 69v471q0 77 -20 96q-15 14 -43 14v5h213v-5q-46 0 -57 -40q-5 -21 -6 -70v-471q1 -75 18 -94q15 -15 45 -15h114q104 0 176 129q10 17 18 35z" glyph-name="L" unicode="L"/>
<glyph d="M781 585v-470q0 -77 20 -96q15 -14 43 -14v-5h-213v5q46 0 57 40q5 21 6 70v574l-255 -544h-2h-2h-5l-235 427q-34 59 -41 69v-447q0 -119 63 -168q27 -21 60 -21v-5h-252v5q64 0 99 69q25 50 25 120v453q-40 47 -80 48v5h155l253 -465l217 465h150v-5q-47 0 -58 -41 q-5 -22 -5 -69z" glyph-name="M" horiz-adv-x="894" unicode="M"/>
<glyph d="M514 700h252v-5q-63 0 -98 -69q-25 -50 -25 -120v-506h-12q-3 4 -177 225q-288 367 -301 383v-414q0 -118 63 -167q28 -22 61 -22v-5h-252v5q64 0 99 71q24 49 24 118v420q-66 80 -116 81v5h167l439 -568v374q0 118 -63 167q-28 22 -61 22v5z" glyph-name="N" horiz-adv-x="791" unicode="N"/>
<glyph d="M391 707q163 15 278 -77q114 -91 129 -247q15 -167 -95 -278q-97 -98 -249 -112q-163 -15 -278 76q-114 92 -129 247q-15 168 95 280q97 97 249 111zM454 -2q109 10 180 113q78 112 64 264q-13 148 -105 244q-90 93 -202 83q-109 -9 -180 -112q-77 -112 -64 -263v-2 q13 -149 106 -245q90 -91 201 -82z" glyph-name="O" horiz-adv-x="845" unicode="O"/>
<glyph d="M307 700q111 0 178 -67q53 -54 53 -134q0 -110 -95 -166q-60 -35 -136 -35h-106v-183q0 -77 20 -96q15 -14 43 -14v-5h-214v5q47 0 58 41q5 22 5 69v470q0 76 -19 96q-15 14 -44 14v5h257zM296 303q63 0 106 59q39 54 39 137q0 119 -73 172q-34 24 -72 24h-32 q-46 0 -57 -39q-6 -22 -6 -71v-282h95z" glyph-name="P" horiz-adv-x="573" unicode="P"/>
<glyph d="M626 -78q103 -32 159 14l2 -4q-1 -1 -71 -58q-50 -41 -100 -33q-44 8 -134 54q-80 42 -116 39q-17 -1 -31 -9q-11 -7 -21 -12q-19 -11 -26 1q-6 12 13 19q12 5 28 5q34 1 74 20q5 3 17 9q31 18 50 27h-8q-5 -1 -7 -1q-164 -15 -280 77q-113 91 -128 246q-15 168 96 280 q97 97 248 111q162 15 278 -76q115 -91 129 -248t-89 -270q-90 -98 -222 -116q-6 -1 -30 -13.5t-45 -25.5l-21 -12q74 28 161 1q11 -3 34 -12q27 -9 40 -13zM454 -2q110 10 182 114q76 112 63 263q-14 149 -107 245q-90 92 -201 82q-109 -9 -180 -112q-77 -113 -64 -265 q13 -149 106 -245q90 -91 201 -82z" glyph-name="Q" horiz-adv-x="845" unicode="Q"/>
<glyph d="M556 109q71 -103 153 -104v-5h-107q-76 1 -113 44q-35 40 -80 149q-39 96 -66 125q-25 26 -56 28h-87v-232q1 -75 18 -94q15 -15 45 -15v-5h-213v5q46 0 57 39q5 21 6 70v471q-1 76 -18 95q-15 15 -45 15v5h276q101 0 162 -58q49 -47 49 -119q0 -111 -105 -155 q-29 -12 -61 -17q60 -18 106 -98q10 -17 30 -56q30 -60 49 -88zM200 351h95q68 0 110 54q35 47 35 118q0 110 -80 154q-32 18 -65 18h-32q-46 0 -56 -38q-6 -22 -7 -72v-234z" glyph-name="R" horiz-adv-x="719" unicode="R"/>
<glyph d="M144 569q0 -68 91 -128q11 -8 118 -69q108 -62 142 -118q22 -38 22 -80q0 -117 -111 -162q-55 -22 -126 -22q-55 0 -141 19q-57 15 -74 -7q-10 -14 -10 -39h-5v252h5q0 -50 40 -113q70 -106 185 -107q90 0 131 64q22 34 22 76q0 71 -90 132q-11 8 -116 68 q-104 61 -137 117q-23 39 -23 83q0 105 96 151q50 24 112 24q42 0 126 -24l20 -5q44 -12 52 25q3 13 3 30h5v-252h-5q0 108 -70 172q-54 49 -128 49q-76 0 -112 -55q-22 -34 -22 -81z" glyph-name="S" horiz-adv-x="567" unicode="S"/>
<glyph d="M624 700l22 -150h-5q-46 103 -109 132q-30 13 -65 13h-17q-46 0 -57 -39q-6 -22 -6 -71v-470q0 -77 20 -96q15 -14 43 -14v-5h-214v5q47 0 58 41q5 22 5 69v470q0 76 -19 96q-15 14 -44 14h-17q-101 0 -160 -116q-7 -14 -14 -29h-5l22 150h562z" glyph-name="T" horiz-adv-x="686" unicode="T"/>
<glyph d="M525 700h131v-5q-46 0 -57 -39q-6 -22 -6 -71v-367q0 -173 -140 -216q-41 -12 -88 -12q-120 0 -190 68q-62 60 -62 160v367q0 76 -19 96q-15 14 -44 14v5h213v-5q-46 0 -56 -38q-6 -22 -7 -72v-379q0 -122 74 -179q40 -30 91 -30q178 0 215 146q8 35 8 75v367 q0 76 -19 96q-15 14 -44 14v5z" glyph-name="U" horiz-adv-x="706" unicode="U"/>
<glyph d="M515 700h213v-5q-91 -19 -145 -155l-194 -540h-10l-232 561q-34 85 -61 111q-25 23 -56 23v5h221v-5q-41 0 -41 -30q0 -24 21 -76l195 -473q128 363 138 388q24 67 9 131q-16 59 -58 60v5z" glyph-name="V" horiz-adv-x="758" unicode="V"/>
<glyph d="M798 700h214v-5q-86 -16 -132 -118q-8 -18 -14 -37l-160 -540h-10l-187 556l-162 -556h-9l-191 561q-33 95 -69 120q-21 14 -48 14v5h237v-5q-44 0 -46 -31q0 -19 9 -50q41 -131 156 -467l160 553h12l184 -564q106 359 112 387q22 93 -6 143q-18 28 -50 29v5z" glyph-name="W" horiz-adv-x="1042" unicode="W"/>
<glyph d="M680 695q-98 -20 -172 -123q-48 -69 -121 -181q84 -147 123 -217q85 -142 142 -164q12 -5 23 -5v-5h-220v5q48 0 21 70q-6 17 -16 34q-16 26 -119 211q-98 -149 -117 -177q-41 -61 -27 -105q12 -32 52 -33v-5h-214v5q96 18 173 123q38 55 131 196q-20 36 -58 103 q-34 61 -44 79q-90 156 -150 183q-14 6 -27 6v5h220v-5q-57 -1 0 -113q52 -96 105 -187q12 19 40 62q53 81 66 100q41 59 27 104q-11 33 -51 34v5h213v-5z" glyph-name="X" horiz-adv-x="715" unicode="X"/>
<glyph d="M433 700h213v-5q-80 -15 -134 -102q-15 -25 -26 -53q-33 -86 -90 -244v-181q1 -75 18 -95q16 -15 45 -15v-5h-213v5q47 0 58 41q5 22 5 69v180q-18 35 -62 120q-51 98 -64 123q-83 156 -153 157v5h221v-5q-37 0 -22 -57q5 -16 12 -30q103 -202 154 -303q62 174 72 199 q37 94 17 153q-15 37 -51 38v5z" glyph-name="Y" horiz-adv-x="676" unicode="Y"/>
<glyph d="M546 700v-5l-415 -690h211q123 0 182 122q3 6 5 11h5l-34 -138h-465v5l414 690h-204q-120 0 -181 -121q-3 -7 -5 -12h-5l34 138h458z" glyph-name="Z" horiz-adv-x="581" unicode="Z"/>
<glyph d="M201 737h-78v-763h78v-5h-151v773h151v-5z" glyph-name="bracketleft" horiz-adv-x="226" unicode="["/>
<glyph d="M55 703l145 -710h-5l-145 710h5z" glyph-name="backslash" horiz-adv-x="250" unicode="\"/>
<glyph d="M25 742h150v-773h-150v5h78v763h-78v5z" glyph-name="bracketright" horiz-adv-x="225" unicode="]"/>
<glyph d="M394 528h-5l-167 205l-167 -205h-5l169 208h5z" glyph-name="asciicircum" horiz-adv-x="444" unicode="^"/>
<glyph d="M50 -11h281v-5h-281v5z" glyph-name="underscore" horiz-adv-x="381" unicode="_"/>
<glyph d="M105 680l39 -111h-5l-89 111h55z" glyph-name="grave" horiz-adv-x="194" unicode="`"/>
<glyph d="M448 -2q19 0 34 10v-5q-20 -12 -47 -12q-86 0 -108 56q-7 18 -9 39q-39 -68 -98 -87q-72 -22 -126 6q-52 27 -48 90q5 76 111 112q21 8 64 19q31 8 43 12q30 10 53 24v89q0 107 -37 134q-20 14 -48 14q-87 -1 -111 -53q-9 -20 7 -45q11 -18 14 -28q7 -26 -16 -40 q-14 -7 -29 -4q-28 6 -30 41q0 19 8 37q46 95 160 96q112 0 149 -77q15 -31 15 -70v-252q0 -76 16 -94q12 -12 33 -12zM237 10q49 24 81 81q-1 7 -1 18v149q-19 -12 -49 -23q-8 -3 -29 -9q-74 -22 -100 -51q-20 -24 -24 -57q-9 -85 44 -111q36 -17 78 3z" glyph-name="a" horiz-adv-x="502" unicode="a"/>
<glyph d="M326 504q93 0 155 -76q57 -71 57 -181q0 -227 -162 -253q-20 -3 -41 -3q-72 1 -123 63q-32 39 -99 -38l-13 -16h-2v622q-1 75 -18 94q-15 15 -45 15v5h162v-5q-17 -10 -17 -150v-171q41 83 126 93q10 1 20 1zM310 0q121 0 142 166q4 37 4 81q0 183 -88 233q-28 16 -62 16 q-49 0 -92 -44q-23 -24 -34 -54v-151q0 -92 12 -138q20 -68 72 -97q23 -12 46 -12z" glyph-name="b" horiz-adv-x="573" unicode="b"/>
<glyph d="M316 -5q59 0 121 49q11 9 18 17v-12q-70 -53 -138 -58q-127 -8 -207 67q-69 65 -74 172q-7 159 107 232q54 34 126 41q90 10 157 -50q22 -20 31 -39q19 -39 -2 -66q-9 -9 -20 -12q-26 -6 -40 17q-7 14 -4 28q1 5 16 31q10 20 -3 39q-24 36 -91 46q-22 3 -44 2 q-90 -7 -129 -113q-23 -66 -20 -154q5 -131 84 -197q50 -40 112 -40z" glyph-name="c" horiz-adv-x="500" unicode="c"/>
<glyph d="M484 115q1 -75 18 -95q16 -15 45 -15v-5h-162v5q15 11 17 138q-27 -144 -144 -152h-11q-132 0 -182 112q-26 61 -24 144q6 154 122 219q31 17 67 26q59 15 154 11q11 -1 18 -1v120q-1 75 -18 94q-15 15 -45 15v5h162v-5q-17 -10 -17 -150v-466zM272 0q67 0 105 75 q8 17 13 34q9 36 12 66v322q-80 10 -137 -4q-7 -2 -11 -3q-106 -39 -127 -201q-3 -21 -4 -42q-7 -143 58 -210q38 -37 91 -37z" glyph-name="d" horiz-adv-x="597" unicode="d"/>
<glyph d="M36 229zM506 333h-377q-8 -52 -4 -101q13 -144 98 -206q46 -32 103 -31q87 2 157 70v-11q-67 -57 -157 -63q-124 -8 -207 65q-75 66 -83 173q-8 126 81 206q68 61 162 68q118 9 183 -70q34 -42 44 -100zM279 499q-80 1 -125 -88q-16 -33 -24 -74h291q-17 158 -142 162z " glyph-name="e" horiz-adv-x="541" unicode="e"/>
<glyph d="M336 724q42 -17 40 -51q-1 -11 -6 -19q-14 -23 -41 -14q-15 6 -22 19q-4 7 -6 44q-4 30 -25 31q-80 -2 -80 -133v-107h77v-5h-77v-374q0 -77 20 -96q15 -14 43 -14v-5h-209v5q47 0 58 41q5 22 5 69v374h-63v5h63v102q1 142 148 143q45 0 75 -15z" glyph-name="f" horiz-adv-x="296" unicode="f"/>
<glyph d="M496 -29q22 -55 -32 -122q-56 -68 -144 -93q-98 -27 -198 -1q-98 25 -110 86v2q-15 89 85 113q28 6 59 7q43 1 76 -4v-10l-40 9q-22 3 -41 1q-59 -7 -73 -65q-4 -20 -3 -44q5 -76 90 -98q80 -20 166 15q12 5 22 10q77 40 88 102q7 41 -20 63q-21 17 -121 25 q-124 11 -167 31q-13 7 -22 14q-29 24 -18 64q3 8 6 14q18 31 68 46q-90 38 -103 130q-1 6 -1 11q-8 99 76 155q45 29 98 35q69 4 126 -28q13 56 44 80l2 2q37 24 60 4q6 -6 9 -12q12 -26 -11 -40q-10 -6 -21 -5q-4 0 -29 11q-17 5 -31 -7q-13 -11 -20 -35q71 -46 74 -127 q4 -99 -79 -155q-43 -28 -94 -34q-49 -4 -97 14q-47 -16 -40 -42q9 -25 59 -37q58 -13 188 -27q77 -8 101 -30q12 -12 18 -28zM237 463q-60 -6 -87 -75q-17 -47 -13 -105q10 -101 69 -142q28 -19 60 -16q60 6 87 75q17 47 13 105q-9 100 -67 141q-29 20 -62 17z" glyph-name="g" horiz-adv-x="512" unicode="g"/>
<glyph d="M515 115q1 -75 18 -95q16 -15 45 -15v-5h-208v5q47 0 58 41q5 22 5 69v234q0 117 -65 141q-20 7 -44 7q-48 0 -92 -43q-25 -26 -36 -56v-283q0 -77 20 -96q15 -14 43 -14v-5h-209v5q47 0 58 41q5 22 5 69v507q0 76 -19 95q-15 14 -44 14v5h163v-5q-17 -10 -17 -150v-171 q33 70 105 89q21 5 43 5q170 -2 171 -160v-229z" glyph-name="h" horiz-adv-x="628" unicode="h"/>
<glyph d="M195 115q0 -77 20 -96q15 -14 43 -14v-5h-208v5q46 0 57 40q5 21 6 70v265q-1 75 -18 94q-15 15 -45 15v5h162v-5q-17 -10 -17 -151v-223zM154 599q-35 0 -49 33q-4 11 -4 22q0 36 31 51q11 5 22 5q33 0 48 -31q5 -13 5 -25q0 -35 -31 -50q-11 -5 -22 -5z" glyph-name="i" horiz-adv-x="308" unicode="i"/>
<glyph d="M50 494h163v-5q-17 -10 -17 -151v-413q-1 -200 -187 -218v7q95 33 103 174q1 13 1 25v467q0 76 -19 95q-15 14 -44 14v5zM154 599q-34 0 -48 32q-5 11 -5 23q0 36 31 51q11 5 22 5q35 0 49 -33q5 -11 5 -23q0 -35 -31 -50q-11 -5 -23 -5z" glyph-name="j" horiz-adv-x="308" unicode="j"/>
<glyph d="M450 119q56 -79 98 -101q26 -13 54 -13v-5h-181l-176 277l-49 -49v-113q0 -77 20 -96q15 -14 43 -14v-5h-209v5q47 0 58 41q5 22 5 69v507q0 76 -19 95q-15 14 -44 14v5h163v-5q-17 -10 -17 -150v-346q11 11 72 70q91 89 116 114q20 20 10 44l-3 6q-14 20 -62 20v5h213 v-5q-41 0 -100 -33q-30 -18 -53 -39q-18 -17 -56 -54q-19 -18 -28 -27q91 -142 145 -217z" glyph-name="k" horiz-adv-x="622" unicode="k"/>
<glyph d="M196 115q0 -77 20 -96q15 -14 43 -14v-5h-209v5q47 0 58 41q5 22 5 69v507q0 76 -19 95q-15 14 -44 14v5h163v-5q-17 -10 -17 -150v-466z" glyph-name="l" horiz-adv-x="309" unicode="l"/>
<glyph d="M815 115q0 -77 20 -96q15 -14 43 -14v-5h-208v5q46 0 57 40q5 21 6 70v234q0 97 -37 128q-26 20 -67 20q-46 0 -91 -45q-26 -26 -38 -56q5 -26 5 -52v-229q0 -77 20 -96q15 -14 43 -14v-5h-208v5q46 0 57 40q5 21 6 70v234q0 97 -37 128q-26 20 -67 20q-51 0 -92 -46 q-21 -23 -31 -51q-1 -18 -1 -61v-224q0 -77 20 -96q15 -14 43 -14v-5h-208v5q46 0 57 40q5 21 6 70v265q-1 75 -18 94q-15 15 -45 15v5h162v-5q-12 -9 -15 -76q48 90 141 91q132 -1 160 -101q34 69 99 92q25 9 51 9q166 -2 167 -160v-229z" glyph-name="m" horiz-adv-x="928" unicode="m"/>
<glyph d="M515 115q1 -76 18 -95q15 -15 45 -15v-5h-208v5q47 0 58 41q5 22 5 69v234q0 122 -71 143q-18 5 -38 5q-48 0 -92 -43q-24 -25 -35 -54q-1 -19 -1 -61v-224q0 -77 20 -96q15 -14 43 -14v-5h-209v5q47 0 58 41q5 22 5 69v264q0 76 -19 96q-15 14 -44 14v5h163v-5 q-12 -7 -16 -77q40 77 119 90q14 2 28 2q170 -2 171 -160v-229z" glyph-name="n" horiz-adv-x="628" unicode="n"/>
<glyph d="M284 503q117 8 196 -65q70 -67 74 -169q4 -120 -71 -202q-62 -67 -154 -76q-119 -11 -204 59q-79 66 -85 173q-8 128 77 209q68 64 167 71zM329 -5q75 10 113 104q30 74 24 166q-7 114 -69 184q-50 54 -113 50q-97 -8 -137 -110q-26 -68 -20 -160q11 -149 94 -208 q48 -33 108 -26z" glyph-name="o" unicode="o"/>
<glyph d="M341 503q102 0 164 -76q56 -70 56 -180q0 -152 -100 -220q-54 -37 -120 -37q-88 0 -136 77q-5 9 -9 18v-167q0 -76 19 -95q15 -14 44 -14v-5h-209v5q47 0 57 40q6 22 6 69v461q0 76 -19 96q-15 14 -44 14v5h163v-5q-12 -7 -16 -77q40 80 124 90q10 1 20 1zM322 -3 q106 0 141 123q16 54 16 127q0 190 -97 236q-28 13 -60 13q-50 0 -93 -45q-21 -23 -32 -51q-1 -19 -1 -61v-242q21 -61 80 -89q24 -11 46 -11z" glyph-name="p" horiz-adv-x="601" unicode="p"/>
<glyph d="M489 379v-461q1 -75 18 -94q15 -15 45 -15v-5h-208v5q47 0 57 40q6 22 6 69v261q-23 -174 -141 -188q-10 -1 -19 -1q-128 0 -180 107q-30 63 -26 150q7 127 101 199q74 57 178 57q13 0 74 -7q24 -2 54 -2h104v-5q-46 0 -56 -38q-6 -22 -7 -72zM405 247q0 124 1 174 q-2 53 -25 67q-20 11 -68 11q-176 -2 -189 -252q-7 -145 59 -211q38 -36 90 -36q62 0 101 77q8 16 14 32q17 53 17 138z" glyph-name="q" horiz-adv-x="602" unicode="q"/>
<glyph d="M337 503q48 6 65 -24q5 -11 5 -22q-1 -29 -28 -36q-17 -3 -31 6q-6 4 -24 26q-16 17 -38 11q-35 -10 -68 -69q-15 -28 -22 -55l-1 -225q1 -75 18 -95q16 -15 45 -15v-5h-208v5q47 0 58 41q5 22 5 69v264q0 76 -19 96q-15 14 -44 14v5h162v-5q-15 -11 -17 -138 q22 81 91 129q30 20 51 23z" glyph-name="r" horiz-adv-x="443" unicode="r"/>
<glyph d="M140 407q0 -51 74 -98q16 -10 51 -29q86 -49 114 -82q29 -35 29 -75q0 -100 -111 -125q-33 -7 -73 -7q-97 0 -155 67q-6 7 -10 13q-25 37 -7 66q6 11 16 15q26 10 43 -11q9 -12 8 -26q-1 -7 -14 -37q-10 -25 5 -42q37 -41 114 -41q66 0 96 47q13 22 13 45q0 49 -68 92 q-14 10 -47 28q-84 48 -114 83q-35 42 -35 95q0 84 93 109q33 9 74 9q98 -1 145 -70q25 -37 7 -67q-7 -10 -16 -14q-26 -10 -43 11q-9 12 -8 26q0 7 13 37q7 23 -6 39q-28 29 -71 33q-10 1 -21 1q-65 0 -88 -53q-8 -19 -8 -39z" glyph-name="s" horiz-adv-x="453" unicode="s"/>
<glyph d="M253 -3q20 0 39 11v-6q-22 -12 -54 -12q-143 7 -147 143v356h-46v5h46v36q50 6 67 44q6 14 10 31h5v-111h104v-5h-104v-361q1 -130 80 -131z" glyph-name="t" horiz-adv-x="317" unicode="t"/>
<glyph d="M510 115v-1q1 -75 18 -94q15 -15 45 -15v-5h-162v5q11 6 15 76q-37 -73 -113 -88q-16 -3 -33 -3q-171 2 -172 160v229q0 76 -19 96q-15 14 -44 14v5h162v-5q-16 -11 -16 -150v-194q0 -112 58 -138q22 -10 50 -10q49 0 93 43q24 25 35 54v26q1 23 1 35v224q-1 76 -18 95 q-15 15 -45 15v5h162v-5q-17 -10 -17 -150v-224z" glyph-name="u" horiz-adv-x="623" unicode="u"/>
<glyph d="M384 494h150v-5q-65 -13 -103 -109l-136 -380h-9l-179 395q-27 60 -41 75q-19 19 -41 19v5h171v-5q-30 0 -30 -20q1 -16 14 -47q5 -13 145 -327q76 218 93 260q19 54 4 100q-12 33 -38 34v5z" glyph-name="v" horiz-adv-x="554" unicode="v"/>
<glyph d="M625 494h150v-5q-64 -13 -102 -109q-24 -61 -124 -380h-10l-146 371l-111 -371h-9l-166 395q-27 64 -47 81q-16 13 -35 13v5h181v-5q-29 0 -29 -20q1 -16 13 -47q11 -31 81 -206q35 -89 41 -104l115 382h7l147 -382q16 51 50 157q25 78 28 86q19 59 3 103q-12 30 -37 31 v5z" glyph-name="w" horiz-adv-x="795" unicode="w"/>
<glyph d="M366 123q65 -109 107 -117q5 -1 8 -1v-5h-163v5q41 1 1 72q-11 18 -82 143q-10 -15 -33 -50q-37 -57 -46 -69q-32 -47 -17 -77q10 -18 34 -19v-5h-150v5q69 13 121 85q13 19 50 74q28 42 40 59q-50 85 -76 134q-57 99 -94 122q-15 10 -29 10v5h163v-5q-42 0 -1 -73 q2 -3 3 -5q13 -22 41 -71q21 -38 32 -57q63 99 71 110q32 47 18 77q-10 18 -35 19v5h151v-5q-71 -14 -122 -86q-24 -34 -82 -122q64 -111 90 -158z" glyph-name="x" horiz-adv-x="506" unicode="x"/>
<glyph d="M385 494h150v-5q-64 -13 -102 -109q-16 -42 -105 -291q-29 -82 -32 -89q-84 -204 -166 -216q-4 -1 -7 -1q-42 -2 -57 28q-6 11 -5 24q1 26 26 32q16 4 30 -5q8 -5 21 -36q12 -27 30 -21q7 3 14 8q42 34 91 143q10 22 18 44h-4l-180 395q-27 60 -41 75q-19 19 -41 19v5 h171v-5q-30 0 -30 -20q1 -16 14 -47q15 -37 121 -278q20 -46 23 -53q32 90 85 236q9 24 10 28q20 53 5 100q-13 33 -39 34v5z" glyph-name="y" horiz-adv-x="555" unicode="y"/>
<glyph d="M429 494v-5l-298 -484h146q79 0 125 78q6 11 11 22h4l-29 -105h-343v5l298 484h-141q-79 0 -125 -78q-6 -11 -11 -22h-3l28 105h338z" glyph-name="z" horiz-adv-x="469" unicode="z"/>
<glyph d="M176 724q-75 -23 -89 -96q-7 -32 0 -69q5 -25 41 -101q41 -84 31 -129q-3 -13 -9 -24q-19 -30 -61 -31q43 -1 61 -32q26 -49 -14 -136q-4 -10 -15 -31q-29 -60 -34 -87q-20 -106 60 -152q14 -8 29 -13v-2q-142 32 -123 179q6 44 46 112q35 62 35 98q0 16 -4 32 q-4 22 -26 26q-4 1 -7 1l-37 -5v19q3 0 37 -5q25 0 32 24q1 2 1 3q14 49 -21 111q-37 68 -41 77q-11 28 -15 54q-19 150 123 179v-2z" glyph-name="braceleft" horiz-adv-x="226" unicode="{"/>
<glyph d="M50 737h5v-780h-5v780z" glyph-name="bar" horiz-adv-x="105" unicode="|"/>
<glyph d="M96 242q-13 -49 21 -111q37 -68 41 -79q11 -27 15 -52q19 -148 -123 -179v2q78 26 91 101q5 30 -2 64q-5 25 -41 101q-41 84 -30 129q3 13 9 24q17 31 60 32q-44 1 -60 31q-27 49 12 135q5 11 16 33q29 59 34 86q20 103 -55 149q-16 10 -34 16v2q142 -30 123 -179 q-6 -44 -46 -113q-35 -62 -35 -99q0 -15 4 -30q10 -26 34 -27l36 5v-19q-3 0 -36 5q-26 -1 -34 -27z" glyph-name="braceright" horiz-adv-x="226" unicode="}"/>
<glyph d="M352 333q-35 0 -98 33l-1 1h-1l-1 1l-2 1q-68 38 -110 38q-11 0 -21 -2.5t-17.5 -6.5t-14 -9.5t-11 -11t-8.5 -11.5t-6 -11t-3.5 -9.5t-1.5 -7.5l-1 -2l-5 1q0 13 16 37q27 37 73 38q43 -1 111 -38h1l1 -1q65 -34 100 -35q58 0 75 54q4 12 4 20h4q0 -33 -25 -57 q-23 -22 -58 -22z" glyph-name="asciitilde" horiz-adv-x="485" unicode="~"/>
<glyph d="M98 245q-32 0 -44 29q-4 10 -4 19q0 32 29 44q10 4 19 4q33 0 45 -29q4 -10 4 -19q0 -32 -30 -44q-10 -4 -19 -4zM108 -32q24 -239 27 -277q-2 -55 -37 -59q-35 0 -37 41q-1 8 0 18q1 9 14 140q10 97 14 137q4 44 5.5 91t1.5 71v25h2h3l1 -111q2 -40 6 -76z" glyph-name="exclamdown" horiz-adv-x="197" unicode="¡"/>
<glyph d="M316 -5q60 1 120 49q11 9 19 17v-12q-71 -52 -138 -57q-21 -1 -40 0v-71h-5v71q-123 8 -188 95q-44 60 -48 144q-7 161 109 233q54 32 124 40h3v71h5v-71q88 6 152 -53q20 -19 28 -36q19 -40 -3 -67q-8 -9 -19 -12q-26 -6 -40 18q-7 13 -4 27q1 5 16 31q10 20 -3 39 q-26 37 -93 48q-17 2 -34 2v-502q26 -4 39 -4zM120 233q5 -132 84 -197q31 -26 68 -35v499h-3q-89 -7 -128 -110q-25 -68 -21 -157z" glyph-name="cent" horiz-adv-x="500" unicode="¢"/>
<glyph d="M479 138h5l-22 -138h-417v5q72 0 111 71q20 37 27 90q11 77 -15 187h-91v5h90q-6 24 -19 70q-32 118 -30 168q5 117 133 139q25 4 53 4q96 -1 143 -44q40 -36 19 -69q-2 -4 -4 -6q-17 -19 -45 -9q-16 7 -23 22q-3 6 -4 44q-2 44 -39 53q-14 4 -32 4q-99 0 -113 -74 q-10 -62 31 -207q16 -62 23 -95h151v-5h-150q35 -180 -37 -265q-46 -53 -137 -83h118q180 0 261 113q7 10 13 20z" glyph-name="sterling" horiz-adv-x="529" unicode="£"/>
<glyph d="M396 326q-1 -60 -43 -104l89 -80l-10 -10l-82 86q-44 -42 -105 -42q-59 1 -103 41l-82 -85l-10 10l88 79q-43 45 -43 105q1 61 44 105l-89 80l10 10l82 -86q45 41 103 41q61 -1 104 -42l83 87l10 -10l-89 -80q43 -45 43 -105zM100 326q0 -72 58 -116q39 -29 87 -29 q74 0 117 59q29 39 29 86q0 72 -58 116q-39 29 -88 29q-72 0 -116 -58q-29 -39 -29 -87z" glyph-name="currency" horiz-adv-x="492" unicode="¤"/>
<glyph d="M432 700h213v-5q-78 -13 -132 -100q-16 -26 -28 -55q-32 -81 -89 -242h128v-5h-129v-63h129v-4h-129v-111q1 -75 18 -95q16 -15 45 -15v-5h-213v5q47 0 58 41q5 22 5 69v111h-128v4h128v63h-128v5h127q-20 37 -66 126.5t-59 113.5q-82 156 -152 157v5h220v-5 q-37 0 -22 -57q5 -16 12 -30q125 -244 154 -302q70 194 71 198q37 93 18 152q-15 38 -51 39v5z" glyph-name="yen" horiz-adv-x="675" unicode="¥"/>
<glyph d="M50 -12v271h5v-271h-5zM50 719h5v-271h-5v271z" glyph-name="brokenbar" horiz-adv-x="105" unicode="¦"/>
<glyph d="M208 599q0 -75 65 -167l24 -33q60 -81 74 -127q10 -32 8 -64q-6 -135 -147 -187q-71 -26 -162 -26h-1v4q89 0 125 62q13 24 16 53q7 68 -52 152q-9 13 -29 39q-64 85 -81 135q-10 32 -12 63q-6 118 133 177q82 34 169 34v-3q-63 0 -102 -40q-28 -30 -28 -72zM336 182 q5 68 -56 155q-8 11 -25 35q-62 84 -77 133q-11 33 -10 66q4 91 84 127q-104 -27 -148 -93q-23 -34 -23 -74q0 -74 64 -163q8 -11 24 -32q60 -80 75 -125q11 -36 8 -71q-10 -103 -98 -133q97 19 148 85q30 40 34 90z" glyph-name="section" horiz-adv-x="415" unicode="§"/>
<glyph d="M89 669q27 0 36 -25q3 -7 3 -14q0 -26 -25 -35q-7 -3 -14 -3q-26 0 -36 24q-3 7 -3 14q0 27 25 36q7 3 14 3zM191 669q26 0 35 -25q3 -7 3 -14q0 -27 -25 -36q-7 -2 -13 -2q-28 0 -37 26q-2 6 -2 12q0 28 26 37q7 2 13 2z" glyph-name="dieresis" horiz-adv-x="279" unicode="¨"/>
<glyph d="M154 346l208 170v-5l-181 -167l181 -167v-5l-208 169v5zM50 346l208 170v-5l-181 -167l181 -167v-5l-208 169v5z" glyph-name="guillemotleft" horiz-adv-x="412" unicode="«"/>
<glyph d="M50 627h174v-5h-174v5z" glyph-name="macron" horiz-adv-x="274" unicode="¯"/>
<glyph d="M120 571q-41 0 -61 36q-9 17 -9 34q0 42 37 62q16 8 33 8q42 0 63 -37q8 -16 8 -33q0 -42 -38 -62q-16 -8 -33 -8zM120 707q-39 0 -58 -36q-7 -14 -7 -30q0 -40 36 -58q14 -7 29 -7q40 0 58 35q8 15 8 30q0 40 -36 58q-15 8 -30 8z" glyph-name="degree" horiz-adv-x="241" unicode="°"/>
<glyph d="M193 313h138v-5h-138v-138h-5v138h-138v5h138v138h5v-138zM50 122v5h281v-5h-281z" glyph-name="plusminus" horiz-adv-x="381" unicode="±"/>
<glyph d="M50 569l39 111h56l-90 -111h-5z" glyph-name="acute" horiz-adv-x="195" unicode="´"/>
<glyph d="M207 709h5v-709h-5v709zM50 573q0 95 70 125q25 11 53 11v-709h-5v436q-77 4 -106 70q-12 30 -12 67z" glyph-name="paragraph" horiz-adv-x="262" unicode="¶"/>
<glyph d="M89 669q27 0 36 -25q3 -7 3 -14q0 -26 -25 -35q-7 -3 -14 -3q-26 0 -36 24q-3 7 -3 14q0 27 25 36q7 3 14 3z" glyph-name="middot" horiz-adv-x="178" unicode="·"/>
<glyph d="M85 -23q73 6 85 -37q3 -16 -2 -34q-11 -37 -56 -39q-14 -1 -27 2q-19 6 -35 22v11q15 -21 30 -27q28 -9 43 23q4 8 5 16q9 50 -25 58q-11 2 -23 2q3 6 9 22l3 -1q-4 -13 -7 -18z" glyph-name="cedilla" horiz-adv-x="222" unicode="¸"/>
<glyph d="M50 516l208 -170v-5l-208 -169v5l181 167l-181 167v5zM154 516l208 -170v-5l-208 -169v5l181 167l-181 167v5z" glyph-name="guillemotright" horiz-adv-x="412" unicode="»"/>
<glyph d="M294 -97q55 -20 77 -88q24 -74 -12 -132q-39 -60 -127 -61q-133 0 -175 77q-22 41 -14 100q8 61 72 130q8 8 23 24q66 67 87 111q23 47 23 101h5q6 -88 -46 -192q-46 -94 -49 -103q-14 -34 -19 -64q-16 -100 30 -150q29 -30 75 -30q83 0 113 71q27 63 -2 128 q-22 45 -61 64v14zM246 245q-32 0 -44 29q-4 10 -4 19q0 32 29 44q10 4 19 4q32 0 44 -29q4 -10 4 -19q0 -32 -29 -44q-10 -4 -19 -4z" glyph-name="questiondown" horiz-adv-x="420" unicode="¿"/>
<glyph d="M591 139q35 -86 62 -111q25 -23 54 -23v-5h-220v5q41 0 43 26q2 20 -15 66q-9 23 -69 181h-240q-24 -61 -32 -82q-30 -82 -11 -143q16 -47 55 -48v-5h-213v5q84 14 134 119q9 17 16 36l211 540h9l215 -559q1 -1 1 -2zM208 283h236q-100 261 -117 305q-75 -192 -119 -305z M314 880l39 -111h-5l-89 111h55z" glyph-name="Agrave" horiz-adv-x="712" unicode="À"/>
<glyph d="M591 139q35 -86 62 -111q25 -23 54 -23v-5h-220v5q41 0 43 26q2 20 -15 66q-9 23 -69 181h-240q-24 -61 -32 -82q-30 -82 -11 -143q16 -47 55 -48v-5h-213v5q84 14 134 119q9 17 16 36l211 540h9l215 -559q1 -1 1 -2zM208 283h236q-100 261 -117 305q-75 -192 -119 -305z M378 769l39 111h56l-90 -111h-5z" glyph-name="Aacute" horiz-adv-x="712" unicode="Á"/>
<glyph d="M591 139q35 -86 62 -111q25 -23 54 -23v-5h-220v5q41 0 43 26q2 20 -15 66q-9 23 -69 181h-240q-24 -61 -32 -82q-30 -82 -11 -143q16 -47 55 -48v-5h-213v5q84 14 134 119q9 17 16 36l211 540h9l215 -559q1 -1 1 -2zM208 283h236q-100 261 -117 305q-75 -192 -119 -305z M397 880l97 -111h-4l-119 74l-119 -74h-5l97 111h53z" glyph-name="Acircumflex" horiz-adv-x="712" unicode="Â"/>
<glyph d="M591 139q35 -86 62 -111q25 -23 54 -23v-5h-220v5q41 0 43 26q2 20 -15 66q-9 23 -69 181h-240q-24 -61 -32 -82q-30 -82 -11 -143q16 -47 55 -48v-5h-213v5q84 14 134 119q9 17 16 36l211 540h9l215 -559q1 -1 1 -2zM208 283h236q-100 261 -117 305q-75 -192 -119 -305z M420 797q-10 1 -74 17q-15 3 -23 4q-29 3 -41 -18h-5q0 18 14 41q14 20 32 23q13 2 87 -17q7 -1 10 -2q29 -5 37 12l2 6h5q0 -44 -22 -60q-10 -7 -22 -6z" glyph-name="Atilde" horiz-adv-x="712" unicode="Ã"/>
<glyph d="M591 139q35 -86 62 -111q25 -23 54 -23v-5h-220v5q41 0 43 26q2 20 -15 66q-9 23 -69 181h-240q-24 -61 -32 -82q-30 -82 -11 -143q16 -47 55 -48v-5h-213v5q84 14 134 119q9 17 16 36l211 540h9l215 -559q1 -1 1 -2zM208 283h236q-100 261 -117 305q-75 -192 -119 -305z M321 869q27 0 36 -25q3 -7 3 -14q0 -26 -25 -35q-7 -3 -14 -3q-26 0 -36 24q-3 7 -3 14q0 27 25 36q7 3 14 3zM423 869q26 0 35 -25q3 -7 3 -14q0 -27 -25 -36q-7 -2 -13 -2q-28 0 -37 26q-2 6 -2 12q0 28 26 37q7 2 13 2z" glyph-name="Adieresis" horiz-adv-x="712" unicode="Ä"/>
<glyph d="M591 139q35 -86 62 -111q25 -23 54 -23v-5h-220v5q41 0 43 26q2 20 -15 66q-9 23 -69 181h-240q-24 -61 -32 -82q-30 -82 -11 -143q16 -47 55 -48v-5h-213v5q84 14 134 119q9 17 16 36l211 540h9l215 -559q1 -1 1 -2zM208 283h236q-100 261 -117 305q-75 -192 -119 -305z M371 757q-36 0 -52 32q-6 13 -6 26q0 36 32 52q13 6 26 6q36 0 52 -32q6 -13 6 -26q0 -36 -32 -52q-13 -6 -26 -6zM371 868q-33 0 -48 -30q-5 -11 -5 -23q0 -34 30 -49q12 -5 23 -5q34 0 49 31q5 11 5 23q0 33 -31 48q-11 5 -23 5z" glyph-name="Aring" horiz-adv-x="712" unicode="Å"/>
<glyph d="M954 170h5l-41 -170h-485v5q46 0 57 39q6 22 6 71v164h-238q-16 -28 -38 -66q-7 -14 -9 -17q-43 -74 -39 -138q5 -52 46 -53v-5h-213v5q99 20 179 155l312 540h390l34 -138h-5q-52 118 -160 131q-13 2 -26 2h-82q-46 0 -57 -39q-6 -22 -6 -71v-234h72q73 0 115 53 q26 32 26 71h5v-252h-5q0 62 -57 99q-38 24 -84 24h-72v-231q0 -76 19 -96q15 -14 44 -14h113q103 0 175 127q11 19 19 38zM261 283h235v409q-225 -392 -235 -409z" glyph-name="AE" horiz-adv-x="984" unicode="Æ"/>
<glyph d="M454 -7q-2 0 -8 -1h-8l-6 -15q71 6 84 -36q5 -16 -1 -35q-11 -37 -56 -39q-14 -1 -27 2q-18 6 -35 22v11q15 -21 30 -27q28 -9 43 23q4 8 5 16q9 50 -25 58q-11 2 -23 2q1 2 3 8t4 10q-168 -3 -277 95q-97 89 -110 230q-15 167 95 278q97 98 249 112q73 7 201 -24 q48 -11 61 0q12 14 12 53h5v-252h-5q0 63 -61 133q-30 33 -61 51q-77 41 -152 34q-109 -9 -180 -112q-77 -113 -64 -265q14 -157 114 -251q84 -78 193 -76q125 3 228 97v-16q-87 -70 -196 -83q-16 -2 -32 -3z" glyph-name="Ccedilla" horiz-adv-x="732" unicode="Ç"/>
<glyph d="M571 169h5l-41 -169h-485v5q47 0 58 41q5 22 5 69v470q0 77 -20 96q-15 14 -43 14v5h453l34 -138h-5q-52 118 -160 131q-13 2 -26 2h-83q-46 0 -57 -40q-5 -21 -6 -70v-234h73q73 0 115 53q25 32 25 70h5v-251h-5q0 61 -56 98q-38 25 -84 25h-73v-231q1 -75 18 -95 q16 -15 45 -15h114q104 0 176 129q10 17 18 35zM301 880l39 -111h-5l-89 111h55z" glyph-name="Egrave" horiz-adv-x="601" unicode="È"/>
<glyph d="M571 169h5l-41 -169h-485v5q47 0 58 41q5 22 5 69v470q0 77 -20 96q-15 14 -43 14v5h453l34 -138h-5q-52 118 -160 131q-13 2 -26 2h-83q-46 0 -57 -40q-5 -21 -6 -70v-234h73q73 0 115 53q25 32 25 70h5v-251h-5q0 61 -56 98q-38 25 -84 25h-73v-231q1 -75 18 -95 q16 -15 45 -15h114q104 0 176 129q10 17 18 35zM316 769l39 111h56l-90 -111h-5z" glyph-name="Eacute" horiz-adv-x="601" unicode="É"/>
<glyph d="M571 169h5l-41 -169h-485v5q47 0 58 41q5 22 5 69v470q0 77 -20 96q-15 14 -43 14v5h453l34 -138h-5q-52 118 -160 131q-13 2 -26 2h-83q-46 0 -57 -40q-5 -21 -6 -70v-234h73q73 0 115 53q25 32 25 70h5v-251h-5q0 61 -56 98q-38 25 -84 25h-73v-231q1 -75 18 -95 q16 -15 45 -15h114q104 0 176 129q10 17 18 35zM350 880l97 -111h-4l-119 74l-119 -74h-5l97 111h53z" glyph-name="Ecircumflex" horiz-adv-x="601" unicode="Ê"/>
<glyph d="M571 169h5l-41 -169h-485v5q47 0 58 41q5 22 5 69v470q0 77 -20 96q-15 14 -43 14v5h453l34 -138h-5q-52 118 -160 131q-13 2 -26 2h-83q-46 0 -57 -40q-5 -21 -6 -70v-234h73q73 0 115 53q25 32 25 70h5v-251h-5q0 61 -56 98q-38 25 -84 25h-73v-231q1 -75 18 -95 q16 -15 45 -15h114q104 0 176 129q10 17 18 35zM273 869q27 0 36 -25q3 -7 3 -14q0 -26 -25 -35q-7 -3 -14 -3q-26 0 -36 24q-3 7 -3 14q0 27 25 36q7 3 14 3zM375 869q26 0 35 -25q3 -7 3 -14q0 -27 -25 -36q-7 -2 -13 -2q-28 0 -37 26q-2 6 -2 12q0 28 26 37q7 2 13 2z " glyph-name="Edieresis" horiz-adv-x="601" unicode="Ë"/>
<glyph d="M200 585v-470q1 -75 18 -95q16 -15 45 -15v-5h-213v5q47 0 58 41q5 22 5 69v470q0 77 -20 96q-15 14 -43 14v5h213v-5q-46 0 -57 -40q-5 -21 -6 -70zM125 880l39 -111h-5l-89 111h55z" glyph-name="Igrave" horiz-adv-x="313" unicode="Ì"/>
<glyph d="M200 585v-470q1 -75 18 -95q16 -15 45 -15v-5h-213v5q47 0 58 41q5 22 5 69v470q0 77 -20 96q-15 14 -43 14v5h213v-5q-46 0 -57 -40q-5 -21 -6 -70zM149 769l39 111h56l-90 -111h-5z" glyph-name="Iacute" horiz-adv-x="313" unicode="Í"/>
<glyph d="M200 585v-470q1 -75 18 -95q16 -15 45 -15v-5h-213v5q47 0 58 41q5 22 5 69v470q0 77 -20 96q-15 14 -43 14v5h213v-5q-46 0 -57 -40q-5 -21 -6 -70zM183 880l97 -111h-4l-119 74l-119 -74h-5l97 111h53z" glyph-name="Icircumflex" horiz-adv-x="313" unicode="Î"/>
<glyph d="M200 585v-470q1 -75 18 -95q16 -15 45 -15v-5h-213v5q47 0 58 41q5 22 5 69v470q0 77 -20 96q-15 14 -43 14v5h213v-5q-46 0 -57 -40q-5 -21 -6 -70zM106 869q27 0 36 -25q3 -7 3 -14q0 -26 -25 -35q-7 -3 -14 -3q-26 0 -36 24q-3 7 -3 14q0 27 25 36q7 3 14 3zM208 869 q26 0 35 -25q3 -7 3 -14q0 -27 -25 -36q-7 -2 -13 -2q-28 0 -37 26q-2 6 -2 12q0 28 26 37q7 2 13 2z" glyph-name="Idieresis" horiz-adv-x="313" unicode="Ï"/>
<glyph d="M384 700q182 0 268 -136q55 -89 55 -214q0 -177 -104 -273q-85 -77 -219 -77h-334v5q46 0 57 39q6 22 6 71v231h-63v5h63v234q0 76 -19 96q-15 14 -44 14v5h334zM340 5q147 0 217 119q50 86 50 226q0 252 -155 322q-51 23 -112 23h-77q-46 0 -56 -38q-6 -22 -7 -72v-234 h194v-5h-194v-231q1 -76 18 -95q15 -15 45 -15h77z" glyph-name="Eth" horiz-adv-x="752" unicode="Ð"/>
<glyph d="M514 700h252v-5q-63 0 -98 -69q-25 -50 -25 -120v-506h-12q-3 4 -177 225q-288 367 -301 383v-414q0 -118 63 -167q28 -22 61 -22v-5h-252v5q64 0 99 71q24 49 24 118v420q-66 80 -116 81v5h167l439 -568v374q0 118 -63 167q-28 22 -61 22v5zM465 797q-10 1 -74 17 q-15 3 -23 4q-29 3 -41 -18h-5q0 18 14 41q14 20 32 23q13 2 87 -17q7 -1 10 -2q29 -5 37 12l2 6h5q0 -44 -22 -60q-10 -7 -22 -6z" glyph-name="Ntilde" horiz-adv-x="791" unicode="Ñ"/>
<glyph d="M391 707q163 15 278 -77q114 -91 129 -247q15 -167 -95 -278q-97 -98 -249 -112q-163 -15 -278 76q-114 92 -129 247q-15 168 95 280q97 97 249 111zM454 -2q109 10 180 113q78 112 64 264q-13 148 -105 244q-90 93 -202 83q-109 -9 -180 -112q-77 -112 -64 -263v-2 q13 -149 106 -245q90 -91 201 -82zM390 880l39 -111h-5l-89 111h55z" glyph-name="Ograve" horiz-adv-x="845" unicode="Ò"/>
<glyph d="M391 707q163 15 278 -77q114 -91 129 -247q15 -167 -95 -278q-97 -98 -249 -112q-163 -15 -278 76q-114 92 -129 247q-15 168 95 280q97 97 249 111zM454 -2q109 10 180 113q78 112 64 264q-13 148 -105 244q-90 93 -202 83q-109 -9 -180 -112q-77 -112 -64 -263v-2 q13 -149 106 -245q90 -91 201 -82zM405 769l39 111h56l-90 -111h-5z" glyph-name="Oacute" horiz-adv-x="845" unicode="Ó"/>
<glyph d="M391 707q163 15 278 -77q114 -91 129 -247q15 -167 -95 -278q-97 -98 -249 -112q-163 -15 -278 76q-114 92 -129 247q-15 168 95 280q97 97 249 111zM454 -2q109 10 180 113q78 112 64 264q-13 148 -105 244q-90 93 -202 83q-109 -9 -180 -112q-77 -112 -64 -263v-2 q13 -149 106 -245q90 -91 201 -82zM449 880l97 -111h-4l-119 74l-119 -74h-5l97 111h53z" glyph-name="Ocircumflex" horiz-adv-x="845" unicode="Ô"/>
<glyph d="M391 707q163 15 278 -77q114 -91 129 -247q15 -167 -95 -278q-97 -98 -249 -112q-163 -15 -278 76q-114 92 -129 247q-15 168 95 280q97 97 249 111zM454 -2q109 10 180 113q78 112 64 264q-13 148 -105 244q-90 93 -202 83q-109 -9 -180 -112q-77 -112 -64 -263v-2 q13 -149 106 -245q90 -91 201 -82zM472 797q-10 1 -74 17q-15 3 -23 4q-29 3 -41 -18h-5q0 18 14 41q14 20 32 23q13 2 87 -17q7 -1 10 -2q29 -5 37 12l2 6h5q0 -44 -22 -60q-10 -7 -22 -6z" glyph-name="Otilde" horiz-adv-x="845" unicode="Õ"/>
<glyph d="M391 707q163 15 278 -77q114 -91 129 -247q15 -167 -95 -278q-97 -98 -249 -112q-163 -15 -278 76q-114 92 -129 247q-15 168 95 280q97 97 249 111zM454 -2q109 10 180 113q78 112 64 264q-13 148 -105 244q-90 93 -202 83q-109 -9 -180 -112q-77 -112 -64 -263v-2 q13 -149 106 -245q90 -91 201 -82zM372 869q27 0 36 -25q3 -7 3 -14q0 -26 -25 -35q-7 -3 -14 -3q-26 0 -36 24q-3 7 -3 14q0 27 25 36q7 3 14 3zM474 869q26 0 35 -25q3 -7 3 -14q0 -27 -25 -36q-7 -2 -13 -2q-28 0 -37 26q-2 6 -2 12q0 28 26 37q7 2 13 2z" glyph-name="Odieresis" horiz-adv-x="845" unicode="Ö"/>
<glyph d="M252 379l-98 -98l98 -97l-3 -4l-98 98l-98 -98l-3 4l98 97l-98 98l3 3l98 -97l98 97z" glyph-name="multiply" horiz-adv-x="302" unicode="×"/>
<glyph d="M797 383q15 -167 -95 -278q-97 -98 -248 -112q-66 -6 -124 6l-15 -52h-5l15 53q-147 32 -223 150q-47 73 -55 166q-15 168 96 280q97 97 247 111q62 6 124 -7l14 53h5l-14 -54q145 -30 221 -147q48 -74 57 -169zM146 325q14 -151 107 -246q37 -36 78 -57l178 658 q-58 28 -119 22q-110 -10 -181 -114q-76 -112 -63 -263zM453 -2q110 9 181 112q77 113 63 265q-13 148 -106 245q-36 37 -78 58l-178 -658q58 -28 118 -22z" glyph-name="Oslash" horiz-adv-x="844" unicode="Ø"/>
<glyph d="M525 700h131v-5q-46 0 -57 -39q-6 -22 -6 -71v-367q0 -173 -140 -216q-41 -12 -88 -12q-120 0 -190 68q-62 60 -62 160v367q0 76 -19 96q-15 14 -44 14v5h213v-5q-46 0 -56 -38q-6 -22 -7 -72v-379q0 -122 74 -179q40 -30 91 -30q178 0 215 146q8 35 8 75v367 q0 76 -19 96q-15 14 -44 14v5zM351 880l39 -111h-5l-89 111h55z" glyph-name="Ugrave" horiz-adv-x="706" unicode="Ù"/>
<glyph d="M525 700h131v-5q-46 0 -57 -39q-6 -22 -6 -71v-367q0 -173 -140 -216q-41 -12 -88 -12q-120 0 -190 68q-62 60 -62 160v367q0 76 -19 96q-15 14 -44 14v5h213v-5q-46 0 -56 -38q-6 -22 -7 -72v-379q0 -122 74 -179q40 -30 91 -30q178 0 215 146q8 35 8 75v367 q0 76 -19 96q-15 14 -44 14v5zM375 769l39 111h56l-90 -111h-5z" glyph-name="Uacute" horiz-adv-x="706" unicode="Ú"/>
<glyph d="M525 700h131v-5q-46 0 -57 -39q-6 -22 -6 -71v-367q0 -173 -140 -216q-41 -12 -88 -12q-120 0 -190 68q-62 60 -62 160v367q0 76 -19 96q-15 14 -44 14v5h213v-5q-46 0 -56 -38q-6 -22 -7 -72v-379q0 -122 74 -179q40 -30 91 -30q178 0 215 146q8 35 8 75v367 q0 76 -19 96q-15 14 -44 14v5zM420 880l97 -111h-4l-119 74l-119 -74h-5l97 111h53z" glyph-name="Ucircumflex" horiz-adv-x="706" unicode="Û"/>
<glyph d="M525 700h131v-5q-46 0 -57 -39q-6 -22 -6 -71v-367q0 -173 -140 -216q-41 -12 -88 -12q-120 0 -190 68q-62 60 -62 160v367q0 76 -19 96q-15 14 -44 14v5h213v-5q-46 0 -56 -38q-6 -22 -7 -72v-379q0 -122 74 -179q40 -30 91 -30q178 0 215 146q8 35 8 75v367 q0 76 -19 96q-15 14 -44 14v5zM343 869q27 0 36 -25q3 -7 3 -14q0 -26 -25 -35q-7 -3 -14 -3q-26 0 -36 24q-3 7 -3 14q0 27 25 36q7 3 14 3zM445 869q26 0 35 -25q3 -7 3 -14q0 -27 -25 -36q-7 -2 -13 -2q-28 0 -37 26q-2 6 -2 12q0 28 26 37q7 2 13 2z" glyph-name="Udieresis" horiz-adv-x="706" unicode="Ü"/>
<glyph d="M433 700h213v-5q-80 -15 -134 -102q-15 -25 -26 -53q-33 -86 -90 -244v-181q1 -75 18 -95q16 -15 45 -15v-5h-213v5q47 0 58 41q5 22 5 69v180q-18 35 -62 120q-51 98 -64 123q-83 156 -153 157v5h221v-5q-37 0 -22 -57q5 -16 12 -30q103 -202 154 -303q62 174 72 199 q37 94 17 153q-15 37 -51 38v5zM350 769l39 111h56l-90 -111h-5z" glyph-name="Yacute" horiz-adv-x="676" unicode="Ý"/>
<glyph d="M307 551q110 0 176 -66q54 -55 54 -135q0 -110 -94 -166q-60 -35 -136 -35h-107v-34q0 -76 19 -96q15 -14 44 -14v-5h-213v5q46 0 56 38q6 22 7 72v470q-1 76 -18 95q-15 15 -45 15v5h213v-5q-46 0 -57 -39q-6 -22 -6 -71v-34h107zM295 154q63 0 106 59q39 54 39 137 q0 119 -73 172q-34 24 -72 24h-95v-392h95z" glyph-name="Thorn" horiz-adv-x="572" unicode="Þ"/>
<glyph d="M607 160q24 -67 -20 -119q-43 -50 -122 -50q-44 0 -90 19q-55 23 -76 -9q-9 -14 -9 -37h-5v252h5q0 -51 38 -122q52 -98 117 -99q54 0 75 46q18 43 -7 104q-22 54 -89 114q-56 49 -71 72q-46 68 6 178q4 10 9 19q43 82 8 136q-20 29 -59 39q-81 19 -104 -52 q-12 -40 -12 -116v-420q0 -76 19 -96q15 -14 44 -14v-5h-214v5q46 0 57 39q6 22 6 71v408q0 164 108 190q43 10 96 -3q83 -22 79 -106q-2 -38 -21 -76q-51 -101 11 -167q22 -23 96 -71q81 -53 109 -97q10 -16 16 -33z" glyph-name="germandbls" horiz-adv-x="655" unicode="ß"/>
<glyph d="M448 -2q19 0 34 10v-5q-20 -12 -47 -12q-86 0 -108 56q-7 18 -9 39q-39 -68 -98 -87q-72 -22 -126 6q-52 27 -48 90q5 76 111 112q21 8 64 19q31 8 43 12q30 10 53 24v89q0 107 -37 134q-20 14 -48 14q-87 -1 -111 -53q-9 -20 7 -45q11 -18 14 -28q7 -26 -16 -40 q-14 -7 -29 -4q-28 6 -30 41q0 19 8 37q46 95 160 96q112 0 149 -77q15 -31 15 -70v-252q0 -76 16 -94q12 -12 33 -12zM237 10q49 24 81 81q-1 7 -1 18v149q-19 -12 -49 -23q-8 -3 -29 -9q-74 -22 -100 -51q-20 -24 -24 -57q-9 -85 44 -111q36 -17 78 3zM222 680l39 -111h-5 l-89 111h55z" glyph-name="agrave" horiz-adv-x="502" unicode="à"/>
<glyph d="M448 -2q19 0 34 10v-5q-20 -12 -47 -12q-86 0 -108 56q-7 18 -9 39q-39 -68 -98 -87q-72 -22 -126 6q-52 27 -48 90q5 76 111 112q21 8 64 19q31 8 43 12q30 10 53 24v89q0 107 -37 134q-20 14 -48 14q-87 -1 -111 -53q-9 -20 7 -45q11 -18 14 -28q7 -26 -16 -40 q-14 -7 -29 -4q-28 6 -30 41q0 19 8 37q46 95 160 96q112 0 149 -77q15 -31 15 -70v-252q0 -76 16 -94q12 -12 33 -12zM237 10q49 24 81 81q-1 7 -1 18v149q-19 -12 -49 -23q-8 -3 -29 -9q-74 -22 -100 -51q-20 -24 -24 -57q-9 -85 44 -111q36 -17 78 3zM236 569l39 111h56 l-90 -111h-5z" glyph-name="aacute" horiz-adv-x="502" unicode="á"/>
<glyph d="M448 -2q19 0 34 10v-5q-20 -12 -47 -12q-86 0 -108 56q-7 18 -9 39q-39 -68 -98 -87q-72 -22 -126 6q-52 27 -48 90q5 76 111 112q21 8 64 19q31 8 43 12q30 10 53 24v89q0 107 -37 134q-20 14 -48 14q-87 -1 -111 -53q-9 -20 7 -45q11 -18 14 -28q7 -26 -16 -40 q-14 -7 -29 -4q-28 6 -30 41q0 19 8 37q46 95 160 96q112 0 149 -77q15 -31 15 -70v-252q0 -76 16 -94q12 -12 33 -12zM237 10q49 24 81 81q-1 7 -1 18v149q-19 -12 -49 -23q-8 -3 -29 -9q-74 -22 -100 -51q-20 -24 -24 -57q-9 -85 44 -111q36 -17 78 3zM260 680l97 -111h-4 l-119 74l-119 -74h-5l97 111h53z" glyph-name="acircumflex" horiz-adv-x="502" unicode="â"/>
<glyph d="M448 -2q19 0 34 10v-5q-20 -12 -47 -12q-86 0 -108 56q-7 18 -9 39q-39 -68 -98 -87q-72 -22 -126 6q-52 27 -48 90q5 76 111 112q21 8 64 19q31 8 43 12q30 10 53 24v89q0 107 -37 134q-20 14 -48 14q-87 -1 -111 -53q-9 -20 7 -45q11 -18 14 -28q7 -26 -16 -40 q-14 -7 -29 -4q-28 6 -30 41q0 19 8 37q46 95 160 96q112 0 149 -77q15 -31 15 -70v-252q0 -76 16 -94q12 -12 33 -12zM237 10q49 24 81 81q-1 7 -1 18v149q-19 -12 -49 -23q-8 -3 -29 -9q-74 -22 -100 -51q-20 -24 -24 -57q-9 -85 44 -111q36 -17 78 3zM283 597 q-10 1 -74 17q-15 3 -23 4q-29 3 -41 -18h-5q0 18 14 41q14 20 32 23q13 2 87 -17q7 -1 10 -2q29 -5 37 12l2 6h5q0 -44 -22 -60q-10 -7 -22 -6z" glyph-name="atilde" horiz-adv-x="502" unicode="ã"/>
<glyph d="M448 -2q19 0 34 10v-5q-20 -12 -47 -12q-86 0 -108 56q-7 18 -9 39q-39 -68 -98 -87q-72 -22 -126 6q-52 27 -48 90q5 76 111 112q21 8 64 19q31 8 43 12q30 10 53 24v89q0 107 -37 134q-20 14 -48 14q-87 -1 -111 -53q-9 -20 7 -45q11 -18 14 -28q7 -26 -16 -40 q-14 -7 -29 -4q-28 6 -30 41q0 19 8 37q46 95 160 96q112 0 149 -77q15 -31 15 -70v-252q0 -76 16 -94q12 -12 33 -12zM237 10q49 24 81 81q-1 7 -1 18v149q-19 -12 -49 -23q-8 -3 -29 -9q-74 -22 -100 -51q-20 -24 -24 -57q-9 -85 44 -111q36 -17 78 3zM173 669 q27 0 36 -25q3 -7 3 -14q0 -26 -25 -35q-7 -3 -14 -3q-26 0 -36 24q-3 7 -3 14q0 27 25 36q7 3 14 3zM275 669q26 0 35 -25q3 -7 3 -14q0 -27 -25 -36q-7 -2 -13 -2q-28 0 -37 26q-2 6 -2 12q0 28 26 37q7 2 13 2z" glyph-name="adieresis" horiz-adv-x="502" unicode="ä"/>
<glyph d="M448 -2q19 0 34 10v-5q-20 -12 -47 -12q-86 0 -108 56q-7 18 -9 39q-39 -68 -98 -87q-72 -22 -126 6q-52 27 -48 90q5 76 111 112q21 8 64 19q31 8 43 12q30 10 53 24v89q0 107 -37 134q-20 14 -48 14q-87 -1 -111 -53q-9 -20 7 -45q11 -18 14 -28q7 -26 -16 -40 q-14 -7 -29 -4q-28 6 -30 41q0 19 8 37q46 95 160 96q112 0 149 -77q15 -31 15 -70v-252q0 -76 16 -94q12 -12 33 -12zM237 10q49 24 81 81q-1 7 -1 18v149q-19 -12 -49 -23q-8 -3 -29 -9q-74 -22 -100 -51q-20 -24 -24 -57q-9 -85 44 -111q36 -17 78 3zM224 557 q-36 0 -52 32q-6 13 -6 26q0 36 32 52q13 6 26 6q36 0 52 -32q6 -13 6 -26q0 -36 -32 -52q-13 -6 -26 -6zM224 668q-33 0 -48 -30q-5 -11 -5 -23q0 -34 30 -49q12 -5 23 -5q34 0 49 31q5 11 5 23q0 33 -31 48q-11 5 -23 5z" glyph-name="aring" horiz-adv-x="502" unicode="å"/>
<glyph d="M790 333h-377q-8 -53 -4 -102q13 -145 100 -206q45 -31 101 -30q87 3 157 69v-11q-66 -56 -157 -62q-125 -9 -209 63q-39 35 -60 81q-43 -112 -120 -136q-71 -22 -126 5q-52 28 -49 90q6 76 111 113q22 7 63 18q32 8 44 12q36 13 56 26v88q0 116 -49 140q-17 8 -38 8 q-86 -1 -112 -54q-9 -20 8 -44q11 -18 14 -28q6 -26 -17 -40q-13 -8 -28 -5q-28 6 -30 41q0 19 8 38q47 95 159 96q110 0 148 -74q2 -3 3 -6q70 72 177 80q118 9 183 -70q34 -42 44 -100zM563 499q-80 1 -125 -88q-16 -33 -24 -74h291q-17 160 -142 162zM238 10 q68 34 102 129q-17 41 -20 89v6q-1 15 -1 24q-23 -13 -50 -23q-9 -4 -31 -10q-72 -22 -97 -50q-21 -24 -25 -58q-9 -84 44 -110q36 -17 78 3z" glyph-name="ae" horiz-adv-x="825" unicode="æ"/>
<glyph d="M316 -5q60 1 120 49q11 9 19 17v-12q-70 -52 -139 -58h-15q-3 -9 -5 -14q73 6 85 -37q3 -16 -2 -34q-11 -37 -56 -39q-14 -1 -27 2q-19 6 -35 22v11q15 -21 30 -27q28 -9 43 23q4 8 5 16q9 50 -25 58q-11 2 -23 2q2 4 7 17q-127 -2 -200 79q-57 63 -62 160 q-7 159 107 232q54 34 126 41q91 10 158 -51q21 -19 30 -37q19 -42 -3 -68q-9 -8 -19 -11q-26 -6 -40 17q-7 14 -4 28q1 5 16 31q10 20 -3 39q-26 37 -93 47q-22 2 -42 1q-89 -7 -128 -110q-25 -68 -21 -157q5 -130 83 -196q50 -41 113 -41z" glyph-name="ccedilla" horiz-adv-x="500" unicode="ç"/>
<glyph d="M36 229zM506 333h-377q-8 -52 -4 -101q13 -144 98 -206q46 -32 103 -31q87 2 157 70v-11q-67 -57 -157 -63q-124 -8 -207 65q-75 66 -83 173q-8 126 81 206q68 61 162 68q118 9 183 -70q34 -42 44 -100zM279 499q-80 1 -125 -88q-16 -33 -24 -74h291q-17 158 -142 162z M239 680l39 -111h-5l-89 111h55z" glyph-name="egrave" horiz-adv-x="541" unicode="è"/>
<glyph d="M36 229zM506 333h-377q-8 -52 -4 -101q13 -144 98 -206q46 -32 103 -31q87 2 157 70v-11q-67 -57 -157 -63q-124 -8 -207 65q-75 66 -83 173q-8 126 81 206q68 61 162 68q118 9 183 -70q34 -42 44 -100zM279 499q-80 1 -125 -88q-16 -33 -24 -74h291q-17 158 -142 162z M273 569l39 111h56l-90 -111h-5z" glyph-name="eacute" horiz-adv-x="541" unicode="é"/>
<glyph d="M36 229zM506 333h-377q-8 -52 -4 -101q13 -144 98 -206q46 -32 103 -31q87 2 157 70v-11q-67 -57 -157 -63q-124 -8 -207 65q-75 66 -83 173q-8 126 81 206q68 61 162 68q118 9 183 -70q34 -42 44 -100zM279 499q-80 1 -125 -88q-16 -33 -24 -74h291q-17 158 -142 162z M307 680l97 -111h-4l-119 74l-119 -74h-5l97 111h53z" glyph-name="ecircumflex" horiz-adv-x="541" unicode="ê"/>
<glyph d="M36 229zM506 333h-377q-8 -52 -4 -101q13 -144 98 -206q46 -32 103 -31q87 2 157 70v-11q-67 -57 -157 -63q-124 -8 -207 65q-75 66 -83 173q-8 126 81 206q68 61 162 68q118 9 183 -70q34 -42 44 -100zM279 499q-80 1 -125 -88q-16 -33 -24 -74h291q-17 158 -142 162z M230 669q27 0 36 -25q3 -7 3 -14q0 -26 -25 -35q-7 -3 -14 -3q-26 0 -36 24q-3 7 -3 14q0 27 25 36q7 3 14 3zM332 669q26 0 35 -25q3 -7 3 -14q0 -27 -25 -36q-7 -2 -13 -2q-28 0 -37 26q-2 6 -2 12q0 28 26 37q7 2 13 2z" glyph-name="edieresis" horiz-adv-x="541" unicode="ë"/>
<glyph d="M195 115q0 -77 20 -96q15 -14 43 -14v-5h-208v5q46 0 57 40q5 21 6 70v265q-1 75 -18 94q-15 15 -45 15v5h162v-5q-17 -10 -17 -151v-223zM122 680l39 -111h-5l-89 111h55z" glyph-name="igrave" horiz-adv-x="308" unicode="ì"/>
<glyph d="M195 115q0 -77 20 -96q15 -14 43 -14v-5h-208v5q46 0 57 40q5 21 6 70v265q-1 75 -18 94q-15 15 -45 15v5h162v-5q-17 -10 -17 -151v-223zM147 569l39 111h56l-90 -111h-5z" glyph-name="iacute" horiz-adv-x="308" unicode="í"/>
<glyph d="M195 115q0 -77 20 -96q15 -14 43 -14v-5h-208v5q46 0 57 40q5 21 6 70v265q-1 75 -18 94q-15 15 -45 15v5h162v-5q-17 -10 -17 -151v-223zM171 680l97 -111h-4l-119 74l-119 -74h-5l97 111h53z" glyph-name="icircumflex" horiz-adv-x="308" unicode="î"/>
<glyph d="M195 115q0 -77 20 -96q15 -14 43 -14v-5h-208v5q46 0 57 40q5 21 6 70v265q-1 75 -18 94q-15 15 -45 15v5h162v-5q-17 -10 -17 -151v-223zM94 669q27 0 36 -25q3 -7 3 -14q0 -26 -25 -35q-7 -3 -14 -3q-26 0 -36 24q-3 7 -3 14q0 27 25 36q7 3 14 3zM196 669q26 0 35 -25 q3 -7 3 -14q0 -27 -25 -36q-7 -2 -13 -2q-28 0 -37 26q-2 6 -2 12q0 28 26 37q7 2 13 2z" glyph-name="idieresis" horiz-adv-x="308" unicode="ï"/>
<glyph d="M370 622q180 -132 181 -351q0 -152 -93 -228q-54 -43 -129 -50q-133 -11 -216 72q-61 62 -71 160q-11 123 72 206q68 67 169 75q69 4 125 -20q-28 54 -76 109l-73 -52l-3 4l72 51q-38 41 -106 97v5q88 -35 144 -75l57 40l3 -3zM329 -3q75 8 114 101q31 77 23 169 q-12 128 -77 194q-46 46 -105 41q-101 -8 -140 -110q-25 -68 -17 -160q15 -158 103 -213q44 -28 99 -22z" glyph-name="eth" unicode="ð"/>
<glyph d="M515 115q1 -76 18 -95q15 -15 45 -15v-5h-208v5q47 0 58 41q5 22 5 69v234q0 122 -71 143q-18 5 -38 5q-48 0 -92 -43q-24 -25 -35 -54q-1 -19 -1 -61v-224q0 -77 20 -96q15 -14 43 -14v-5h-209v5q47 0 58 41q5 22 5 69v264q0 76 -19 96q-15 14 -44 14v5h163v-5 q-12 -7 -16 -77q40 77 119 90q14 2 28 2q170 -2 171 -160v-229zM383 597q-10 1 -74 17q-15 3 -23 4q-29 3 -41 -18h-5q0 18 14 41q14 20 32 23q13 2 87 -17q7 -1 10 -2q29 -5 37 12l2 6h5q0 -44 -22 -60q-10 -7 -22 -6z" glyph-name="ntilde" horiz-adv-x="628" unicode="ñ"/>
<glyph d="M284 503q117 8 196 -65q70 -67 74 -169q4 -120 -71 -202q-62 -67 -154 -76q-119 -11 -204 59q-79 66 -85 173q-8 128 77 209q68 64 167 71zM329 -5q75 10 113 104q30 74 24 166q-7 114 -69 184q-50 54 -113 50q-97 -8 -137 -110q-26 -68 -20 -160q11 -149 94 -208 q48 -33 108 -26zM254 680l39 -111h-5l-89 111h55z" glyph-name="ograve" unicode="ò"/>
<glyph d="M284 503q117 8 196 -65q70 -67 74 -169q4 -120 -71 -202q-62 -67 -154 -76q-119 -11 -204 59q-79 66 -85 173q-8 128 77 209q68 64 167 71zM329 -5q75 10 113 104q30 74 24 166q-7 114 -69 184q-50 54 -113 50q-97 -8 -137 -110q-26 -68 -20 -160q11 -149 94 -208 q48 -33 108 -26zM278 569l39 111h56l-90 -111h-5z" glyph-name="oacute" unicode="ó"/>
<glyph d="M284 503q117 8 196 -65q70 -67 74 -169q4 -120 -71 -202q-62 -67 -154 -76q-119 -11 -204 59q-79 66 -85 173q-8 128 77 209q68 64 167 71zM329 -5q75 10 113 104q30 74 24 166q-7 114 -69 184q-50 54 -113 50q-97 -8 -137 -110q-26 -68 -20 -160q11 -149 94 -208 q48 -33 108 -26zM322 680l97 -111h-4l-119 74l-119 -74h-5l97 111h53z" glyph-name="ocircumflex" unicode="ô"/>
<glyph d="M284 503q117 8 196 -65q70 -67 74 -169q4 -120 -71 -202q-62 -67 -154 -76q-119 -11 -204 59q-79 66 -85 173q-8 128 77 209q68 64 167 71zM329 -5q75 10 113 104q30 74 24 166q-7 114 -69 184q-50 54 -113 50q-97 -8 -137 -110q-26 -68 -20 -160q11 -149 94 -208 q48 -33 108 -26zM345 597q-10 1 -74 17q-15 3 -23 4q-29 3 -41 -18h-5q0 18 14 41q14 20 32 23q13 2 87 -17q7 -1 10 -2q29 -5 37 12l2 6h5q0 -44 -22 -60q-10 -7 -22 -6z" glyph-name="otilde" unicode="õ"/>
<glyph d="M284 503q117 8 196 -65q70 -67 74 -169q4 -120 -71 -202q-62 -67 -154 -76q-119 -11 -204 59q-79 66 -85 173q-8 128 77 209q68 64 167 71zM329 -5q75 10 113 104q30 74 24 166q-7 114 -69 184q-50 54 -113 50q-97 -8 -137 -110q-26 -68 -20 -160q11 -149 94 -208 q48 -33 108 -26zM245 669q27 0 36 -25q3 -7 3 -14q0 -26 -25 -35q-7 -3 -14 -3q-26 0 -36 24q-3 7 -3 14q0 27 25 36q7 3 14 3zM347 669q26 0 35 -25q3 -7 3 -14q0 -27 -25 -36q-7 -2 -13 -2q-28 0 -37 26q-2 6 -2 12q0 28 26 37q7 2 13 2z" glyph-name="odieresis" unicode="ö"/>
<glyph d="M50 277h281v-5h-281v5zM191 342q-27 0 -36 25q-3 7 -3 14q0 27 25 36q7 3 14 3q26 0 35 -25q3 -7 3 -14q0 -26 -24 -36q-7 -3 -14 -3zM191 207q26 0 35 -25q3 -7 3 -14q0 -28 -26 -37q-6 -2 -12 -2q-28 0 -37 26q-2 7 -2 13q0 27 25 36q7 3 14 3z" glyph-name="divide" horiz-adv-x="381" unicode="÷"/>
<glyph d="M553 269q3 -122 -72 -203q-62 -66 -153 -75q-51 -4 -97 6l-15 -55h-5l15 57q-109 28 -158 120q-25 48 -29 104q-8 128 77 209q68 64 167 71q39 3 78 -5l15 54h4l-14 -55q107 -25 157 -114q28 -52 30 -114zM126 229q11 -147 92 -207l12 -8l127 468q-34 20 -74 17 q-97 -8 -137 -110q-26 -68 -20 -160zM328 -5q75 10 113 104q30 74 24 166q-6 111 -67 182q-18 20 -37 33l-126 -469q41 -22 93 -16z" glyph-name="oslash" unicode="ø"/>
<glyph d="M510 115v-1q1 -75 18 -94q15 -15 45 -15v-5h-162v5q11 6 15 76q-37 -73 -113 -88q-16 -3 -33 -3q-171 2 -172 160v229q0 76 -19 96q-15 14 -44 14v5h162v-5q-16 -11 -16 -150v-194q0 -112 58 -138q22 -10 50 -10q49 0 93 43q24 25 35 54v26q1 23 1 35v224q-1 76 -18 95 q-15 15 -45 15v5h162v-5q-17 -10 -17 -150v-224zM277 680l39 -111h-5l-89 111h55z" glyph-name="ugrave" horiz-adv-x="623" unicode="ù"/>
<glyph d="M510 115v-1q1 -75 18 -94q15 -15 45 -15v-5h-162v5q11 6 15 76q-37 -73 -113 -88q-16 -3 -33 -3q-171 2 -172 160v229q0 76 -19 96q-15 14 -44 14v5h162v-5q-16 -11 -16 -150v-194q0 -112 58 -138q22 -10 50 -10q49 0 93 43q24 25 35 54v26q1 23 1 35v224q-1 76 -18 95 q-15 15 -45 15v5h162v-5q-17 -10 -17 -150v-224zM292 569l39 111h56l-90 -111h-5z" glyph-name="uacute" horiz-adv-x="623" unicode="ú"/>
<glyph d="M510 115v-1q1 -75 18 -94q15 -15 45 -15v-5h-162v5q11 6 15 76q-37 -73 -113 -88q-16 -3 -33 -3q-171 2 -172 160v229q0 76 -19 96q-15 14 -44 14v5h162v-5q-16 -11 -16 -150v-194q0 -112 58 -138q22 -10 50 -10q49 0 93 43q24 25 35 54v26q1 23 1 35v224q-1 76 -18 95 q-15 15 -45 15v5h162v-5q-17 -10 -17 -150v-224zM326 680l97 -111h-4l-119 74l-119 -74h-5l97 111h53z" glyph-name="ucircumflex" horiz-adv-x="623" unicode="û"/>
<glyph d="M510 115v-1q1 -75 18 -94q15 -15 45 -15v-5h-162v5q11 6 15 76q-37 -73 -113 -88q-16 -3 -33 -3q-171 2 -172 160v229q0 76 -19 96q-15 14 -44 14v5h162v-5q-16 -11 -16 -150v-194q0 -112 58 -138q22 -10 50 -10q49 0 93 43q24 25 35 54v26q1 23 1 35v224q-1 76 -18 95 q-15 15 -45 15v5h162v-5q-17 -10 -17 -150v-224zM249 669q27 0 36 -25q3 -7 3 -14q0 -26 -25 -35q-7 -3 -14 -3q-26 0 -36 24q-3 7 -3 14q0 27 25 36q7 3 14 3zM351 669q26 0 35 -25q3 -7 3 -14q0 -27 -25 -36q-7 -2 -13 -2q-28 0 -37 26q-2 6 -2 12q0 28 26 37q7 2 13 2z " glyph-name="udieresis" horiz-adv-x="623" unicode="ü"/>
<glyph d="M385 494h150v-5q-64 -13 -102 -109q-16 -42 -105 -291q-29 -82 -32 -89q-84 -204 -166 -216q-4 -1 -7 -1q-42 -2 -57 28q-6 11 -5 24q1 26 26 32q16 4 30 -5q8 -5 21 -36q12 -27 30 -21q7 3 14 8q42 34 91 143q10 22 18 44h-4l-180 395q-27 60 -41 75q-19 19 -41 19v5 h171v-5q-30 0 -30 -20q1 -16 14 -47q15 -37 121 -278q20 -46 23 -53q32 90 85 236q9 24 10 28q20 53 5 100q-13 33 -39 34v5zM293 569l39 111h56l-90 -111h-5z" glyph-name="yacute" horiz-adv-x="555" unicode="ý"/>
<glyph d="M341 405q100 0 163 -75q57 -70 57 -182q0 -152 -100 -220q-54 -36 -120 -36q-92 0 -139 82l-6 12v-68q0 -77 19 -96q15 -14 43 -14v-5h-208v5q47 0 58 41q5 22 5 69v461q0 77 -20 96q-15 14 -43 14v5h162v-5q-16 -11 -16 -150v-28q38 80 119 92q13 2 26 2zM322 -101 q105 0 141 121q16 55 16 128q0 191 -98 237q-27 13 -59 13q-51 0 -93 -45q-22 -25 -33 -54v-301q22 -62 81 -88q24 -11 45 -11z" glyph-name="thorn" horiz-adv-x="601" unicode="þ"/>
</font>
</defs>
</svg>
